<?xml version="1.0" encoding="utf-8" standalone="no"?>
<!DOCTYPE svg PUBLIC "-//W3C//DTD SVG 1.1//EN"
  "http://www.w3.org/Graphics/SVG/1.1/DTD/svg11.dtd">
<svg xmlns:xlink="http://www.w3.org/1999/xlink" width="598.79952pt" height="339.59952pt" viewBox="0 0 598.79952 339.59952" xmlns="http://www.w3.org/2000/svg" version="1.1">
 <metadata>
  <rdf:RDF xmlns:dc="http://purl.org/dc/elements/1.1/" xmlns:cc="http://creativecommons.org/ns#" xmlns:rdf="http://www.w3.org/1999/02/22-rdf-syntax-ns#">
   <cc:Work>
    <dc:type rdf:resource="http://purl.org/dc/dcmitype/StillImage"/>
    <dc:date>2026-07-15T13:18:29.865241</dc:date>
    <dc:format>image/svg+xml</dc:format>
    <dc:creator>
     <cc:Agent>
      <dc:title>Matplotlib v3.11.0, https://matplotlib.org/</dc:title>
     </cc:Agent>
    </dc:creator>
   </cc:Work>
  </rdf:RDF>
 </metadata>
 <defs>
  <style type="text/css">*{stroke-linejoin: round; stroke-linecap: butt}</style>
 </defs>
 <g id="figure_1">
  <g id="patch_1">
   <path d="M 0 339.59952 
L 598.79952 339.59952 
L 598.79952 0 
L 0 0 
z
" style="fill: #ffffff"/>
  </g>
  <g id="axes_1">
   <g id="patch_2">
    <path d="M 68.700781 302.398739 
L 591.59952 302.398739 
L 591.59952 25.558281 
L 68.700781 25.558281 
z
" style="fill: #f8fafc"/>
   </g>
   <g id="matplotlib.axis_1">
    <g id="xtick_1">
     <g id="line2d_1">
      <path d="M 92.468906 302.398739 
L 92.468906 25.558281 
" clip-path="url(#pfef6c6fc92)" style="fill: none; stroke: #e2e8f0; stroke-width: 0.8; stroke-linecap: square"/>
     </g>
     <g id="line2d_2">
      <defs>
       <path id="mdb2d7b1d1f" d="M 0 0 
L 0 3.5 
" style="stroke: #64748b; stroke-width: 0.8"/>
      </defs>
      <g>
       <use xlink:href="#mdb2d7b1d1f" x="92.468906" y="302.398739" style="fill: #64748b; stroke: #64748b; stroke-width: 0.8"/>
      </g>
     </g>
     <g id="text_1">
      <!-- 0 -->
      <g style="fill: #64748b" transform="translate(89.605781 316.236629) scale(0.09 -0.09)">
       <defs>
        <path id="DejaVuSans-13" d="M 2034 4250 
Q 1547 4250 1301 3770 
Q 1056 3291 1056 2328 
Q 1056 1369 1301 889 
Q 1547 409 2034 409 
Q 2525 409 2770 889 
Q 3016 1369 3016 2328 
Q 3016 3291 2770 3770 
Q 2525 4250 2034 4250 
z
M 2034 4750 
Q 2819 4750 3233 4129 
Q 3647 3509 3647 2328 
Q 3647 1150 3233 529 
Q 2819 -91 2034 -91 
Q 1250 -91 836 529 
Q 422 1150 422 2328 
Q 422 3509 836 4129 
Q 1250 4750 2034 4750 
z
" transform="scale(0.015625)"/>
       </defs>
       <use xlink:href="#DejaVuSans-13"/>
      </g>
     </g>
    </g>
    <g id="xtick_2">
     <g id="line2d_3">
      <path d="M 208.128879 302.398739 
L 208.128879 25.558281 
" clip-path="url(#pfef6c6fc92)" style="fill: none; stroke: #e2e8f0; stroke-width: 0.8; stroke-linecap: square"/>
     </g>
     <g id="line2d_4">
      <g>
       <use xlink:href="#mdb2d7b1d1f" x="208.128879" y="302.398739" style="fill: #64748b; stroke: #64748b; stroke-width: 0.8"/>
      </g>
     </g>
     <g id="text_2">
      <!-- 100 -->
      <g style="fill: #64748b" transform="translate(199.539504 316.236629) scale(0.09 -0.09)">
       <defs>
        <path id="DejaVuSans-14" d="M 794 531 
L 1825 531 
L 1825 4091 
L 703 3866 
L 703 4441 
L 1819 4666 
L 2450 4666 
L 2450 531 
L 3481 531 
L 3481 0 
L 794 0 
L 794 531 
z
" transform="scale(0.015625)"/>
       </defs>
       <use xlink:href="#DejaVuSans-14"/>
       <use xlink:href="#DejaVuSans-13" transform="translate(63.625 0)"/>
       <use xlink:href="#DejaVuSans-13" transform="translate(127.25 0)"/>
      </g>
     </g>
    </g>
    <g id="xtick_3">
     <g id="line2d_5">
      <path d="M 323.788852 302.398739 
L 323.788852 25.558281 
" clip-path="url(#pfef6c6fc92)" style="fill: none; stroke: #e2e8f0; stroke-width: 0.8; stroke-linecap: square"/>
     </g>
     <g id="line2d_6">
      <g>
       <use xlink:href="#mdb2d7b1d1f" x="323.788852" y="302.398739" style="fill: #64748b; stroke: #64748b; stroke-width: 0.8"/>
      </g>
     </g>
     <g id="text_3">
      <!-- 200 -->
      <g style="fill: #64748b" transform="translate(315.199477 316.236629) scale(0.09 -0.09)">
       <defs>
        <path id="DejaVuSans-15" d="M 1228 531 
L 3431 531 
L 3431 0 
L 469 0 
L 469 531 
Q 828 903 1448 1529 
Q 2069 2156 2228 2338 
Q 2531 2678 2651 2914 
Q 2772 3150 2772 3378 
Q 2772 3750 2511 3984 
Q 2250 4219 1831 4219 
Q 1534 4219 1204 4116 
Q 875 4013 500 3803 
L 500 4441 
Q 881 4594 1212 4672 
Q 1544 4750 1819 4750 
Q 2544 4750 2975 4387 
Q 3406 4025 3406 3419 
Q 3406 3131 3298 2873 
Q 3191 2616 2906 2266 
Q 2828 2175 2409 1742 
Q 1991 1309 1228 531 
z
" transform="scale(0.015625)"/>
       </defs>
       <use xlink:href="#DejaVuSans-15"/>
       <use xlink:href="#DejaVuSans-13" transform="translate(63.625 0)"/>
       <use xlink:href="#DejaVuSans-13" transform="translate(127.25 0)"/>
      </g>
     </g>
    </g>
    <g id="xtick_4">
     <g id="line2d_7">
      <path d="M 439.448825 302.398739 
L 439.448825 25.558281 
" clip-path="url(#pfef6c6fc92)" style="fill: none; stroke: #e2e8f0; stroke-width: 0.8; stroke-linecap: square"/>
     </g>
     <g id="line2d_8">
      <g>
       <use xlink:href="#mdb2d7b1d1f" x="439.448825" y="302.398739" style="fill: #64748b; stroke: #64748b; stroke-width: 0.8"/>
      </g>
     </g>
     <g id="text_4">
      <!-- 300 -->
      <g style="fill: #64748b" transform="translate(430.85945 316.236629) scale(0.09 -0.09)">
       <defs>
        <path id="DejaVuSans-16" d="M 2597 2516 
Q 3050 2419 3304 2112 
Q 3559 1806 3559 1356 
Q 3559 666 3084 287 
Q 2609 -91 1734 -91 
Q 1441 -91 1130 -33 
Q 819 25 488 141 
L 488 750 
Q 750 597 1062 519 
Q 1375 441 1716 441 
Q 2309 441 2620 675 
Q 2931 909 2931 1356 
Q 2931 1769 2642 2001 
Q 2353 2234 1838 2234 
L 1294 2234 
L 1294 2753 
L 1863 2753 
Q 2328 2753 2575 2939 
Q 2822 3125 2822 3475 
Q 2822 3834 2567 4026 
Q 2313 4219 1838 4219 
Q 1578 4219 1281 4162 
Q 984 4106 628 3988 
L 628 4550 
Q 988 4650 1302 4700 
Q 1616 4750 1894 4750 
Q 2613 4750 3031 4423 
Q 3450 4097 3450 3541 
Q 3450 3153 3228 2886 
Q 3006 2619 2597 2516 
z
" transform="scale(0.015625)"/>
       </defs>
       <use xlink:href="#DejaVuSans-16"/>
       <use xlink:href="#DejaVuSans-13" transform="translate(63.625 0)"/>
       <use xlink:href="#DejaVuSans-13" transform="translate(127.25 0)"/>
      </g>
     </g>
    </g>
    <g id="xtick_5">
     <g id="line2d_9">
      <path d="M 555.108798 302.398739 
L 555.108798 25.558281 
" clip-path="url(#pfef6c6fc92)" style="fill: none; stroke: #e2e8f0; stroke-width: 0.8; stroke-linecap: square"/>
     </g>
     <g id="line2d_10">
      <g>
       <use xlink:href="#mdb2d7b1d1f" x="555.108798" y="302.398739" style="fill: #64748b; stroke: #64748b; stroke-width: 0.8"/>
      </g>
     </g>
     <g id="text_5">
      <!-- 400 -->
      <g style="fill: #64748b" transform="translate(546.519423 316.236629) scale(0.09 -0.09)">
       <defs>
        <path id="DejaVuSans-17" d="M 2419 4116 
L 825 1625 
L 2419 1625 
L 2419 4116 
z
M 2253 4666 
L 3047 4666 
L 3047 1625 
L 3713 1625 
L 3713 1100 
L 3047 1100 
L 3047 0 
L 2419 0 
L 2419 1100 
L 313 1100 
L 313 1709 
L 2253 4666 
z
" transform="scale(0.015625)"/>
       </defs>
       <use xlink:href="#DejaVuSans-17"/>
       <use xlink:href="#DejaVuSans-13" transform="translate(63.625 0)"/>
       <use xlink:href="#DejaVuSans-13" transform="translate(127.25 0)"/>
      </g>
     </g>
    </g>
    <g id="text_6">
     <!-- Epoch -->
     <g style="fill: #334155" transform="translate(314.839213 329.997176) scale(0.1 -0.1)">
      <defs>
       <path id="DejaVuSans-28" d="M 628 4666 
L 3578 4666 
L 3578 4134 
L 1259 4134 
L 1259 2753 
L 3481 2753 
L 3481 2222 
L 1259 2222 
L 1259 531 
L 3634 531 
L 3634 0 
L 628 0 
L 628 4666 
z
" transform="scale(0.015625)"/>
       <path id="DejaVuSans-53" d="M 1159 525 
L 1159 -1331 
L 581 -1331 
L 581 3500 
L 1159 3500 
L 1159 2969 
Q 1341 3281 1617 3432 
Q 1894 3584 2278 3584 
Q 2916 3584 3314 3078 
Q 3713 2572 3713 1747 
Q 3713 922 3314 415 
Q 2916 -91 2278 -91 
Q 1894 -91 1617 61 
Q 1341 213 1159 525 
z
M 3116 1747 
Q 3116 2381 2855 2742 
Q 2594 3103 2138 3103 
Q 1681 3103 1420 2742 
Q 1159 2381 1159 1747 
Q 1159 1113 1420 752 
Q 1681 391 2138 391 
Q 2594 391 2855 752 
Q 3116 1113 3116 1747 
z
" transform="scale(0.015625)"/>
       <path id="DejaVuSans-52" d="M 1959 3097 
Q 1497 3097 1228 2736 
Q 959 2375 959 1747 
Q 959 1119 1226 758 
Q 1494 397 1959 397 
Q 2419 397 2687 759 
Q 2956 1122 2956 1747 
Q 2956 2369 2687 2733 
Q 2419 3097 1959 3097 
z
M 1959 3584 
Q 2709 3584 3137 3096 
Q 3566 2609 3566 1747 
Q 3566 888 3137 398 
Q 2709 -91 1959 -91 
Q 1206 -91 779 398 
Q 353 888 353 1747 
Q 353 2609 779 3096 
Q 1206 3584 1959 3584 
z
" transform="scale(0.015625)"/>
       <path id="DejaVuSans-46" d="M 3122 3366 
L 3122 2828 
Q 2878 2963 2633 3030 
Q 2388 3097 2138 3097 
Q 1578 3097 1268 2742 
Q 959 2388 959 1747 
Q 959 1106 1268 751 
Q 1578 397 2138 397 
Q 2388 397 2633 464 
Q 2878 531 3122 666 
L 3122 134 
Q 2881 22 2623 -34 
Q 2366 -91 2075 -91 
Q 1284 -91 818 406 
Q 353 903 353 1747 
Q 353 2603 823 3093 
Q 1294 3584 2113 3584 
Q 2378 3584 2631 3529 
Q 2884 3475 3122 3366 
z
" transform="scale(0.015625)"/>
       <path id="DejaVuSans-4b" d="M 3513 2113 
L 3513 0 
L 2938 0 
L 2938 2094 
Q 2938 2591 2744 2837 
Q 2550 3084 2163 3084 
Q 1697 3084 1428 2787 
Q 1159 2491 1159 1978 
L 1159 0 
L 581 0 
L 581 4863 
L 1159 4863 
L 1159 2956 
Q 1366 3272 1645 3428 
Q 1925 3584 2291 3584 
Q 2894 3584 3203 3211 
Q 3513 2838 3513 2113 
z
" transform="scale(0.015625)"/>
      </defs>
      <use xlink:href="#DejaVuSans-28"/>
      <use xlink:href="#DejaVuSans-53" transform="translate(63.1875 0)"/>
      <use xlink:href="#DejaVuSans-52" transform="translate(126.671875 0)"/>
      <use xlink:href="#DejaVuSans-46" transform="translate(187.859375 0)"/>
      <use xlink:href="#DejaVuSans-4b" transform="translate(242.84375 0)"/>
     </g>
    </g>
   </g>
   <g id="matplotlib.axis_2">
    <g id="ytick_1">
     <g id="line2d_11">
      <path d="M 68.700781 153.936149 
L 591.59952 153.936149 
" clip-path="url(#pfef6c6fc92)" style="fill: none; stroke: #e2e8f0; stroke-width: 0.8; stroke-linecap: square"/>
     </g>
     <g id="line2d_12">
      <defs>
       <path id="m8ba597d831" d="M 0 0 
L -3.5 0 
" style="stroke: #64748b; stroke-width: 0.8"/>
      </defs>
      <g>
       <use xlink:href="#m8ba597d831" x="68.700781" y="153.936149" style="fill: #64748b; stroke: #64748b; stroke-width: 0.8"/>
      </g>
     </g>
     <g id="text_7">
      <!-- $\mathdefault{10^{-2}}$ -->
      <g style="fill: #64748b" transform="translate(40.550781 158.166149) scale(0.09 -0.09)">
       <defs>
        <path id="DejaVuSans-c9c" d="M 678 2272 
L 4684 2272 
L 4684 1741 
L 678 1741 
L 678 2272 
z
" transform="scale(0.015625)"/>
       </defs>
       <use xlink:href="#DejaVuSans-14" transform="translate(0 0.746875)"/>
       <use xlink:href="#DejaVuSans-13" transform="translate(63.623047 0.746875)"/>
       <use xlink:href="#DejaVuSans-c9c" transform="translate(128.203125 42.046875) scale(0.7)"/>
       <use xlink:href="#DejaVuSans-15" transform="translate(186.855469 42.046875) scale(0.7)"/>
      </g>
     </g>
    </g>
    <g id="ytick_2">
     <g id="line2d_13">
      <defs>
       <path id="ma48ff1b423" d="M 0 0 
L -2 0 
" style="stroke: #64748b; stroke-width: 0.6"/>
      </defs>
      <g>
       <use xlink:href="#ma48ff1b423" x="68.700781" y="272.718568" style="fill: #64748b; stroke: #64748b; stroke-width: 0.6"/>
      </g>
     </g>
     <g id="text_8">
      <!-- $\mathdefault{2\times10^{-3}}$ -->
      <g style="fill: #64748b" transform="translate(21.200781 277.418568) scale(0.1 -0.1)">
       <defs>
        <path id="DejaVuSans-99" d="M 4488 3438 
L 3059 2003 
L 4488 575 
L 4116 197 
L 2681 1631 
L 1247 197 
L 878 575 
L 2303 2003 
L 878 3438 
L 1247 3816 
L 2681 2381 
L 4116 3816 
L 4488 3438 
z
" transform="scale(0.015625)"/>
       </defs>
       <use xlink:href="#DejaVuSans-15" transform="translate(0 0.746875)"/>
       <use xlink:href="#DejaVuSans-99" transform="translate(83.105469 0.746875)"/>
       <use xlink:href="#DejaVuSans-14" transform="translate(186.376953 0.746875)"/>
       <use xlink:href="#DejaVuSans-13" transform="translate(250 0.746875)"/>
       <use xlink:href="#DejaVuSans-c9c" transform="translate(314.580078 42.046875) scale(0.7)"/>
       <use xlink:href="#DejaVuSans-16" transform="translate(373.232422 42.046875) scale(0.7)"/>
      </g>
     </g>
    </g>
    <g id="ytick_3">
     <g id="line2d_14">
      <g>
       <use xlink:href="#ma48ff1b423" x="68.700781" y="242.793756" style="fill: #64748b; stroke: #64748b; stroke-width: 0.6"/>
      </g>
     </g>
     <g id="text_9">
      <!-- $\mathdefault{3\times10^{-3}}$ -->
      <g style="fill: #64748b" transform="translate(21.200781 247.493756) scale(0.1 -0.1)">
       <use xlink:href="#DejaVuSans-16" transform="translate(0 0.746875)"/>
       <use xlink:href="#DejaVuSans-99" transform="translate(83.105469 0.746875)"/>
       <use xlink:href="#DejaVuSans-14" transform="translate(186.376953 0.746875)"/>
       <use xlink:href="#DejaVuSans-13" transform="translate(250 0.746875)"/>
       <use xlink:href="#DejaVuSans-c9c" transform="translate(314.580078 42.046875) scale(0.7)"/>
       <use xlink:href="#DejaVuSans-16" transform="translate(373.232422 42.046875) scale(0.7)"/>
      </g>
     </g>
    </g>
    <g id="ytick_4">
     <g id="line2d_15">
      <g>
       <use xlink:href="#ma48ff1b423" x="68.700781" y="221.561764" style="fill: #64748b; stroke: #64748b; stroke-width: 0.6"/>
      </g>
     </g>
     <g id="text_10">
      <!-- $\mathdefault{4\times10^{-3}}$ -->
      <g style="fill: #64748b" transform="translate(21.200781 226.261764) scale(0.1 -0.1)">
       <use xlink:href="#DejaVuSans-17" transform="translate(0 0.746875)"/>
       <use xlink:href="#DejaVuSans-99" transform="translate(83.105469 0.746875)"/>
       <use xlink:href="#DejaVuSans-14" transform="translate(186.376953 0.746875)"/>
       <use xlink:href="#DejaVuSans-13" transform="translate(250 0.746875)"/>
       <use xlink:href="#DejaVuSans-c9c" transform="translate(314.580078 42.046875) scale(0.7)"/>
       <use xlink:href="#DejaVuSans-16" transform="translate(373.232422 42.046875) scale(0.7)"/>
      </g>
     </g>
    </g>
    <g id="ytick_5">
     <g id="line2d_16">
      <g>
       <use xlink:href="#ma48ff1b423" x="68.700781" y="205.092952" style="fill: #64748b; stroke: #64748b; stroke-width: 0.6"/>
      </g>
     </g>
    </g>
    <g id="ytick_6">
     <g id="line2d_17">
      <g>
       <use xlink:href="#ma48ff1b423" x="68.700781" y="191.636953" style="fill: #64748b; stroke: #64748b; stroke-width: 0.6"/>
      </g>
     </g>
     <g id="text_11">
      <!-- $\mathdefault{6\times10^{-3}}$ -->
      <g style="fill: #64748b" transform="translate(21.200781 196.336953) scale(0.1 -0.1)">
       <defs>
        <path id="DejaVuSans-19" d="M 2113 2584 
Q 1688 2584 1439 2293 
Q 1191 2003 1191 1497 
Q 1191 994 1439 701 
Q 1688 409 2113 409 
Q 2538 409 2786 701 
Q 3034 994 3034 1497 
Q 3034 2003 2786 2293 
Q 2538 2584 2113 2584 
z
M 3366 4563 
L 3366 3988 
Q 3128 4100 2886 4159 
Q 2644 4219 2406 4219 
Q 1781 4219 1451 3797 
Q 1122 3375 1075 2522 
Q 1259 2794 1537 2939 
Q 1816 3084 2150 3084 
Q 2853 3084 3261 2657 
Q 3669 2231 3669 1497 
Q 3669 778 3244 343 
Q 2819 -91 2113 -91 
Q 1303 -91 875 529 
Q 447 1150 447 2328 
Q 447 3434 972 4092 
Q 1497 4750 2381 4750 
Q 2619 4750 2861 4703 
Q 3103 4656 3366 4563 
z
" transform="scale(0.015625)"/>
       </defs>
       <use xlink:href="#DejaVuSans-19" transform="translate(0 0.746875)"/>
       <use xlink:href="#DejaVuSans-99" transform="translate(83.105469 0.746875)"/>
       <use xlink:href="#DejaVuSans-14" transform="translate(186.376953 0.746875)"/>
       <use xlink:href="#DejaVuSans-13" transform="translate(250 0.746875)"/>
       <use xlink:href="#DejaVuSans-c9c" transform="translate(314.580078 42.046875) scale(0.7)"/>
       <use xlink:href="#DejaVuSans-16" transform="translate(373.232422 42.046875) scale(0.7)"/>
      </g>
     </g>
    </g>
    <g id="ytick_7">
     <g id="line2d_18">
      <g>
       <use xlink:href="#ma48ff1b423" x="68.700781" y="180.260067" style="fill: #64748b; stroke: #64748b; stroke-width: 0.6"/>
      </g>
     </g>
    </g>
    <g id="ytick_8">
     <g id="line2d_19">
      <g>
       <use xlink:href="#ma48ff1b423" x="68.700781" y="170.404961" style="fill: #64748b; stroke: #64748b; stroke-width: 0.6"/>
      </g>
     </g>
    </g>
    <g id="ytick_9">
     <g id="line2d_20">
      <g>
       <use xlink:href="#ma48ff1b423" x="68.700781" y="161.712141" style="fill: #64748b; stroke: #64748b; stroke-width: 0.6"/>
      </g>
     </g>
    </g>
    <g id="ytick_10">
     <g id="line2d_21">
      <g>
       <use xlink:href="#ma48ff1b423" x="68.700781" y="102.779345" style="fill: #64748b; stroke: #64748b; stroke-width: 0.6"/>
      </g>
     </g>
     <g id="text_12">
      <!-- $\mathdefault{2\times10^{-2}}$ -->
      <g style="fill: #64748b" transform="translate(21.200781 107.479345) scale(0.1 -0.1)">
       <use xlink:href="#DejaVuSans-15" transform="translate(0 0.746875)"/>
       <use xlink:href="#DejaVuSans-99" transform="translate(83.105469 0.746875)"/>
       <use xlink:href="#DejaVuSans-14" transform="translate(186.376953 0.746875)"/>
       <use xlink:href="#DejaVuSans-13" transform="translate(250 0.746875)"/>
       <use xlink:href="#DejaVuSans-c9c" transform="translate(314.580078 42.046875) scale(0.7)"/>
       <use xlink:href="#DejaVuSans-15" transform="translate(373.232422 42.046875) scale(0.7)"/>
      </g>
     </g>
    </g>
    <g id="ytick_11">
     <g id="line2d_22">
      <g>
       <use xlink:href="#ma48ff1b423" x="68.700781" y="72.854533" style="fill: #64748b; stroke: #64748b; stroke-width: 0.6"/>
      </g>
     </g>
     <g id="text_13">
      <!-- $\mathdefault{3\times10^{-2}}$ -->
      <g style="fill: #64748b" transform="translate(21.200781 77.554533) scale(0.1 -0.1)">
       <use xlink:href="#DejaVuSans-16" transform="translate(0 0.746875)"/>
       <use xlink:href="#DejaVuSans-99" transform="translate(83.105469 0.746875)"/>
       <use xlink:href="#DejaVuSans-14" transform="translate(186.376953 0.746875)"/>
       <use xlink:href="#DejaVuSans-13" transform="translate(250 0.746875)"/>
       <use xlink:href="#DejaVuSans-c9c" transform="translate(314.580078 42.046875) scale(0.7)"/>
       <use xlink:href="#DejaVuSans-15" transform="translate(373.232422 42.046875) scale(0.7)"/>
      </g>
     </g>
    </g>
    <g id="ytick_12">
     <g id="line2d_23">
      <g>
       <use xlink:href="#ma48ff1b423" x="68.700781" y="51.622542" style="fill: #64748b; stroke: #64748b; stroke-width: 0.6"/>
      </g>
     </g>
     <g id="text_14">
      <!-- $\mathdefault{4\times10^{-2}}$ -->
      <g style="fill: #64748b" transform="translate(21.200781 56.322542) scale(0.1 -0.1)">
       <use xlink:href="#DejaVuSans-17" transform="translate(0 0.746875)"/>
       <use xlink:href="#DejaVuSans-99" transform="translate(83.105469 0.746875)"/>
       <use xlink:href="#DejaVuSans-14" transform="translate(186.376953 0.746875)"/>
       <use xlink:href="#DejaVuSans-13" transform="translate(250 0.746875)"/>
       <use xlink:href="#DejaVuSans-c9c" transform="translate(314.580078 42.046875) scale(0.7)"/>
       <use xlink:href="#DejaVuSans-15" transform="translate(373.232422 42.046875) scale(0.7)"/>
      </g>
     </g>
    </g>
    <g id="ytick_13">
     <g id="line2d_24">
      <g>
       <use xlink:href="#ma48ff1b423" x="68.700781" y="35.153729" style="fill: #64748b; stroke: #64748b; stroke-width: 0.6"/>
      </g>
     </g>
    </g>
    <g id="text_15">
     <!-- MSE loss -->
     <g style="fill: #334155" transform="translate(14.798438 185.873041) rotate(-90) scale(0.1 -0.1)">
      <defs>
       <path id="DejaVuSans-30" d="M 628 4666 
L 1569 4666 
L 2759 1491 
L 3956 4666 
L 4897 4666 
L 4897 0 
L 4281 0 
L 4281 4097 
L 3078 897 
L 2444 897 
L 1241 4097 
L 1241 0 
L 628 0 
L 628 4666 
z
" transform="scale(0.015625)"/>
       <path id="DejaVuSans-36" d="M 3425 4513 
L 3425 3897 
Q 3066 4069 2747 4153 
Q 2428 4238 2131 4238 
Q 1616 4238 1336 4038 
Q 1056 3838 1056 3469 
Q 1056 3159 1242 3001 
Q 1428 2844 1947 2747 
L 2328 2669 
Q 3034 2534 3370 2195 
Q 3706 1856 3706 1288 
Q 3706 609 3251 259 
Q 2797 -91 1919 -91 
Q 1588 -91 1214 -16 
Q 841 59 441 206 
L 441 856 
Q 825 641 1194 531 
Q 1563 422 1919 422 
Q 2459 422 2753 634 
Q 3047 847 3047 1241 
Q 3047 1584 2836 1778 
Q 2625 1972 2144 2069 
L 1759 2144 
Q 1053 2284 737 2584 
Q 422 2884 422 3419 
Q 422 4038 858 4394 
Q 1294 4750 2059 4750 
Q 2388 4750 2728 4690 
Q 3069 4631 3425 4513 
z
" transform="scale(0.015625)"/>
       <path id="DejaVuSans-3" transform="scale(0.015625)"/>
       <path id="DejaVuSans-4f" d="M 603 4863 
L 1178 4863 
L 1178 0 
L 603 0 
L 603 4863 
z
" transform="scale(0.015625)"/>
       <path id="DejaVuSans-56" d="M 2834 3397 
L 2834 2853 
Q 2591 2978 2328 3040 
Q 2066 3103 1784 3103 
Q 1356 3103 1142 2972 
Q 928 2841 928 2578 
Q 928 2378 1081 2264 
Q 1234 2150 1697 2047 
L 1894 2003 
Q 2506 1872 2764 1633 
Q 3022 1394 3022 966 
Q 3022 478 2636 193 
Q 2250 -91 1575 -91 
Q 1294 -91 989 -36 
Q 684 19 347 128 
L 347 722 
Q 666 556 975 473 
Q 1284 391 1588 391 
Q 1994 391 2212 530 
Q 2431 669 2431 922 
Q 2431 1156 2273 1281 
Q 2116 1406 1581 1522 
L 1381 1569 
Q 847 1681 609 1914 
Q 372 2147 372 2553 
Q 372 3047 722 3315 
Q 1072 3584 1716 3584 
Q 2034 3584 2315 3537 
Q 2597 3491 2834 3397 
z
" transform="scale(0.015625)"/>
      </defs>
      <use xlink:href="#DejaVuSans-30"/>
      <use xlink:href="#DejaVuSans-36" transform="translate(86.28125 0)"/>
      <use xlink:href="#DejaVuSans-28" transform="translate(149.765625 0)"/>
      <use xlink:href="#DejaVuSans-3" transform="translate(212.953125 0)"/>
      <use xlink:href="#DejaVuSans-4f" transform="translate(244.734375 0)"/>
      <use xlink:href="#DejaVuSans-52" transform="translate(272.515625 0)"/>
      <use xlink:href="#DejaVuSans-56" transform="translate(333.703125 0)"/>
      <use xlink:href="#DejaVuSans-56" transform="translate(385.796875 0)"/>
     </g>
    </g>
   </g>
   <g id="line2d_25">
    <path d="M 92.468906 38.141938 
L 93.625505 42.38719 
L 94.782105 52.904698 
L 95.938705 67.172004 
L 97.095305 76.795531 
L 98.251904 87.447511 
L 99.408504 92.116164 
L 100.565104 98.876513 
L 101.721704 109.925218 
L 102.878303 114.667856 
L 104.034903 118.602063 
L 105.191503 123.451945 
L 106.348103 127.656214 
L 107.504702 132.588194 
L 109.817902 127.748568 
L 110.974501 144.149572 
L 112.131101 134.582596 
L 113.287701 137.810868 
L 114.444301 138.085258 
L 115.6009 137.467445 
L 116.7575 137.86777 
L 117.9141 140.03244 
L 119.0707 153.210315 
L 120.227299 146.775263 
L 121.383899 155.426824 
L 122.540499 155.655243 
L 123.697098 156.67602 
L 124.853698 167.836507 
L 126.010298 162.08983 
L 127.166898 172.338295 
L 128.323497 171.244232 
L 129.480097 161.36593 
L 130.636697 172.948836 
L 131.793297 165.517405 
L 132.949896 169.623341 
L 134.106496 174.873331 
L 135.263096 176.491482 
L 136.419696 173.355967 
L 137.576295 175.815076 
L 138.732895 177.527764 
L 139.889495 179.442034 
L 141.046094 170.193471 
L 142.202694 174.784664 
L 143.359294 178.509225 
L 144.515894 180.08635 
L 145.672493 182.049724 
L 146.829093 178.584931 
L 147.985693 177.381067 
L 149.142293 181.039066 
L 150.298892 173.309401 
L 151.455492 177.479932 
L 152.612092 185.265331 
L 153.768692 181.608418 
L 154.925291 174.772001 
L 156.081891 179.218054 
L 157.238491 182.897676 
L 158.39509 188.768376 
L 159.55169 182.65762 
L 160.70829 182.269451 
L 161.86489 191.474184 
L 163.021489 189.26328 
L 164.178089 193.695461 
L 165.334689 192.170738 
L 166.491289 188.892169 
L 167.647888 194.571054 
L 168.804488 191.130683 
L 169.961088 199.209996 
L 171.117688 192.269965 
L 172.274287 188.333835 
L 173.430887 186.28071 
L 174.587487 195.485601 
L 175.744086 191.900638 
L 176.900686 197.194166 
L 178.057286 193.033892 
L 179.213886 194.208723 
L 180.370485 196.193663 
L 181.527085 194.425113 
L 182.683685 194.456914 
L 183.840285 182.477139 
L 184.996884 190.311351 
L 186.153484 191.233921 
L 187.310084 195.682868 
L 188.466683 190.179085 
L 189.623283 203.007234 
L 190.779883 196.694142 
L 191.936483 198.906194 
L 193.093082 189.433658 
L 194.249682 195.231724 
L 195.406282 195.914743 
L 196.562882 192.910418 
L 197.719481 198.815275 
L 198.876081 194.626636 
L 200.032681 201.011325 
L 201.189281 202.268906 
L 202.34588 205.739918 
L 203.50248 198.673362 
L 204.65908 196.471281 
L 205.815679 197.258874 
L 206.972279 197.119026 
L 208.128879 201.106321 
L 209.285479 199.501461 
L 210.442078 200.587793 
L 211.598678 205.73053 
L 212.755278 196.010446 
L 213.911878 204.176335 
L 215.068477 196.317907 
L 216.225077 205.020453 
L 217.381677 197.466493 
L 218.538277 200.673453 
L 219.694876 202.309946 
L 220.851476 198.874553 
L 222.008076 202.319988 
L 223.164675 203.467692 
L 224.321275 201.257641 
L 225.477875 198.247675 
L 226.634475 201.795313 
L 227.791074 195.459307 
L 228.947674 202.421762 
L 230.104274 201.717488 
L 231.260874 198.651986 
L 232.417473 200.721661 
L 233.574073 203.74196 
L 234.730673 208.569004 
L 235.887272 206.558249 
L 237.043872 206.533125 
L 238.200472 205.47051 
L 239.357072 206.192206 
L 240.513671 205.638958 
L 241.670271 206.756958 
L 242.826871 205.137267 
L 243.983471 206.378201 
L 245.14007 209.946394 
L 246.29667 199.871715 
L 247.45327 205.886586 
L 248.60987 205.056465 
L 249.766469 202.604709 
L 250.923069 207.526009 
L 252.079669 206.889351 
L 253.236268 197.323324 
L 254.392868 203.479621 
L 255.549468 206.497283 
L 256.706068 208.743845 
L 257.862667 211.502972 
L 259.019267 205.699919 
L 261.332467 200.981824 
L 262.489066 207.975945 
L 263.645666 203.240616 
L 264.802266 210.328134 
L 265.958866 205.022527 
L 267.115465 210.141245 
L 268.272065 206.098235 
L 269.428665 206.410584 
L 270.585264 202.279677 
L 271.741864 206.556952 
L 272.898464 208.280182 
L 274.055064 211.113862 
L 275.211663 206.327957 
L 276.368263 202.861463 
L 277.524863 212.362652 
L 278.681463 206.193706 
L 279.838062 208.305873 
L 280.994662 206.112416 
L 282.151262 213.326473 
L 283.307861 211.194173 
L 284.464461 204.047077 
L 285.621061 212.566204 
L 286.777661 211.918282 
L 287.93426 209.274302 
L 289.09086 213.533983 
L 290.24746 208.3195 
L 291.40406 206.011781 
L 292.560659 208.387791 
L 293.717259 215.066786 
L 294.873859 211.074063 
L 296.030459 214.243407 
L 297.187058 212.62493 
L 298.343658 215.177636 
L 299.500258 206.357242 
L 300.656857 207.593051 
L 301.813457 212.904783 
L 302.970057 206.940767 
L 304.126657 208.513576 
L 306.439856 208.879123 
L 307.596456 210.602722 
L 308.753056 213.322401 
L 309.909655 213.554446 
L 311.066255 214.798125 
L 313.379455 209.850608 
L 314.536054 208.220904 
L 315.692654 213.038299 
L 316.849254 211.787919 
L 318.005853 208.469211 
L 320.319053 208.803329 
L 321.475653 208.949868 
L 322.632252 206.921783 
L 324.945452 205.572298 
L 326.102052 212.295957 
L 327.258651 208.00464 
L 328.415251 212.100087 
L 329.571851 213.98076 
L 330.72845 205.443205 
L 331.88505 210.313032 
L 334.19825 210.298352 
L 335.354849 216.877814 
L 336.511449 210.35595 
L 337.668049 215.316469 
L 338.824649 215.563324 
L 339.981248 211.20441 
L 341.137848 214.818306 
L 342.294448 215.255697 
L 343.451048 207.741835 
L 344.607647 217.684554 
L 345.764247 209.297539 
L 346.920847 221.551151 
L 348.077446 211.129883 
L 349.234046 215.873845 
L 350.390646 212.585639 
L 351.547246 214.444581 
L 353.860445 209.241633 
L 355.017045 213.744683 
L 356.173645 211.675053 
L 357.330244 214.063439 
L 358.486844 212.229777 
L 359.643444 213.891397 
L 360.800044 214.351172 
L 361.956643 205.496699 
L 363.113243 210.27875 
L 364.269843 213.682433 
L 365.426442 210.858377 
L 366.583042 213.022838 
L 367.739642 211.471761 
L 368.896242 214.275829 
L 370.052841 207.151868 
L 371.209441 212.111191 
L 372.366041 215.688164 
L 373.522641 218.254539 
L 374.67924 212.323213 
L 375.83584 217.013366 
L 376.99244 212.949748 
L 378.149039 220.59458 
L 379.305639 215.371682 
L 380.462239 222.254353 
L 381.618839 215.170805 
L 382.775438 214.461279 
L 383.932038 213.229203 
L 385.088638 215.418334 
L 386.245238 215.693385 
L 387.401837 218.148784 
L 388.558437 219.154767 
L 389.715037 214.352123 
L 390.871637 214.292723 
L 392.028236 216.861512 
L 393.184836 216.455929 
L 394.341436 213.819415 
L 395.498035 219.320728 
L 396.654635 210.865839 
L 397.811235 216.900226 
L 398.967835 214.719717 
L 400.124434 208.061341 
L 401.281034 213.368551 
L 402.437634 215.236491 
L 403.594234 211.842482 
L 404.750833 213.916336 
L 405.907433 217.768397 
L 407.064033 213.204855 
L 408.220633 218.657359 
L 409.377232 221.657055 
L 410.533832 211.977944 
L 411.690432 221.206886 
L 412.847031 217.193531 
L 414.003631 219.740859 
L 415.160231 215.325864 
L 416.316831 214.390268 
L 417.47343 219.859517 
L 418.63003 220.248999 
L 419.78663 215.000685 
L 420.94323 217.809183 
L 422.099829 222.356008 
L 423.256429 223.565793 
L 424.413029 217.46496 
L 425.569628 223.380586 
L 426.726228 217.824716 
L 427.882828 216.978048 
L 429.039428 215.938409 
L 430.196027 220.526975 
L 431.352627 220.207054 
L 432.509227 222.684713 
L 433.665827 222.587239 
L 434.822426 217.600699 
L 435.979026 217.256407 
L 437.135626 216.328951 
L 438.292226 220.794598 
L 439.448825 213.408269 
L 440.605425 223.279172 
L 441.762025 222.438308 
L 442.918624 224.346513 
L 444.075224 220.036952 
L 445.231824 218.271234 
L 446.388424 218.622005 
L 447.545023 215.641547 
L 448.701623 224.638455 
L 449.858223 220.166709 
L 451.014823 220.242028 
L 452.171422 216.972533 
L 453.328022 220.678835 
L 454.484622 221.285115 
L 455.641222 218.388382 
L 456.797821 218.627265 
L 457.954421 223.98275 
L 459.111021 221.975008 
L 460.26762 220.507974 
L 461.42422 215.260785 
L 462.58082 222.729243 
L 463.73742 219.734765 
L 464.894019 228.45072 
L 466.050619 217.40673 
L 467.207219 221.041514 
L 468.363819 217.403806 
L 469.520418 221.167008 
L 470.677018 217.949534 
L 471.833618 220.27169 
L 472.990218 213.132183 
L 474.146817 220.490612 
L 475.303417 225.578772 
L 476.460017 218.341336 
L 477.616616 214.665443 
L 478.773216 218.323498 
L 479.929816 230.273169 
L 481.086416 219.275792 
L 482.243015 216.256289 
L 484.556215 227.068251 
L 485.712815 222.859042 
L 486.869414 221.967509 
L 488.026014 218.025833 
L 489.182614 223.248566 
L 490.339213 219.186009 
L 491.495813 222.469163 
L 492.652413 217.66504 
L 493.809013 219.03771 
L 494.965612 227.308669 
L 496.122212 223.096901 
L 497.278812 223.482562 
L 498.435412 221.767669 
L 499.592011 220.587152 
L 500.748611 217.781073 
L 501.905211 225.702279 
L 503.061811 225.48784 
L 504.21841 219.046005 
L 505.37501 224.094831 
L 506.53161 223.134746 
L 507.688209 232.830983 
L 508.844809 224.801256 
L 510.001409 219.948004 
L 511.158009 225.687894 
L 512.314608 223.249058 
L 513.471208 222.513545 
L 514.627808 233.632733 
L 515.784408 218.979678 
L 516.941007 227.601299 
L 519.254207 228.396102 
L 520.410807 225.340998 
L 521.567406 220.282963 
L 522.724006 228.769882 
L 523.880606 228.779242 
L 525.037205 221.121275 
L 526.193805 230.966646 
L 528.507005 226.262936 
L 529.663604 224.5378 
L 530.820204 229.671715 
L 531.976804 226.731061 
L 533.133404 228.827285 
L 534.290003 230.229147 
L 535.446603 226.310462 
L 536.603203 228.172853 
L 537.759802 223.614219 
L 538.916402 226.913172 
L 540.073002 228.05433 
L 541.229602 222.813088 
L 542.386201 228.469549 
L 543.542801 228.000286 
L 544.699401 223.928873 
L 545.856001 223.690679 
L 547.0126 219.391843 
L 548.1692 223.745935 
L 549.3258 222.257657 
L 550.4824 223.96247 
L 551.638999 222.099167 
L 552.795599 228.723458 
L 553.952199 226.224738 
L 555.108798 221.89135 
L 556.265398 224.009456 
L 557.421998 229.119028 
L 558.578598 223.349022 
L 559.735197 222.201294 
L 560.891797 228.952798 
L 562.048397 223.531948 
L 563.204997 228.639128 
L 564.361596 228.659931 
L 565.518196 220.45569 
L 566.674796 230.431783 
L 567.831396 226.716876 
L 567.831396 226.716876 
" clip-path="url(#pfef6c6fc92)" style="fill: none; stroke: #2563eb; stroke-width: 1.7; stroke-linecap: square"/>
   </g>
   <g id="line2d_26">
    <path d="M 92.468906 67.69018 
L 94.782105 94.533213 
L 99.408504 152.92569 
L 101.721704 181.43118 
L 104.034903 206.189897 
L 105.191503 216.983345 
L 106.348103 225.523994 
L 107.504702 231.440552 
L 108.661302 235.223025 
L 110.974501 239.733618 
L 112.131101 241.802863 
L 113.287701 244.227661 
L 114.444301 247.077501 
L 117.9141 256.491937 
L 119.0707 258.884326 
L 120.227299 260.640468 
L 121.383899 261.642059 
L 122.540499 262.24005 
L 123.697098 261.880569 
L 124.853698 261.066503 
L 126.010298 259.686659 
L 131.793297 250.677925 
L 132.949896 249.098172 
L 134.106496 247.803961 
L 135.263096 246.806146 
L 136.419696 246.172725 
L 137.576295 245.778101 
L 138.732895 245.732494 
L 139.889495 245.923785 
L 141.046094 246.30395 
L 142.202694 246.896025 
L 143.359294 247.795097 
L 145.672493 250.179557 
L 149.142293 254.567849 
L 152.612092 259.043361 
L 154.925291 261.445052 
L 158.39509 264.592319 
L 161.86489 267.282283 
L 163.021489 267.963306 
L 164.178089 268.442816 
L 166.491289 269.001983 
L 168.804488 269.251357 
L 169.961088 269.29207 
L 172.274287 269.117342 
L 180.370485 269.282178 
L 182.683685 269.424636 
L 186.153484 269.407448 
L 190.779883 269.913535 
L 193.093082 270.412865 
L 195.406282 270.711396 
L 197.719481 270.881981 
L 198.876081 271.055321 
L 204.65908 272.556691 
L 206.972279 273.341719 
L 209.285479 274.327702 
L 212.755278 275.637764 
L 215.068477 276.273363 
L 217.381677 276.6753 
L 219.694876 276.938583 
L 224.321275 276.997508 
L 225.477875 276.93433 
L 227.791074 276.994636 
L 231.260874 276.762035 
L 232.417473 276.729452 
L 241.670271 277.260758 
L 243.983471 277.382114 
L 247.45327 277.646384 
L 255.549468 278.449054 
L 260.175867 279.319884 
L 263.645666 279.776605 
L 270.585264 280.003555 
L 274.055064 279.665003 
L 277.524863 279.436804 
L 280.994662 279.448394 
L 284.464461 279.187115 
L 287.93426 279.291331 
L 299.500258 280.436761 
L 300.656857 280.39911 
L 302.970057 280.056267 
L 304.126657 279.769874 
L 311.066255 278.919832 
L 313.379455 278.795783 
L 315.692654 278.90987 
L 319.162453 279.378288 
L 320.319053 279.57175 
L 322.632252 279.626202 
L 326.102052 279.346851 
L 327.258651 279.239988 
L 339.981248 279.540767 
L 346.920847 280.629013 
L 349.234046 280.794018 
L 356.173645 281.237013 
L 361.956643 282.008059 
L 364.269843 281.936108 
L 370.052841 280.94761 
L 371.209441 280.803676 
L 375.83584 280.881229 
L 376.99244 281.04324 
L 380.462239 282.004936 
L 387.401837 284.335887 
L 389.715037 284.936291 
L 392.028236 285.10853 
L 395.498035 284.781913 
L 398.967835 284.331688 
L 402.437634 283.769323 
L 408.220633 283.359972 
L 414.003631 283.453634 
L 416.316831 283.842031 
L 419.78663 284.811766 
L 420.94323 285.038788 
L 423.256429 285.277929 
L 427.882828 285.878955 
L 429.039428 285.777439 
L 431.352627 285.93485 
L 432.509227 285.848314 
L 437.135626 284.608732 
L 439.448825 283.928985 
L 440.605425 283.776589 
L 442.918624 283.74355 
L 449.858223 284.614234 
L 452.171422 285.415391 
L 456.797821 286.381494 
L 457.954421 286.429219 
L 459.111021 286.591699 
L 460.26762 286.871796 
L 461.42422 287.018029 
L 462.58082 286.971276 
L 464.894019 286.725764 
L 469.520418 287.158941 
L 470.677018 287.108538 
L 475.303417 286.219646 
L 477.616616 285.470956 
L 479.929816 285.293815 
L 482.243015 285.524755 
L 483.399615 285.552481 
L 486.869414 285.92984 
L 488.026014 285.945816 
L 490.339213 286.398436 
L 492.652413 287.140951 
L 494.965612 287.709283 
L 496.122212 287.774874 
L 501.905211 287.40111 
L 504.21841 287.691589 
L 506.53161 288.221574 
L 508.844809 289.078871 
L 510.001409 289.396267 
L 512.314608 289.588568 
L 513.471208 289.657229 
L 514.627808 289.543957 
L 515.784408 289.133547 
L 519.254207 288.334113 
L 521.567406 287.560614 
L 522.724006 287.48635 
L 523.880606 287.567553 
L 525.037205 287.86465 
L 527.350405 288.114055 
L 530.820204 288.885406 
L 531.976804 289.223079 
L 534.290003 289.617378 
L 537.759802 289.731525 
L 538.916402 289.676957 
L 541.229602 289.227969 
L 542.386201 288.99194 
L 544.699401 288.14615 
L 549.3258 287.564911 
L 555.108798 288.336894 
L 557.421998 289.394334 
L 559.735197 289.753762 
L 562.048397 289.807814 
L 566.674796 289.197876 
L 567.831396 289.073086 
L 567.831396 289.073086 
" clip-path="url(#pfef6c6fc92)" style="fill: none; stroke: #16a34a; stroke-width: 1.7; stroke-linecap: square"/>
   </g>
   <g id="line2d_27">
    <path d="M 510.001409 302.398739 
L 510.001409 25.558281 
" clip-path="url(#pfef6c6fc92)" style="fill: none; stroke-dasharray: 6,4.5; stroke-dashoffset: 0; stroke: #f97316; stroke-width: 1.5"/>
   </g>
   <g id="patch_3">
    <path d="M 68.700781 302.398739 
L 68.700781 25.558281 
" style="fill: none; stroke: #94a3b8; stroke-width: 0.8; stroke-linejoin: miter; stroke-linecap: square"/>
   </g>
   <g id="patch_4">
    <path d="M 68.700781 302.398739 
L 591.59952 302.398739 
" style="fill: none; stroke: #94a3b8; stroke-width: 0.8; stroke-linejoin: miter; stroke-linecap: square"/>
   </g>
   <g id="patch_5">
    <path d="M 514.852931 287.088316 
Q 513.330908 287.812368 511.808885 288.53642 
" style="fill: none; stroke: #f97316; stroke-width: 0.8; stroke-linecap: round"/>
   </g>
   <g id="text_16">
    <g id="patch_6">
     <path d="M 518.001409 286.118923 
L 564.557659 286.118923 
Q 566.557659 286.118923 566.557659 284.118923 
L 566.557659 264.914548 
Q 566.557659 262.914548 564.557659 262.914548 
L 518.001409 262.914548 
Q 516.001409 262.914548 516.001409 264.914548 
L 516.001409 284.118923 
Q 516.001409 286.118923 518.001409 286.118923 
z
" style="fill: #ffffff; opacity: 0.92; stroke: #cbd5e1; stroke-linejoin: miter"/>
    </g>
    <!-- epoch=362 -->
    <g style="fill: #f97316" transform="translate(518.001409 271.794079) scale(0.08 -0.08)">
     <defs>
      <path id="DejaVuSans-48" d="M 3597 1894 
L 3597 1613 
L 953 1613 
Q 991 1019 1311 708 
Q 1631 397 2203 397 
Q 2534 397 2845 478 
Q 3156 559 3463 722 
L 3463 178 
Q 3153 47 2828 -22 
Q 2503 -91 2169 -91 
Q 1331 -91 842 396 
Q 353 884 353 1716 
Q 353 2575 817 3079 
Q 1281 3584 2069 3584 
Q 2775 3584 3186 3129 
Q 3597 2675 3597 1894 
z
M 3022 2063 
Q 3016 2534 2758 2815 
Q 2500 3097 2075 3097 
Q 1594 3097 1305 2825 
Q 1016 2553 972 2059 
L 3022 2063 
z
" transform="scale(0.015625)"/>
      <path id="DejaVuSans-20" d="M 678 2906 
L 4684 2906 
L 4684 2381 
L 678 2381 
L 678 2906 
z
M 678 1631 
L 4684 1631 
L 4684 1100 
L 678 1100 
L 678 1631 
z
" transform="scale(0.015625)"/>
     </defs>
     <use xlink:href="#DejaVuSans-48"/>
     <use xlink:href="#DejaVuSans-53" transform="translate(61.53125 0)"/>
     <use xlink:href="#DejaVuSans-52" transform="translate(125.015625 0)"/>
     <use xlink:href="#DejaVuSans-46" transform="translate(186.203125 0)"/>
     <use xlink:href="#DejaVuSans-4b" transform="translate(241.1875 0)"/>
     <use xlink:href="#DejaVuSans-20" transform="translate(304.5625 0)"/>
     <use xlink:href="#DejaVuSans-16" transform="translate(388.359375 0)"/>
     <use xlink:href="#DejaVuSans-19" transform="translate(451.984375 0)"/>
     <use xlink:href="#DejaVuSans-15" transform="translate(515.609375 0)"/>
    </g>
    <!-- val=0.0016 -->
    <g style="fill: #f97316" transform="translate(518.001409 281.396267) scale(0.08 -0.08)">
     <defs>
      <path id="DejaVuSans-59" d="M 191 3500 
L 800 3500 
L 1894 563 
L 2988 3500 
L 3597 3500 
L 2284 0 
L 1503 0 
L 191 3500 
z
" transform="scale(0.015625)"/>
      <path id="DejaVuSans-44" d="M 2194 1759 
Q 1497 1759 1228 1600 
Q 959 1441 959 1056 
Q 959 750 1161 570 
Q 1363 391 1709 391 
Q 2188 391 2477 730 
Q 2766 1069 2766 1631 
L 2766 1759 
L 2194 1759 
z
M 3341 1997 
L 3341 0 
L 2766 0 
L 2766 531 
Q 2569 213 2275 61 
Q 1981 -91 1556 -91 
Q 1019 -91 701 211 
Q 384 513 384 1019 
Q 384 1609 779 1909 
Q 1175 2209 1959 2209 
L 2766 2209 
L 2766 2266 
Q 2766 2663 2505 2880 
Q 2244 3097 1772 3097 
Q 1472 3097 1187 3025 
Q 903 2953 641 2809 
L 641 3341 
Q 956 3463 1253 3523 
Q 1550 3584 1831 3584 
Q 2591 3584 2966 3190 
Q 3341 2797 3341 1997 
z
" transform="scale(0.015625)"/>
      <path id="DejaVuSans-11" d="M 684 794 
L 1344 794 
L 1344 0 
L 684 0 
L 684 794 
z
" transform="scale(0.015625)"/>
     </defs>
     <use xlink:href="#DejaVuSans-59"/>
     <use xlink:href="#DejaVuSans-44" transform="translate(59.1875 0)"/>
     <use xlink:href="#DejaVuSans-4f" transform="translate(120.46875 0)"/>
     <use xlink:href="#DejaVuSans-20" transform="translate(148.25 0)"/>
     <use xlink:href="#DejaVuSans-13" transform="translate(232.046875 0)"/>
     <use xlink:href="#DejaVuSans-11" transform="translate(295.671875 0)"/>
     <use xlink:href="#DejaVuSans-13" transform="translate(327.453125 0)"/>
     <use xlink:href="#DejaVuSans-13" transform="translate(391.078125 0)"/>
     <use xlink:href="#DejaVuSans-14" transform="translate(454.703125 0)"/>
     <use xlink:href="#DejaVuSans-19" transform="translate(518.328125 0)"/>
    </g>
   </g>
   <g id="text_17">
    <!-- Training curve -->
    <g style="fill: #0f172a" transform="translate(285.921557 15.558281) scale(0.11 -0.11)">
     <defs>
      <path id="DejaVuSans-Bold-37" d="M 31 4666 
L 4331 4666 
L 4331 3756 
L 2784 3756 
L 2784 0 
L 1581 0 
L 1581 3756 
L 31 3756 
L 31 4666 
z
" transform="scale(0.015625)"/>
      <path id="DejaVuSans-Bold-55" d="M 3138 2547 
Q 2991 2616 2845 2648 
Q 2700 2681 2553 2681 
Q 2122 2681 1889 2404 
Q 1656 2128 1656 1613 
L 1656 0 
L 538 0 
L 538 3500 
L 1656 3500 
L 1656 2925 
Q 1872 3269 2151 3426 
Q 2431 3584 2822 3584 
Q 2878 3584 2943 3579 
Q 3009 3575 3134 3559 
L 3138 2547 
z
" transform="scale(0.015625)"/>
      <path id="DejaVuSans-Bold-44" d="M 2106 1575 
Q 1756 1575 1579 1456 
Q 1403 1338 1403 1106 
Q 1403 894 1545 773 
Q 1688 653 1941 653 
Q 2256 653 2472 879 
Q 2688 1106 2688 1447 
L 2688 1575 
L 2106 1575 
z
M 3816 1997 
L 3816 0 
L 2688 0 
L 2688 519 
Q 2463 200 2181 54 
Q 1900 -91 1497 -91 
Q 953 -91 614 226 
Q 275 544 275 1050 
Q 275 1666 698 1953 
Q 1122 2241 2028 2241 
L 2688 2241 
L 2688 2328 
Q 2688 2594 2478 2717 
Q 2269 2841 1825 2841 
Q 1466 2841 1156 2769 
Q 847 2697 581 2553 
L 581 3406 
Q 941 3494 1303 3539 
Q 1666 3584 2028 3584 
Q 2975 3584 3395 3211 
Q 3816 2838 3816 1997 
z
" transform="scale(0.015625)"/>
      <path id="DejaVuSans-Bold-4c" d="M 538 3500 
L 1656 3500 
L 1656 0 
L 538 0 
L 538 3500 
z
M 538 4863 
L 1656 4863 
L 1656 3950 
L 538 3950 
L 538 4863 
z
" transform="scale(0.015625)"/>
      <path id="DejaVuSans-Bold-51" d="M 4056 2131 
L 4056 0 
L 2931 0 
L 2931 347 
L 2931 1631 
Q 2931 2084 2911 2256 
Q 2891 2428 2841 2509 
Q 2775 2619 2662 2680 
Q 2550 2741 2406 2741 
Q 2056 2741 1856 2470 
Q 1656 2200 1656 1722 
L 1656 0 
L 538 0 
L 538 3500 
L 1656 3500 
L 1656 2988 
Q 1909 3294 2193 3439 
Q 2478 3584 2822 3584 
Q 3428 3584 3742 3212 
Q 4056 2841 4056 2131 
z
" transform="scale(0.015625)"/>
      <path id="DejaVuSans-Bold-4a" d="M 2919 594 
Q 2688 288 2409 144 
Q 2131 0 1766 0 
Q 1125 0 706 504 
Q 288 1009 288 1791 
Q 288 2575 706 3076 
Q 1125 3578 1766 3578 
Q 2131 3578 2409 3434 
Q 2688 3291 2919 2981 
L 2919 3500 
L 4044 3500 
L 4044 353 
Q 4044 -491 3511 -936 
Q 2978 -1381 1966 -1381 
Q 1638 -1381 1331 -1331 
Q 1025 -1281 716 -1178 
L 716 -306 
Q 1009 -475 1290 -558 
Q 1572 -641 1856 -641 
Q 2406 -641 2662 -400 
Q 2919 -159 2919 353 
L 2919 594 
z
M 2181 2772 
Q 1834 2772 1640 2515 
Q 1447 2259 1447 1791 
Q 1447 1309 1634 1061 
Q 1822 813 2181 813 
Q 2531 813 2725 1069 
Q 2919 1325 2919 1791 
Q 2919 2259 2725 2515 
Q 2531 2772 2181 2772 
z
" transform="scale(0.015625)"/>
      <path id="DejaVuSans-Bold-3" transform="scale(0.015625)"/>
      <path id="DejaVuSans-Bold-46" d="M 3366 3391 
L 3366 2478 
Q 3138 2634 2908 2709 
Q 2678 2784 2431 2784 
Q 1963 2784 1702 2511 
Q 1441 2238 1441 1747 
Q 1441 1256 1702 982 
Q 1963 709 2431 709 
Q 2694 709 2930 787 
Q 3166 866 3366 1019 
L 3366 103 
Q 3103 6 2833 -42 
Q 2563 -91 2291 -91 
Q 1344 -91 809 395 
Q 275 881 275 1747 
Q 275 2613 809 3098 
Q 1344 3584 2291 3584 
Q 2566 3584 2833 3536 
Q 3100 3488 3366 3391 
z
" transform="scale(0.015625)"/>
      <path id="DejaVuSans-Bold-58" d="M 500 1363 
L 500 3500 
L 1625 3500 
L 1625 3150 
Q 1625 2866 1622 2436 
Q 1619 2006 1619 1863 
Q 1619 1441 1641 1255 
Q 1663 1069 1716 984 
Q 1784 875 1895 815 
Q 2006 756 2150 756 
Q 2500 756 2700 1025 
Q 2900 1294 2900 1772 
L 2900 3500 
L 4019 3500 
L 4019 0 
L 2900 0 
L 2900 506 
Q 2647 200 2364 54 
Q 2081 -91 1741 -91 
Q 1134 -91 817 281 
Q 500 653 500 1363 
z
" transform="scale(0.015625)"/>
      <path id="DejaVuSans-Bold-59" d="M 97 3500 
L 1216 3500 
L 2088 1081 
L 2956 3500 
L 4078 3500 
L 2700 0 
L 1472 0 
L 97 3500 
z
" transform="scale(0.015625)"/>
      <path id="DejaVuSans-Bold-48" d="M 4031 1759 
L 4031 1441 
L 1416 1441 
Q 1456 1047 1700 850 
Q 1944 653 2381 653 
Q 2734 653 3104 758 
Q 3475 863 3866 1075 
L 3866 213 
Q 3469 63 3072 -14 
Q 2675 -91 2278 -91 
Q 1328 -91 801 392 
Q 275 875 275 1747 
Q 275 2603 792 3093 
Q 1309 3584 2216 3584 
Q 3041 3584 3536 3087 
Q 4031 2591 4031 1759 
z
M 2881 2131 
Q 2881 2450 2695 2645 
Q 2509 2841 2209 2841 
Q 1884 2841 1681 2658 
Q 1478 2475 1428 2131 
L 2881 2131 
z
" transform="scale(0.015625)"/>
     </defs>
     <use xlink:href="#DejaVuSans-Bold-37"/>
     <use xlink:href="#DejaVuSans-Bold-55" transform="translate(57.234375 0)"/>
     <use xlink:href="#DejaVuSans-Bold-44" transform="translate(106.546875 0)"/>
     <use xlink:href="#DejaVuSans-Bold-4c" transform="translate(174.03125 0)"/>
     <use xlink:href="#DejaVuSans-Bold-51" transform="translate(208.3125 0)"/>
     <use xlink:href="#DejaVuSans-Bold-4c" transform="translate(279.5 0)"/>
     <use xlink:href="#DejaVuSans-Bold-51" transform="translate(313.78125 0)"/>
     <use xlink:href="#DejaVuSans-Bold-4a" transform="translate(384.96875 0)"/>
     <use xlink:href="#DejaVuSans-Bold-3" transform="translate(456.546875 0)"/>
     <use xlink:href="#DejaVuSans-Bold-46" transform="translate(491.359375 0)"/>
     <use xlink:href="#DejaVuSans-Bold-58" transform="translate(550.640625 0)"/>
     <use xlink:href="#DejaVuSans-Bold-55" transform="translate(621.828125 0)"/>
     <use xlink:href="#DejaVuSans-Bold-59" transform="translate(671.140625 0)"/>
     <use xlink:href="#DejaVuSans-Bold-48" transform="translate(736.328125 0)"/>
    </g>
   </g>
   <g id="PathCollection_1">
    <defs>
     <path id="m4427cc76c7" d="M 0 3.807887 
C 1.009863 3.807887 1.978501 3.406664 2.692582 2.692582 
C 3.406664 1.978501 3.807887 1.009863 3.807887 0 
C 3.807887 -1.009863 3.406664 -1.978501 2.692582 -2.692582 
C 1.978501 -3.406664 1.009863 -3.807887 0 -3.807887 
C -1.009863 -3.807887 -1.978501 -3.406664 -2.692582 -2.692582 
C -3.406664 -1.978501 -3.807887 -1.009863 -3.807887 0 
C -3.807887 1.009863 -3.406664 1.978501 -2.692582 2.692582 
C -1.978501 3.406664 -1.009863 3.807887 0 3.807887 
z
" style="stroke: #f97316"/>
    </defs>
    <g clip-path="url(#pfef6c6fc92)">
     <use xlink:href="#m4427cc76c7" x="510.001409" y="289.396267" style="fill: #f97316; stroke: #f97316"/>
    </g>
   </g>
   <g id="legend_1">
    <g id="patch_7">
     <path d="M 275.429447 73.260391 
L 384.870854 73.260391 
Q 386.670854 73.260391 386.670854 71.460391 
L 386.670854 31.858281 
Q 386.670854 30.058281 384.870854 30.058281 
L 275.429447 30.058281 
Q 273.629447 30.058281 273.629447 31.858281 
L 273.629447 71.460391 
Q 273.629447 73.260391 275.429447 73.260391 
z
" style="fill: #ffffff; opacity: 0.8; stroke: #cbd5e1; stroke-linejoin: miter"/>
    </g>
    <g id="line2d_28">
     <path d="M 277.229447 37.346875 
L 286.229447 37.346875 
L 295.229447 37.346875 
" style="fill: none; stroke: #2563eb; stroke-width: 1.7; stroke-linecap: square"/>
    </g>
    <g id="text_18">
     <!-- Train loss -->
     <g transform="translate(302.429447 40.496875) scale(0.09 -0.09)">
      <defs>
       <path id="DejaVuSans-37" d="M -19 4666 
L 3928 4666 
L 3928 4134 
L 2272 4134 
L 2272 0 
L 1638 0 
L 1638 4134 
L -19 4134 
L -19 4666 
z
" transform="scale(0.015625)"/>
       <path id="DejaVuSans-55" d="M 2631 2963 
Q 2534 3019 2420 3045 
Q 2306 3072 2169 3072 
Q 1681 3072 1420 2755 
Q 1159 2438 1159 1844 
L 1159 0 
L 581 0 
L 581 3500 
L 1159 3500 
L 1159 2956 
Q 1341 3275 1631 3429 
Q 1922 3584 2338 3584 
Q 2397 3584 2469 3576 
Q 2541 3569 2628 3553 
L 2631 2963 
z
" transform="scale(0.015625)"/>
       <path id="DejaVuSans-4c" d="M 603 3500 
L 1178 3500 
L 1178 0 
L 603 0 
L 603 3500 
z
M 603 4863 
L 1178 4863 
L 1178 4134 
L 603 4134 
L 603 4863 
z
" transform="scale(0.015625)"/>
       <path id="DejaVuSans-51" d="M 3513 2113 
L 3513 0 
L 2938 0 
L 2938 2094 
Q 2938 2591 2744 2837 
Q 2550 3084 2163 3084 
Q 1697 3084 1428 2787 
Q 1159 2491 1159 1978 
L 1159 0 
L 581 0 
L 581 3500 
L 1159 3500 
L 1159 2956 
Q 1366 3272 1645 3428 
Q 1925 3584 2291 3584 
Q 2894 3584 3203 3211 
Q 3513 2838 3513 2113 
z
" transform="scale(0.015625)"/>
      </defs>
      <use xlink:href="#DejaVuSans-37"/>
      <use xlink:href="#DejaVuSans-55" transform="translate(46.375 0)"/>
      <use xlink:href="#DejaVuSans-44" transform="translate(87.484375 0)"/>
      <use xlink:href="#DejaVuSans-4c" transform="translate(148.765625 0)"/>
      <use xlink:href="#DejaVuSans-51" transform="translate(176.546875 0)"/>
      <use xlink:href="#DejaVuSans-3" transform="translate(239.921875 0)"/>
      <use xlink:href="#DejaVuSans-4f" transform="translate(271.703125 0)"/>
      <use xlink:href="#DejaVuSans-52" transform="translate(299.484375 0)"/>
      <use xlink:href="#DejaVuSans-56" transform="translate(360.671875 0)"/>
      <use xlink:href="#DejaVuSans-56" transform="translate(412.765625 0)"/>
     </g>
    </g>
    <g id="line2d_29">
     <path d="M 277.229447 50.847578 
L 286.229447 50.847578 
L 295.229447 50.847578 
" style="fill: none; stroke: #16a34a; stroke-width: 1.7; stroke-linecap: square"/>
    </g>
    <g id="text_19">
     <!-- Validation loss -->
     <g transform="translate(302.429447 53.997578) scale(0.09 -0.09)">
      <defs>
       <path id="DejaVuSans-39" d="M 1831 0 
L 50 4666 
L 709 4666 
L 2188 738 
L 3669 4666 
L 4325 4666 
L 2547 0 
L 1831 0 
z
" transform="scale(0.015625)"/>
       <path id="DejaVuSans-47" d="M 2906 2969 
L 2906 4863 
L 3481 4863 
L 3481 0 
L 2906 0 
L 2906 525 
Q 2725 213 2448 61 
Q 2172 -91 1784 -91 
Q 1150 -91 751 415 
Q 353 922 353 1747 
Q 353 2572 751 3078 
Q 1150 3584 1784 3584 
Q 2172 3584 2448 3432 
Q 2725 3281 2906 2969 
z
M 947 1747 
Q 947 1113 1208 752 
Q 1469 391 1925 391 
Q 2381 391 2643 752 
Q 2906 1113 2906 1747 
Q 2906 2381 2643 2742 
Q 2381 3103 1925 3103 
Q 1469 3103 1208 2742 
Q 947 2381 947 1747 
z
" transform="scale(0.015625)"/>
       <path id="DejaVuSans-57" d="M 1172 4494 
L 1172 3500 
L 2356 3500 
L 2356 3053 
L 1172 3053 
L 1172 1153 
Q 1172 725 1289 603 
Q 1406 481 1766 481 
L 2356 481 
L 2356 0 
L 1766 0 
Q 1100 0 847 248 
Q 594 497 594 1153 
L 594 3053 
L 172 3053 
L 172 3500 
L 594 3500 
L 594 4494 
L 1172 4494 
z
" transform="scale(0.015625)"/>
      </defs>
      <use xlink:href="#DejaVuSans-39"/>
      <use xlink:href="#DejaVuSans-44" transform="translate(60.640625 0)"/>
      <use xlink:href="#DejaVuSans-4f" transform="translate(121.921875 0)"/>
      <use xlink:href="#DejaVuSans-4c" transform="translate(149.703125 0)"/>
      <use xlink:href="#DejaVuSans-47" transform="translate(177.484375 0)"/>
      <use xlink:href="#DejaVuSans-44" transform="translate(240.96875 0)"/>
      <use xlink:href="#DejaVuSans-57" transform="translate(302.25 0)"/>
      <use xlink:href="#DejaVuSans-4c" transform="translate(341.453125 0)"/>
      <use xlink:href="#DejaVuSans-52" transform="translate(369.234375 0)"/>
      <use xlink:href="#DejaVuSans-51" transform="translate(430.421875 0)"/>
      <use xlink:href="#DejaVuSans-3" transform="translate(493.796875 0)"/>
      <use xlink:href="#DejaVuSans-4f" transform="translate(525.578125 0)"/>
      <use xlink:href="#DejaVuSans-52" transform="translate(553.359375 0)"/>
      <use xlink:href="#DejaVuSans-56" transform="translate(614.546875 0)"/>
      <use xlink:href="#DejaVuSans-56" transform="translate(666.640625 0)"/>
     </g>
    </g>
    <g id="line2d_30">
     <path d="M 277.229447 64.348281 
L 286.229447 64.348281 
L 295.229447 64.348281 
" style="fill: none; stroke-dasharray: 6,4.5; stroke-dashoffset: 0; stroke: #f97316; stroke-width: 1.5"/>
    </g>
    <g id="text_20">
     <!-- Best epoch = 362 -->
     <g transform="translate(302.429447 67.498281) scale(0.09 -0.09)">
      <defs>
       <path id="DejaVuSans-25" d="M 1259 2228 
L 1259 519 
L 2272 519 
Q 2781 519 3026 730 
Q 3272 941 3272 1375 
Q 3272 1813 3026 2020 
Q 2781 2228 2272 2228 
L 1259 2228 
z
M 1259 4147 
L 1259 2741 
L 2194 2741 
Q 2656 2741 2882 2914 
Q 3109 3088 3109 3444 
Q 3109 3797 2882 3972 
Q 2656 4147 2194 4147 
L 1259 4147 
z
M 628 4666 
L 2241 4666 
Q 2963 4666 3353 4366 
Q 3744 4066 3744 3513 
Q 3744 3084 3544 2831 
Q 3344 2578 2956 2516 
Q 3422 2416 3680 2098 
Q 3938 1781 3938 1306 
Q 3938 681 3513 340 
Q 3088 0 2303 0 
L 628 0 
L 628 4666 
z
" transform="scale(0.015625)"/>
      </defs>
      <use xlink:href="#DejaVuSans-25"/>
      <use xlink:href="#DejaVuSans-48" transform="translate(68.609375 0)"/>
      <use xlink:href="#DejaVuSans-56" transform="translate(130.140625 0)"/>
      <use xlink:href="#DejaVuSans-57" transform="translate(182.234375 0)"/>
      <use xlink:href="#DejaVuSans-3" transform="translate(221.4375 0)"/>
      <use xlink:href="#DejaVuSans-48" transform="translate(253.21875 0)"/>
      <use xlink:href="#DejaVuSans-53" transform="translate(314.75 0)"/>
      <use xlink:href="#DejaVuSans-52" transform="translate(378.234375 0)"/>
      <use xlink:href="#DejaVuSans-46" transform="translate(439.421875 0)"/>
      <use xlink:href="#DejaVuSans-4b" transform="translate(494.40625 0)"/>
      <use xlink:href="#DejaVuSans-3" transform="translate(557.78125 0)"/>
      <use xlink:href="#DejaVuSans-20" transform="translate(589.5625 0)"/>
      <use xlink:href="#DejaVuSans-3" transform="translate(673.359375 0)"/>
      <use xlink:href="#DejaVuSans-16" transform="translate(705.140625 0)"/>
      <use xlink:href="#DejaVuSans-19" transform="translate(768.765625 0)"/>
      <use xlink:href="#DejaVuSans-15" transform="translate(832.390625 0)"/>
     </g>
    </g>
   </g>
  </g>
 </g>
 <defs>
  <clipPath id="pfef6c6fc92">
   <rect x="68.700781" y="25.558281" width="522.898739" height="276.840458"/>
  </clipPath>
 </defs>
</svg>
