<?xml version="1.0" encoding="utf-8" standalone="no"?>
<!DOCTYPE svg PUBLIC "-//W3C//DTD SVG 1.1//EN"
  "http://www.w3.org/Graphics/SVG/1.1/DTD/svg11.dtd">
<svg xmlns:xlink="http://www.w3.org/1999/xlink" width="598.79952pt" height="339.59952pt" viewBox="0 0 598.79952 339.59952" xmlns="http://www.w3.org/2000/svg" version="1.1">
 <metadata>
  <rdf:RDF xmlns:dc="http://purl.org/dc/elements/1.1/" xmlns:cc="http://creativecommons.org/ns#" xmlns:rdf="http://www.w3.org/1999/02/22-rdf-syntax-ns#">
   <cc:Work>
    <dc:type rdf:resource="http://purl.org/dc/dcmitype/StillImage"/>
    <dc:date>2026-07-13T14:05:11.315667</dc:date>
    <dc:format>image/svg+xml</dc:format>
    <dc:creator>
     <cc:Agent>
      <dc:title>Matplotlib v3.10.8, https://matplotlib.org/</dc:title>
     </cc:Agent>
    </dc:creator>
   </cc:Work>
  </rdf:RDF>
 </metadata>
 <defs>
  <style type="text/css">*{stroke-linejoin: round; stroke-linecap: butt}</style>
 </defs>
 <g id="figure_1">
  <g id="patch_1">
   <path d="M 0 339.59952 
L 598.79952 339.59952 
L 598.79952 0 
L 0 0 
z
" style="fill: #ffffff"/>
  </g>
  <g id="axes_1">
   <g id="patch_2">
    <path d="M 68.378125 303.011082 
L 591.59952 303.011082 
L 591.59952 25.558281 
L 68.378125 25.558281 
z
" style="fill: #f8fafc"/>
   </g>
   <g id="matplotlib.axis_1">
    <g id="xtick_1">
     <g id="line2d_1">
      <path d="M 92.160916 303.011082 
L 92.160916 25.558281 
" clip-path="url(#p248683ed9a)" style="fill: none; stroke: #e2e8f0; stroke-width: 0.8; stroke-linecap: square"/>
     </g>
     <g id="line2d_2">
      <defs>
       <path id="mfeaa3b59bf" d="M 0 0 
L 0 3.5 
" style="stroke: #64748b; stroke-width: 0.8"/>
      </defs>
      <g>
       <use xlink:href="#mfeaa3b59bf" x="92.160916" y="303.011082" style="fill: #64748b; stroke: #64748b; stroke-width: 0.8"/>
      </g>
     </g>
     <g id="text_1">
      <!-- 0 -->
      <g style="fill: #64748b" transform="translate(89.297791 316.849676) scale(0.09 -0.09)">
       <defs>
        <path id="DejaVuSans-30" d="M 2034 4250 
Q 1547 4250 1301 3770 
Q 1056 3291 1056 2328 
Q 1056 1369 1301 889 
Q 1547 409 2034 409 
Q 2525 409 2770 889 
Q 3016 1369 3016 2328 
Q 3016 3291 2770 3770 
Q 2525 4250 2034 4250 
z
M 2034 4750 
Q 2819 4750 3233 4129 
Q 3647 3509 3647 2328 
Q 3647 1150 3233 529 
Q 2819 -91 2034 -91 
Q 1250 -91 836 529 
Q 422 1150 422 2328 
Q 422 3509 836 4129 
Q 1250 4750 2034 4750 
z
" transform="scale(0.015625)"/>
       </defs>
       <use xlink:href="#DejaVuSans-30"/>
      </g>
     </g>
    </g>
    <g id="xtick_2">
     <g id="line2d_3">
      <path d="M 203.036397 303.011082 
L 203.036397 25.558281 
" clip-path="url(#p248683ed9a)" style="fill: none; stroke: #e2e8f0; stroke-width: 0.8; stroke-linecap: square"/>
     </g>
     <g id="line2d_4">
      <g>
       <use xlink:href="#mfeaa3b59bf" x="203.036397" y="303.011082" style="fill: #64748b; stroke: #64748b; stroke-width: 0.8"/>
      </g>
     </g>
     <g id="text_2">
      <!-- 100 -->
      <g style="fill: #64748b" transform="translate(194.447022 316.849676) scale(0.09 -0.09)">
       <defs>
        <path id="DejaVuSans-31" d="M 794 531 
L 1825 531 
L 1825 4091 
L 703 3866 
L 703 4441 
L 1819 4666 
L 2450 4666 
L 2450 531 
L 3481 531 
L 3481 0 
L 794 0 
L 794 531 
z
" transform="scale(0.015625)"/>
       </defs>
       <use xlink:href="#DejaVuSans-31"/>
       <use xlink:href="#DejaVuSans-30" transform="translate(63.623047 0)"/>
       <use xlink:href="#DejaVuSans-30" transform="translate(127.246094 0)"/>
      </g>
     </g>
    </g>
    <g id="xtick_3">
     <g id="line2d_5">
      <path d="M 313.911878 303.011082 
L 313.911878 25.558281 
" clip-path="url(#p248683ed9a)" style="fill: none; stroke: #e2e8f0; stroke-width: 0.8; stroke-linecap: square"/>
     </g>
     <g id="line2d_6">
      <g>
       <use xlink:href="#mfeaa3b59bf" x="313.911878" y="303.011082" style="fill: #64748b; stroke: #64748b; stroke-width: 0.8"/>
      </g>
     </g>
     <g id="text_3">
      <!-- 200 -->
      <g style="fill: #64748b" transform="translate(305.322503 316.849676) scale(0.09 -0.09)">
       <defs>
        <path id="DejaVuSans-32" d="M 1228 531 
L 3431 531 
L 3431 0 
L 469 0 
L 469 531 
Q 828 903 1448 1529 
Q 2069 2156 2228 2338 
Q 2531 2678 2651 2914 
Q 2772 3150 2772 3378 
Q 2772 3750 2511 3984 
Q 2250 4219 1831 4219 
Q 1534 4219 1204 4116 
Q 875 4013 500 3803 
L 500 4441 
Q 881 4594 1212 4672 
Q 1544 4750 1819 4750 
Q 2544 4750 2975 4387 
Q 3406 4025 3406 3419 
Q 3406 3131 3298 2873 
Q 3191 2616 2906 2266 
Q 2828 2175 2409 1742 
Q 1991 1309 1228 531 
z
" transform="scale(0.015625)"/>
       </defs>
       <use xlink:href="#DejaVuSans-32"/>
       <use xlink:href="#DejaVuSans-30" transform="translate(63.623047 0)"/>
       <use xlink:href="#DejaVuSans-30" transform="translate(127.246094 0)"/>
      </g>
     </g>
    </g>
    <g id="xtick_4">
     <g id="line2d_7">
      <path d="M 424.787359 303.011082 
L 424.787359 25.558281 
" clip-path="url(#p248683ed9a)" style="fill: none; stroke: #e2e8f0; stroke-width: 0.8; stroke-linecap: square"/>
     </g>
     <g id="line2d_8">
      <g>
       <use xlink:href="#mfeaa3b59bf" x="424.787359" y="303.011082" style="fill: #64748b; stroke: #64748b; stroke-width: 0.8"/>
      </g>
     </g>
     <g id="text_4">
      <!-- 300 -->
      <g style="fill: #64748b" transform="translate(416.197984 316.849676) scale(0.09 -0.09)">
       <defs>
        <path id="DejaVuSans-33" d="M 2597 2516 
Q 3050 2419 3304 2112 
Q 3559 1806 3559 1356 
Q 3559 666 3084 287 
Q 2609 -91 1734 -91 
Q 1441 -91 1130 -33 
Q 819 25 488 141 
L 488 750 
Q 750 597 1062 519 
Q 1375 441 1716 441 
Q 2309 441 2620 675 
Q 2931 909 2931 1356 
Q 2931 1769 2642 2001 
Q 2353 2234 1838 2234 
L 1294 2234 
L 1294 2753 
L 1863 2753 
Q 2328 2753 2575 2939 
Q 2822 3125 2822 3475 
Q 2822 3834 2567 4026 
Q 2313 4219 1838 4219 
Q 1578 4219 1281 4162 
Q 984 4106 628 3988 
L 628 4550 
Q 988 4650 1302 4700 
Q 1616 4750 1894 4750 
Q 2613 4750 3031 4423 
Q 3450 4097 3450 3541 
Q 3450 3153 3228 2886 
Q 3006 2619 2597 2516 
z
" transform="scale(0.015625)"/>
       </defs>
       <use xlink:href="#DejaVuSans-33"/>
       <use xlink:href="#DejaVuSans-30" transform="translate(63.623047 0)"/>
       <use xlink:href="#DejaVuSans-30" transform="translate(127.246094 0)"/>
      </g>
     </g>
    </g>
    <g id="xtick_5">
     <g id="line2d_9">
      <path d="M 535.66284 303.011082 
L 535.66284 25.558281 
" clip-path="url(#p248683ed9a)" style="fill: none; stroke: #e2e8f0; stroke-width: 0.8; stroke-linecap: square"/>
     </g>
     <g id="line2d_10">
      <g>
       <use xlink:href="#mfeaa3b59bf" x="535.66284" y="303.011082" style="fill: #64748b; stroke: #64748b; stroke-width: 0.8"/>
      </g>
     </g>
     <g id="text_5">
      <!-- 400 -->
      <g style="fill: #64748b" transform="translate(527.073465 316.849676) scale(0.09 -0.09)">
       <defs>
        <path id="DejaVuSans-34" d="M 2419 4116 
L 825 1625 
L 2419 1625 
L 2419 4116 
z
M 2253 4666 
L 3047 4666 
L 3047 1625 
L 3713 1625 
L 3713 1100 
L 3047 1100 
L 3047 0 
L 2419 0 
L 2419 1100 
L 313 1100 
L 313 1709 
L 2253 4666 
z
" transform="scale(0.015625)"/>
       </defs>
       <use xlink:href="#DejaVuSans-34"/>
       <use xlink:href="#DejaVuSans-30" transform="translate(63.623047 0)"/>
       <use xlink:href="#DejaVuSans-30" transform="translate(127.246094 0)"/>
      </g>
     </g>
    </g>
    <g id="text_6">
     <!-- Epoch -->
     <g style="fill: #334155" transform="translate(314.677885 330.319832) scale(0.1 -0.1)">
      <defs>
       <path id="DejaVuSans-45" d="M 628 4666 
L 3578 4666 
L 3578 4134 
L 1259 4134 
L 1259 2753 
L 3481 2753 
L 3481 2222 
L 1259 2222 
L 1259 531 
L 3634 531 
L 3634 0 
L 628 0 
L 628 4666 
z
" transform="scale(0.015625)"/>
       <path id="DejaVuSans-70" d="M 1159 525 
L 1159 -1331 
L 581 -1331 
L 581 3500 
L 1159 3500 
L 1159 2969 
Q 1341 3281 1617 3432 
Q 1894 3584 2278 3584 
Q 2916 3584 3314 3078 
Q 3713 2572 3713 1747 
Q 3713 922 3314 415 
Q 2916 -91 2278 -91 
Q 1894 -91 1617 61 
Q 1341 213 1159 525 
z
M 3116 1747 
Q 3116 2381 2855 2742 
Q 2594 3103 2138 3103 
Q 1681 3103 1420 2742 
Q 1159 2381 1159 1747 
Q 1159 1113 1420 752 
Q 1681 391 2138 391 
Q 2594 391 2855 752 
Q 3116 1113 3116 1747 
z
" transform="scale(0.015625)"/>
       <path id="DejaVuSans-6f" d="M 1959 3097 
Q 1497 3097 1228 2736 
Q 959 2375 959 1747 
Q 959 1119 1226 758 
Q 1494 397 1959 397 
Q 2419 397 2687 759 
Q 2956 1122 2956 1747 
Q 2956 2369 2687 2733 
Q 2419 3097 1959 3097 
z
M 1959 3584 
Q 2709 3584 3137 3096 
Q 3566 2609 3566 1747 
Q 3566 888 3137 398 
Q 2709 -91 1959 -91 
Q 1206 -91 779 398 
Q 353 888 353 1747 
Q 353 2609 779 3096 
Q 1206 3584 1959 3584 
z
" transform="scale(0.015625)"/>
       <path id="DejaVuSans-63" d="M 3122 3366 
L 3122 2828 
Q 2878 2963 2633 3030 
Q 2388 3097 2138 3097 
Q 1578 3097 1268 2742 
Q 959 2388 959 1747 
Q 959 1106 1268 751 
Q 1578 397 2138 397 
Q 2388 397 2633 464 
Q 2878 531 3122 666 
L 3122 134 
Q 2881 22 2623 -34 
Q 2366 -91 2075 -91 
Q 1284 -91 818 406 
Q 353 903 353 1747 
Q 353 2603 823 3093 
Q 1294 3584 2113 3584 
Q 2378 3584 2631 3529 
Q 2884 3475 3122 3366 
z
" transform="scale(0.015625)"/>
       <path id="DejaVuSans-68" d="M 3513 2113 
L 3513 0 
L 2938 0 
L 2938 2094 
Q 2938 2591 2744 2837 
Q 2550 3084 2163 3084 
Q 1697 3084 1428 2787 
Q 1159 2491 1159 1978 
L 1159 0 
L 581 0 
L 581 4863 
L 1159 4863 
L 1159 2956 
Q 1366 3272 1645 3428 
Q 1925 3584 2291 3584 
Q 2894 3584 3203 3211 
Q 3513 2838 3513 2113 
z
" transform="scale(0.015625)"/>
      </defs>
      <use xlink:href="#DejaVuSans-45"/>
      <use xlink:href="#DejaVuSans-70" transform="translate(63.183594 0)"/>
      <use xlink:href="#DejaVuSans-6f" transform="translate(126.660156 0)"/>
      <use xlink:href="#DejaVuSans-63" transform="translate(187.841797 0)"/>
      <use xlink:href="#DejaVuSans-68" transform="translate(242.822266 0)"/>
     </g>
    </g>
   </g>
   <g id="matplotlib.axis_2">
    <g id="ytick_1">
     <g id="line2d_11">
      <path d="M 68.378125 252.934333 
L 591.59952 252.934333 
" clip-path="url(#p248683ed9a)" style="fill: none; stroke: #e2e8f0; stroke-width: 0.8; stroke-linecap: square"/>
     </g>
     <g id="line2d_12">
      <defs>
       <path id="m789d155e4c" d="M 0 0 
L -3.5 0 
" style="stroke: #64748b; stroke-width: 0.8"/>
      </defs>
      <g>
       <use xlink:href="#m789d155e4c" x="68.378125" y="252.934333" style="fill: #64748b; stroke: #64748b; stroke-width: 0.8"/>
      </g>
     </g>
     <g id="text_7">
      <!-- $\mathdefault{10^{-2}}$ -->
      <g style="fill: #64748b" transform="translate(40.228125 256.35363) scale(0.09 -0.09)">
       <defs>
        <path id="DejaVuSans-2212" d="M 678 2272 
L 4684 2272 
L 4684 1741 
L 678 1741 
L 678 2272 
z
" transform="scale(0.015625)"/>
       </defs>
       <use xlink:href="#DejaVuSans-31" transform="translate(0 0.765625)"/>
       <use xlink:href="#DejaVuSans-30" transform="translate(63.623047 0.765625)"/>
       <use xlink:href="#DejaVuSans-2212" transform="translate(128.203125 39.046875) scale(0.7)"/>
       <use xlink:href="#DejaVuSans-32" transform="translate(186.855469 39.046875) scale(0.7)"/>
      </g>
     </g>
    </g>
    <g id="ytick_2">
     <g id="line2d_13">
      <defs>
       <path id="m94edd2c1db" d="M 0 0 
L -2 0 
" style="stroke: #64748b; stroke-width: 0.6"/>
      </defs>
      <g>
       <use xlink:href="#m94edd2c1db" x="68.378125" y="295.096066" style="fill: #64748b; stroke: #64748b; stroke-width: 0.6"/>
      </g>
     </g>
    </g>
    <g id="ytick_3">
     <g id="line2d_14">
      <g>
       <use xlink:href="#m94edd2c1db" x="68.378125" y="272.841617" style="fill: #64748b; stroke: #64748b; stroke-width: 0.6"/>
      </g>
     </g>
    </g>
    <g id="ytick_4">
     <g id="line2d_15">
      <g>
       <use xlink:href="#m94edd2c1db" x="68.378125" y="121.968028" style="fill: #64748b; stroke: #64748b; stroke-width: 0.6"/>
      </g>
     </g>
     <g id="text_8">
      <!-- $\mathdefault{2\times10^{-2}}$ -->
      <g style="fill: #64748b" transform="translate(20.878125 125.767247) scale(0.1 -0.1)">
       <defs>
        <path id="DejaVuSans-d7" d="M 4488 3438 
L 3059 2003 
L 4488 575 
L 4116 197 
L 2681 1631 
L 1247 197 
L 878 575 
L 2303 2003 
L 878 3438 
L 1247 3816 
L 2681 2381 
L 4116 3816 
L 4488 3438 
z
" transform="scale(0.015625)"/>
       </defs>
       <use xlink:href="#DejaVuSans-32" transform="translate(0 0.765625)"/>
       <use xlink:href="#DejaVuSans-d7" transform="translate(83.105469 0.765625)"/>
       <use xlink:href="#DejaVuSans-31" transform="translate(186.376953 0.765625)"/>
       <use xlink:href="#DejaVuSans-30" transform="translate(250 0.765625)"/>
       <use xlink:href="#DejaVuSans-2212" transform="translate(314.580078 39.046875) scale(0.7)"/>
       <use xlink:href="#DejaVuSans-32" transform="translate(373.232422 39.046875) scale(0.7)"/>
      </g>
     </g>
    </g>
    <g id="ytick_5">
     <g id="line2d_16">
      <g>
       <use xlink:href="#m94edd2c1db" x="68.378125" y="45.357651" style="fill: #64748b; stroke: #64748b; stroke-width: 0.6"/>
      </g>
     </g>
     <g id="text_9">
      <!-- $\mathdefault{3\times10^{-2}}$ -->
      <g style="fill: #64748b" transform="translate(20.878125 49.15687) scale(0.1 -0.1)">
       <use xlink:href="#DejaVuSans-33" transform="translate(0 0.765625)"/>
       <use xlink:href="#DejaVuSans-d7" transform="translate(83.105469 0.765625)"/>
       <use xlink:href="#DejaVuSans-31" transform="translate(186.376953 0.765625)"/>
       <use xlink:href="#DejaVuSans-30" transform="translate(250 0.765625)"/>
       <use xlink:href="#DejaVuSans-2212" transform="translate(314.580078 39.046875) scale(0.7)"/>
       <use xlink:href="#DejaVuSans-32" transform="translate(373.232422 39.046875) scale(0.7)"/>
      </g>
     </g>
    </g>
    <g id="text_10">
     <!-- MSE loss -->
     <g style="fill: #334155" transform="translate(14.798437 186.179213) rotate(-90) scale(0.1 -0.1)">
      <defs>
       <path id="DejaVuSans-4d" d="M 628 4666 
L 1569 4666 
L 2759 1491 
L 3956 4666 
L 4897 4666 
L 4897 0 
L 4281 0 
L 4281 4097 
L 3078 897 
L 2444 897 
L 1241 4097 
L 1241 0 
L 628 0 
L 628 4666 
z
" transform="scale(0.015625)"/>
       <path id="DejaVuSans-53" d="M 3425 4513 
L 3425 3897 
Q 3066 4069 2747 4153 
Q 2428 4238 2131 4238 
Q 1616 4238 1336 4038 
Q 1056 3838 1056 3469 
Q 1056 3159 1242 3001 
Q 1428 2844 1947 2747 
L 2328 2669 
Q 3034 2534 3370 2195 
Q 3706 1856 3706 1288 
Q 3706 609 3251 259 
Q 2797 -91 1919 -91 
Q 1588 -91 1214 -16 
Q 841 59 441 206 
L 441 856 
Q 825 641 1194 531 
Q 1563 422 1919 422 
Q 2459 422 2753 634 
Q 3047 847 3047 1241 
Q 3047 1584 2836 1778 
Q 2625 1972 2144 2069 
L 1759 2144 
Q 1053 2284 737 2584 
Q 422 2884 422 3419 
Q 422 4038 858 4394 
Q 1294 4750 2059 4750 
Q 2388 4750 2728 4690 
Q 3069 4631 3425 4513 
z
" transform="scale(0.015625)"/>
       <path id="DejaVuSans-20" transform="scale(0.015625)"/>
       <path id="DejaVuSans-6c" d="M 603 4863 
L 1178 4863 
L 1178 0 
L 603 0 
L 603 4863 
z
" transform="scale(0.015625)"/>
       <path id="DejaVuSans-73" d="M 2834 3397 
L 2834 2853 
Q 2591 2978 2328 3040 
Q 2066 3103 1784 3103 
Q 1356 3103 1142 2972 
Q 928 2841 928 2578 
Q 928 2378 1081 2264 
Q 1234 2150 1697 2047 
L 1894 2003 
Q 2506 1872 2764 1633 
Q 3022 1394 3022 966 
Q 3022 478 2636 193 
Q 2250 -91 1575 -91 
Q 1294 -91 989 -36 
Q 684 19 347 128 
L 347 722 
Q 666 556 975 473 
Q 1284 391 1588 391 
Q 1994 391 2212 530 
Q 2431 669 2431 922 
Q 2431 1156 2273 1281 
Q 2116 1406 1581 1522 
L 1381 1569 
Q 847 1681 609 1914 
Q 372 2147 372 2553 
Q 372 3047 722 3315 
Q 1072 3584 1716 3584 
Q 2034 3584 2315 3537 
Q 2597 3491 2834 3397 
z
" transform="scale(0.015625)"/>
      </defs>
      <use xlink:href="#DejaVuSans-4d"/>
      <use xlink:href="#DejaVuSans-53" transform="translate(86.279297 0)"/>
      <use xlink:href="#DejaVuSans-45" transform="translate(149.755859 0)"/>
      <use xlink:href="#DejaVuSans-20" transform="translate(212.939453 0)"/>
      <use xlink:href="#DejaVuSans-6c" transform="translate(244.726562 0)"/>
      <use xlink:href="#DejaVuSans-6f" transform="translate(272.509766 0)"/>
      <use xlink:href="#DejaVuSans-73" transform="translate(333.691406 0)"/>
      <use xlink:href="#DejaVuSans-73" transform="translate(385.791016 0)"/>
     </g>
    </g>
   </g>
   <g id="line2d_17">
    <path d="M 92.160916 38.169772 
L 93.26967 49.04219 
L 94.378425 58.155805 
L 95.48718 64.531784 
L 96.595935 81.703175 
L 97.70469 87.795855 
L 98.813445 85.245171 
L 99.922199 101.41171 
L 101.030954 108.498131 
L 102.139709 94.898334 
L 103.248464 109.003857 
L 104.357219 114.255153 
L 105.465973 100.141964 
L 106.574728 104.487189 
L 107.683483 133.256805 
L 108.792238 117.821046 
L 109.900993 128.719583 
L 111.009747 115.594824 
L 112.118502 123.668032 
L 113.227257 124.274247 
L 114.336012 138.140941 
L 115.444767 129.388915 
L 116.553522 129.9366 
L 117.662276 138.368964 
L 118.771031 140.116188 
L 119.879786 155.748988 
L 120.988541 147.410308 
L 122.097296 141.957104 
L 123.20605 142.124851 
L 124.314805 143.979015 
L 125.42356 162.702991 
L 126.532315 141.567001 
L 127.64107 142.13139 
L 128.749824 129.365033 
L 129.858579 147.163414 
L 130.967334 162.729103 
L 132.076089 146.633735 
L 133.184844 162.873412 
L 134.293598 132.222088 
L 135.402353 155.237442 
L 136.511108 185.773413 
L 137.619863 165.730855 
L 138.728618 163.804118 
L 139.837373 167.219385 
L 140.946127 177.613895 
L 142.054882 189.207807 
L 143.163637 174.057112 
L 144.272392 161.219636 
L 145.381147 170.044558 
L 146.489901 164.096629 
L 147.598656 165.93092 
L 148.707411 156.843459 
L 149.816166 185.787547 
L 150.924921 186.236499 
L 152.033675 184.334962 
L 153.14243 177.786648 
L 154.251185 186.83994 
L 155.35994 189.508358 
L 156.468695 179.424732 
L 158.686204 167.892146 
L 159.794959 192.970377 
L 160.903714 186.285475 
L 162.012469 185.183408 
L 163.121224 191.86254 
L 164.229978 166.018635 
L 165.338733 180.74299 
L 166.447488 187.605267 
L 167.556243 186.841664 
L 168.664998 199.536027 
L 169.773752 203.10228 
L 170.882507 188.416975 
L 171.991262 194.01424 
L 173.100017 188.221873 
L 174.208772 170.629258 
L 175.317526 181.622735 
L 176.426281 203.346184 
L 177.535036 184.638275 
L 178.643791 184.579699 
L 179.752546 177.476824 
L 180.861301 182.806986 
L 181.970055 190.579095 
L 183.07881 221.333665 
L 184.187565 190.838381 
L 185.29632 201.51778 
L 186.405075 199.938016 
L 187.513829 195.657745 
L 188.622584 198.882772 
L 189.731339 195.973753 
L 190.840094 211.926396 
L 191.948849 187.59391 
L 193.057603 188.75171 
L 194.166358 189.290463 
L 195.275113 186.242099 
L 196.383868 216.744188 
L 197.492623 212.016485 
L 198.601377 201.246908 
L 199.710132 199.944198 
L 200.818887 229.845598 
L 203.036397 205.920173 
L 204.145152 201.540274 
L 205.253906 202.792094 
L 206.362661 226.286994 
L 207.471416 209.662437 
L 208.580171 220.216422 
L 209.688926 218.886719 
L 210.79768 195.489325 
L 211.906435 202.828764 
L 213.01519 223.625144 
L 214.123945 216.463644 
L 215.2327 211.482363 
L 216.341454 203.83206 
L 217.450209 221.683962 
L 218.558964 203.571362 
L 219.667719 215.17379 
L 221.885228 207.581741 
L 222.993983 213.237963 
L 224.102738 233.412851 
L 225.211493 206.599888 
L 226.320248 228.526549 
L 227.429003 212.858011 
L 228.537757 212.750705 
L 229.646512 229.156099 
L 231.864022 209.657581 
L 232.972777 217.909903 
L 234.081531 207.748344 
L 235.190286 229.314428 
L 236.299041 211.2868 
L 237.407796 198.734633 
L 238.516551 219.118428 
L 239.625305 216.237238 
L 240.73406 228.997143 
L 241.842815 232.464067 
L 242.95157 230.900411 
L 244.060325 220.741923 
L 245.16908 232.459977 
L 246.277834 214.933525 
L 247.386589 221.908153 
L 248.495344 223.224404 
L 249.604099 236.168338 
L 250.712854 231.754109 
L 251.821608 233.635219 
L 252.930363 227.67159 
L 254.039118 241.227398 
L 255.147873 217.775423 
L 256.256628 217.584303 
L 257.365382 243.661013 
L 258.474137 240.558513 
L 259.582892 230.690575 
L 260.691647 250.217292 
L 261.800402 226.935948 
L 262.909156 221.893789 
L 264.017911 239.974401 
L 265.126666 222.9519 
L 266.235421 218.626705 
L 267.344176 219.888436 
L 268.452931 239.384113 
L 269.561685 240.459339 
L 270.67044 221.384838 
L 271.779195 234.861836 
L 272.88795 253.711496 
L 273.996705 238.938294 
L 275.105459 229.15658 
L 276.214214 247.074126 
L 277.322969 249.254208 
L 278.431724 236.484374 
L 279.540479 228.340403 
L 280.649233 249.304572 
L 281.757988 239.761585 
L 282.866743 244.344723 
L 283.975498 222.78888 
L 285.084253 223.435077 
L 286.193007 226.950501 
L 287.301762 219.039228 
L 288.410517 229.086879 
L 289.519272 242.802496 
L 290.628027 234.545514 
L 291.736782 249.878853 
L 292.845536 242.215573 
L 293.954291 247.526742 
L 295.063046 227.258912 
L 296.171801 247.826218 
L 297.280556 224.710692 
L 298.38931 232.066923 
L 299.498065 245.022361 
L 300.60682 253.981482 
L 301.715575 235.176943 
L 302.82433 244.50608 
L 303.933084 264.307395 
L 305.041839 246.887929 
L 306.150594 252.511502 
L 307.259349 241.6489 
L 308.368104 247.455994 
L 309.476859 236.129921 
L 310.585613 235.265065 
L 311.694368 255.26396 
L 312.803123 232.994344 
L 313.911878 234.375452 
L 315.020633 260.035705 
L 316.129387 229.569664 
L 317.238142 235.927081 
L 318.346897 231.367213 
L 319.455652 252.668654 
L 320.564407 258.507015 
L 321.673161 245.206914 
L 322.781916 252.197782 
L 323.890671 245.610685 
L 324.999426 240.451087 
L 326.108181 244.097406 
L 327.216935 213.152451 
L 328.32569 233.763544 
L 329.434445 249.527608 
L 330.5432 238.825938 
L 331.651955 232.415345 
L 332.76071 254.3094 
L 333.869464 232.585136 
L 334.978219 235.463136 
L 336.086974 267.209171 
L 337.195729 248.564912 
L 338.304484 245.726625 
L 339.413238 247.742552 
L 340.521993 244.227763 
L 341.630748 249.954048 
L 342.739503 251.153703 
L 343.848258 256.191837 
L 344.957012 258.04259 
L 346.065767 271.342667 
L 347.174522 247.892445 
L 348.283277 242.602898 
L 349.392032 241.310577 
L 350.500786 238.350154 
L 351.609541 266.988929 
L 352.718296 230.952613 
L 353.827051 243.138791 
L 354.935806 242.377383 
L 356.044561 224.827241 
L 357.153315 243.072139 
L 358.26207 250.858726 
L 359.370825 245.976425 
L 360.47958 249.640271 
L 361.588335 244.287713 
L 362.697089 261.382353 
L 363.805844 236.721047 
L 364.914599 253.057855 
L 366.023354 251.786191 
L 367.132109 242.4505 
L 368.240863 257.757626 
L 369.349618 255.253574 
L 370.458373 255.230132 
L 371.567128 239.49336 
L 373.784638 228.12964 
L 374.893392 242.702437 
L 376.002147 239.26555 
L 377.110902 237.168166 
L 378.219657 253.432015 
L 379.328412 252.43609 
L 380.437166 254.056469 
L 381.545921 231.829428 
L 382.654676 243.705617 
L 383.763431 260.984491 
L 384.872186 262.665121 
L 385.98094 241.580998 
L 387.089695 234.432628 
L 388.19845 257.524252 
L 389.307205 248.924724 
L 390.41596 236.91433 
L 391.524714 241.5981 
L 392.633469 253.074566 
L 393.742224 247.996491 
L 394.850979 258.518143 
L 395.959734 244.096532 
L 397.068489 247.465482 
L 398.177243 251.71745 
L 399.285998 253.364647 
L 400.394753 247.275483 
L 401.503508 249.055663 
L 402.612263 236.695984 
L 403.721017 249.388778 
L 404.829772 230.26102 
L 405.938527 248.086821 
L 407.047282 260.681015 
L 408.156037 245.243083 
L 409.264791 253.777379 
L 410.373546 245.394911 
L 411.482301 267.795144 
L 412.591056 257.928202 
L 413.699811 263.278556 
L 415.91732 247.648981 
L 417.026075 257.23951 
L 418.13483 246.547128 
L 419.243585 248.604068 
L 420.35234 234.977636 
L 421.461094 281.215626 
L 422.569849 263.865368 
L 423.678604 258.543247 
L 424.787359 264.790963 
L 425.896114 273.089472 
L 427.004868 244.350407 
L 428.113623 242.470843 
L 429.222378 282.019425 
L 430.331133 260.316004 
L 431.439888 255.00338 
L 432.548642 251.978664 
L 433.657397 262.881935 
L 434.766152 252.54871 
L 435.874907 262.815377 
L 436.983662 254.619937 
L 438.092417 244.130474 
L 439.201171 254.050716 
L 440.309926 280.956221 
L 441.418681 280.285962 
L 442.527436 244.205784 
L 443.636191 243.573192 
L 444.744945 262.579806 
L 445.8537 272.086414 
L 446.962455 270.517883 
L 448.07121 266.108861 
L 449.179965 236.027508 
L 450.288719 247.582002 
L 451.397474 264.163474 
L 452.506229 276.053283 
L 453.614984 269.557976 
L 454.723739 271.628182 
L 455.832493 261.771153 
L 456.941248 273.098968 
L 458.050003 271.033433 
L 459.158758 250.437883 
L 460.267513 261.195983 
L 461.376268 260.402811 
L 462.485022 238.907805 
L 463.593777 251.765222 
L 464.702532 256.97844 
L 465.811287 242.206312 
L 466.920042 283.289121 
L 468.028796 271.887864 
L 469.137551 251.012228 
L 470.246306 264.035505 
L 471.355061 257.713079 
L 472.463816 259.544458 
L 473.57257 270.332125 
L 474.681325 266.768887 
L 475.79008 257.808882 
L 476.898835 227.989709 
L 478.00759 233.521684 
L 479.116344 243.29892 
L 480.225099 265.398719 
L 481.333854 248.831823 
L 482.442609 273.621599 
L 483.551364 270.226327 
L 484.660119 249.529457 
L 485.768873 268.846741 
L 486.877628 249.150727 
L 487.986383 248.420361 
L 489.095138 272.039858 
L 490.203893 262.784267 
L 491.312647 273.555683 
L 492.421402 272.505824 
L 493.530157 263.266921 
L 494.638912 266.83367 
L 495.747667 269.770327 
L 496.856421 257.90551 
L 497.965176 270.867947 
L 499.073931 266.94725 
L 500.182686 237.918661 
L 501.291441 253.571359 
L 502.400196 261.975147 
L 503.50895 277.935043 
L 504.617705 275.413701 
L 505.72646 250.718445 
L 506.835215 269.201142 
L 507.94397 249.933073 
L 509.052724 261.190928 
L 510.161479 271.207864 
L 511.270234 277.752728 
L 512.378989 263.038508 
L 513.487744 275.500512 
L 514.596498 248.596037 
L 515.705253 276.261657 
L 516.814008 246.279635 
L 517.922763 277.416706 
L 519.031518 261.154533 
L 520.140272 263.191347 
L 521.249027 281.148806 
L 522.357782 274.916418 
L 523.466537 255.494932 
L 524.575292 262.118076 
L 525.684047 259.206663 
L 526.792801 254.890514 
L 527.901556 276.157382 
L 529.010311 282.409663 
L 530.119066 267.50979 
L 531.227821 268.107662 
L 532.336575 265.741244 
L 533.44533 250.093 
L 534.554085 267.411392 
L 535.66284 264.716819 
L 536.771595 259.963586 
L 537.880349 262.124006 
L 538.989104 249.311546 
L 540.097859 253.275478 
L 541.206614 269.145167 
L 542.315369 245.251902 
L 543.424123 272.097028 
L 544.532878 246.655185 
L 545.641633 258.756813 
L 546.750388 227.629352 
L 547.859143 270.825868 
L 548.967898 269.463999 
L 550.076652 257.74777 
L 551.185407 264.823268 
L 552.294162 275.800308 
L 553.402917 270.269642 
L 554.511672 251.81514 
L 555.620426 282.073209 
L 556.729181 256.178411 
L 557.837936 260.63308 
L 558.946691 257.005552 
L 560.055446 273.805315 
L 561.1642 278.726228 
L 562.272955 272.814469 
L 563.38171 258.660493 
L 564.490465 280.825499 
L 565.59922 290.399592 
L 566.707975 262.739669 
L 567.816729 246.166513 
L 567.816729 246.166513 
" clip-path="url(#p248683ed9a)" style="fill: none; stroke: #2563eb; stroke-width: 1.7; stroke-linecap: square"/>
   </g>
   <g id="line2d_18">
    <path d="M 92.160916 49.241059 
L 95.48718 76.910855 
L 96.595935 85.328919 
L 97.70469 92.790869 
L 98.813445 99.454739 
L 99.922199 105.399731 
L 101.030954 110.533547 
L 102.139709 114.673921 
L 103.248464 118.152964 
L 104.357219 121.040041 
L 105.465973 123.401225 
L 107.683483 127.276562 
L 108.792238 128.854785 
L 109.900993 130.166027 
L 111.009747 131.160896 
L 112.118502 131.885547 
L 113.227257 132.256108 
L 114.336012 132.398366 
L 115.444767 132.267759 
L 117.662276 131.47903 
L 118.771031 131.222832 
L 122.097296 131.118558 
L 123.20605 131.228302 
L 124.314805 131.481177 
L 125.42356 131.961913 
L 126.532315 132.647878 
L 128.749824 134.504194 
L 130.967334 136.386183 
L 139.837373 141.352187 
L 142.054882 142.455242 
L 146.489901 143.536231 
L 147.598656 143.626492 
L 152.033675 142.555271 
L 153.14243 142.304211 
L 158.686204 141.949378 
L 160.903714 142.090241 
L 167.556243 142.650111 
L 174.208772 144.752175 
L 176.426281 145.477808 
L 181.970055 147.472892 
L 184.187565 148.445674 
L 185.29632 148.913481 
L 187.513829 149.467489 
L 188.622584 149.504516 
L 189.731339 149.298934 
L 191.948849 148.67242 
L 193.057603 148.551903 
L 195.275113 148.703453 
L 197.492623 149.094144 
L 200.818887 149.979874 
L 201.927642 150.155289 
L 205.253906 150.287176 
L 207.471416 151.033745 
L 209.688926 151.404489 
L 210.79768 151.544577 
L 213.01519 152.269863 
L 215.2327 153.092364 
L 218.558964 154.101786 
L 219.667719 154.369451 
L 222.993983 154.676805 
L 225.211493 155.14876 
L 226.320248 155.272029 
L 231.864022 154.776256 
L 232.972777 154.716835 
L 234.081531 154.778056 
L 237.407796 155.310778 
L 238.516551 155.288715 
L 239.625305 155.13022 
L 240.73406 155.103041 
L 241.842815 155.528411 
L 247.386589 158.905284 
L 248.495344 159.324085 
L 251.821608 159.991839 
L 255.147873 160.238485 
L 256.256628 160.063254 
L 258.474137 159.407562 
L 259.582892 159.03439 
L 260.691647 159.000906 
L 262.909156 159.317502 
L 266.235421 160.434929 
L 267.344176 160.664553 
L 269.561685 161.670004 
L 275.105459 163.133434 
L 280.649233 162.063784 
L 281.757988 161.79354 
L 283.975498 161.63922 
L 285.084253 161.763647 
L 286.193007 162.162346 
L 287.301762 162.416552 
L 288.410517 162.876209 
L 289.519272 163.188296 
L 293.954291 165.232855 
L 296.171801 165.591152 
L 298.38931 165.387328 
L 300.60682 164.617682 
L 302.82433 163.84279 
L 303.933084 163.602101 
L 305.041839 163.480403 
L 309.476859 163.650583 
L 310.585613 163.915171 
L 311.694368 164.360742 
L 313.911878 164.946379 
L 315.020633 165.489257 
L 318.346897 167.440999 
L 319.455652 167.673968 
L 320.564407 167.169196 
L 321.673161 166.400977 
L 322.781916 165.987045 
L 323.890671 165.823493 
L 326.108181 166.360509 
L 327.216935 166.728155 
L 329.434445 167.1603 
L 330.5432 167.332598 
L 333.869464 167.12939 
L 334.978219 166.519047 
L 337.195729 164.964605 
L 338.304484 164.393669 
L 339.413238 164.468553 
L 340.521993 165.061554 
L 343.848258 168.012948 
L 344.957012 168.69579 
L 348.283277 169.897208 
L 349.392032 169.511411 
L 350.500786 168.475367 
L 351.609541 167.27151 
L 352.718296 166.790808 
L 353.827051 166.757528 
L 359.370825 168.109295 
L 361.588335 168.15115 
L 363.805844 167.856068 
L 366.023354 167.237183 
L 367.132109 167.082264 
L 368.240863 167.307543 
L 370.458373 168.611959 
L 372.675883 170.185118 
L 373.784638 170.622132 
L 374.893392 170.869727 
L 376.002147 170.744021 
L 378.219657 169.991242 
L 379.328412 169.419933 
L 382.654676 168.565104 
L 383.763431 168.449597 
L 384.872186 168.854666 
L 387.089695 170.100431 
L 388.19845 170.483817 
L 392.633469 170.635097 
L 393.742224 171.162479 
L 394.850979 171.320976 
L 395.959734 171.207574 
L 397.068489 170.769069 
L 398.177243 170.527033 
L 401.503508 171.158849 
L 402.612263 170.986267 
L 403.721017 170.599346 
L 404.829772 169.479593 
L 405.938527 168.134546 
L 407.047282 167.065374 
L 408.156037 167.111334 
L 409.264791 167.71223 
L 412.591056 170.458147 
L 415.91732 172.988246 
L 417.026075 173.2498 
L 418.13483 173.030574 
L 419.243585 172.571134 
L 421.461094 170.811199 
L 422.569849 170.532755 
L 423.678604 170.9013 
L 424.787359 171.781001 
L 427.004868 173.041734 
L 428.113623 173.420004 
L 429.222378 173.097578 
L 431.439888 171.829119 
L 433.657397 170.699515 
L 434.766152 170.649862 
L 435.874907 171.505929 
L 436.983662 172.949557 
L 438.092417 173.997634 
L 440.309926 174.676429 
L 441.418681 174.736027 
L 442.527436 174.425123 
L 445.8537 172.306394 
L 446.962455 172.125348 
L 449.179965 172.676646 
L 450.288719 172.774411 
L 451.397474 173.492023 
L 452.506229 174.818151 
L 453.614984 175.435886 
L 454.723739 175.679235 
L 459.158758 174.54081 
L 460.267513 173.916561 
L 462.485022 173.319768 
L 465.811287 173.890178 
L 466.920042 174.497108 
L 468.028796 175.350797 
L 471.355061 174.78658 
L 472.463816 174.438665 
L 473.57257 173.96664 
L 475.79008 172.270233 
L 476.898835 170.913999 
L 478.00759 169.331621 
L 479.116344 168.825033 
L 480.225099 168.893224 
L 481.333854 169.935299 
L 483.551364 173.744451 
L 484.660119 175.116531 
L 485.768873 175.67955 
L 486.877628 175.535685 
L 487.986383 175.228175 
L 489.095138 174.382865 
L 490.203893 173.170858 
L 492.421402 171.790496 
L 493.530157 171.832029 
L 495.747667 173.838047 
L 496.856421 174.483957 
L 497.965176 174.869261 
L 499.073931 174.784404 
L 500.182686 173.938639 
L 502.400196 170.897345 
L 503.50895 169.67188 
L 504.617705 169.154565 
L 505.72646 170.305055 
L 506.835215 171.805488 
L 509.052724 175.426347 
L 510.161479 176.594018 
L 512.378989 177.611568 
L 513.487744 177.348074 
L 514.596498 176.556581 
L 515.705253 175.93485 
L 516.814008 174.890228 
L 517.922763 174.173861 
L 519.031518 173.930739 
L 520.140272 174.246817 
L 522.357782 175.63043 
L 523.466537 175.447796 
L 524.575292 175.567943 
L 525.684047 175.20527 
L 527.901556 173.557318 
L 529.010311 172.826099 
L 531.227821 170.303634 
L 532.336575 169.759377 
L 533.44533 170.61907 
L 534.554085 172.562842 
L 536.771595 175.173027 
L 537.880349 176.145343 
L 538.989104 176.836405 
L 540.097859 177.296584 
L 542.315369 177.12806 
L 544.532878 175.784392 
L 545.641633 174.935977 
L 546.750388 174.652428 
L 550.076652 177.187164 
L 551.185407 177.459144 
L 552.294162 177.591348 
L 553.402917 177.330087 
L 554.511672 176.276584 
L 555.620426 175.065343 
L 556.729181 174.310366 
L 557.837936 173.918959 
L 558.946691 174.454532 
L 561.1642 176.661134 
L 562.272955 177.504398 
L 563.38171 176.967221 
L 564.490465 175.540896 
L 565.59922 173.499235 
L 566.707975 170.551085 
L 567.816729 168.575868 
L 567.816729 168.575868 
" clip-path="url(#p248683ed9a)" style="fill: none; stroke: #16a34a; stroke-width: 1.7; stroke-linecap: square"/>
   </g>
   <g id="line2d_19">
    <path d="M 512.378989 303.011082 
L 512.378989 25.558281 
" clip-path="url(#p248683ed9a)" style="fill: none; stroke-dasharray: 6,4.5; stroke-dashoffset: 0; stroke: #f97316; stroke-width: 1.5"/>
   </g>
   <g id="patch_3">
    <path d="M 68.378125 303.011082 
L 68.378125 25.558281 
" style="fill: none; stroke: #94a3b8; stroke-width: 0.8; stroke-linejoin: miter; stroke-linecap: square"/>
   </g>
   <g id="patch_4">
    <path d="M 68.378125 303.011082 
L 591.59952 303.011082 
" style="fill: none; stroke: #94a3b8; stroke-width: 0.8; stroke-linejoin: miter; stroke-linecap: square"/>
   </g>
   <g id="text_11">
    <!-- Training curve -->
    <g style="fill: #0f172a" transform="translate(285.761088 15.558281) scale(0.11 -0.11)">
     <defs>
      <path id="DejaVuSans-Bold-54" d="M 31 4666 
L 4331 4666 
L 4331 3756 
L 2784 3756 
L 2784 0 
L 1581 0 
L 1581 3756 
L 31 3756 
L 31 4666 
z
" transform="scale(0.015625)"/>
      <path id="DejaVuSans-Bold-72" d="M 3138 2547 
Q 2991 2616 2845 2648 
Q 2700 2681 2553 2681 
Q 2122 2681 1889 2404 
Q 1656 2128 1656 1613 
L 1656 0 
L 538 0 
L 538 3500 
L 1656 3500 
L 1656 2925 
Q 1872 3269 2151 3426 
Q 2431 3584 2822 3584 
Q 2878 3584 2943 3579 
Q 3009 3575 3134 3559 
L 3138 2547 
z
" transform="scale(0.015625)"/>
      <path id="DejaVuSans-Bold-61" d="M 2106 1575 
Q 1756 1575 1579 1456 
Q 1403 1338 1403 1106 
Q 1403 894 1545 773 
Q 1688 653 1941 653 
Q 2256 653 2472 879 
Q 2688 1106 2688 1447 
L 2688 1575 
L 2106 1575 
z
M 3816 1997 
L 3816 0 
L 2688 0 
L 2688 519 
Q 2463 200 2181 54 
Q 1900 -91 1497 -91 
Q 953 -91 614 226 
Q 275 544 275 1050 
Q 275 1666 698 1953 
Q 1122 2241 2028 2241 
L 2688 2241 
L 2688 2328 
Q 2688 2594 2478 2717 
Q 2269 2841 1825 2841 
Q 1466 2841 1156 2769 
Q 847 2697 581 2553 
L 581 3406 
Q 941 3494 1303 3539 
Q 1666 3584 2028 3584 
Q 2975 3584 3395 3211 
Q 3816 2838 3816 1997 
z
" transform="scale(0.015625)"/>
      <path id="DejaVuSans-Bold-69" d="M 538 3500 
L 1656 3500 
L 1656 0 
L 538 0 
L 538 3500 
z
M 538 4863 
L 1656 4863 
L 1656 3950 
L 538 3950 
L 538 4863 
z
" transform="scale(0.015625)"/>
      <path id="DejaVuSans-Bold-6e" d="M 4056 2131 
L 4056 0 
L 2931 0 
L 2931 347 
L 2931 1631 
Q 2931 2084 2911 2256 
Q 2891 2428 2841 2509 
Q 2775 2619 2662 2680 
Q 2550 2741 2406 2741 
Q 2056 2741 1856 2470 
Q 1656 2200 1656 1722 
L 1656 0 
L 538 0 
L 538 3500 
L 1656 3500 
L 1656 2988 
Q 1909 3294 2193 3439 
Q 2478 3584 2822 3584 
Q 3428 3584 3742 3212 
Q 4056 2841 4056 2131 
z
" transform="scale(0.015625)"/>
      <path id="DejaVuSans-Bold-67" d="M 2919 594 
Q 2688 288 2409 144 
Q 2131 0 1766 0 
Q 1125 0 706 504 
Q 288 1009 288 1791 
Q 288 2575 706 3076 
Q 1125 3578 1766 3578 
Q 2131 3578 2409 3434 
Q 2688 3291 2919 2981 
L 2919 3500 
L 4044 3500 
L 4044 353 
Q 4044 -491 3511 -936 
Q 2978 -1381 1966 -1381 
Q 1638 -1381 1331 -1331 
Q 1025 -1281 716 -1178 
L 716 -306 
Q 1009 -475 1290 -558 
Q 1572 -641 1856 -641 
Q 2406 -641 2662 -400 
Q 2919 -159 2919 353 
L 2919 594 
z
M 2181 2772 
Q 1834 2772 1640 2515 
Q 1447 2259 1447 1791 
Q 1447 1309 1634 1061 
Q 1822 813 2181 813 
Q 2531 813 2725 1069 
Q 2919 1325 2919 1791 
Q 2919 2259 2725 2515 
Q 2531 2772 2181 2772 
z
" transform="scale(0.015625)"/>
      <path id="DejaVuSans-Bold-20" transform="scale(0.015625)"/>
      <path id="DejaVuSans-Bold-63" d="M 3366 3391 
L 3366 2478 
Q 3138 2634 2908 2709 
Q 2678 2784 2431 2784 
Q 1963 2784 1702 2511 
Q 1441 2238 1441 1747 
Q 1441 1256 1702 982 
Q 1963 709 2431 709 
Q 2694 709 2930 787 
Q 3166 866 3366 1019 
L 3366 103 
Q 3103 6 2833 -42 
Q 2563 -91 2291 -91 
Q 1344 -91 809 395 
Q 275 881 275 1747 
Q 275 2613 809 3098 
Q 1344 3584 2291 3584 
Q 2566 3584 2833 3536 
Q 3100 3488 3366 3391 
z
" transform="scale(0.015625)"/>
      <path id="DejaVuSans-Bold-75" d="M 500 1363 
L 500 3500 
L 1625 3500 
L 1625 3150 
Q 1625 2866 1622 2436 
Q 1619 2006 1619 1863 
Q 1619 1441 1641 1255 
Q 1663 1069 1716 984 
Q 1784 875 1895 815 
Q 2006 756 2150 756 
Q 2500 756 2700 1025 
Q 2900 1294 2900 1772 
L 2900 3500 
L 4019 3500 
L 4019 0 
L 2900 0 
L 2900 506 
Q 2647 200 2364 54 
Q 2081 -91 1741 -91 
Q 1134 -91 817 281 
Q 500 653 500 1363 
z
" transform="scale(0.015625)"/>
      <path id="DejaVuSans-Bold-76" d="M 97 3500 
L 1216 3500 
L 2088 1081 
L 2956 3500 
L 4078 3500 
L 2700 0 
L 1472 0 
L 97 3500 
z
" transform="scale(0.015625)"/>
      <path id="DejaVuSans-Bold-65" d="M 4031 1759 
L 4031 1441 
L 1416 1441 
Q 1456 1047 1700 850 
Q 1944 653 2381 653 
Q 2734 653 3104 758 
Q 3475 863 3866 1075 
L 3866 213 
Q 3469 63 3072 -14 
Q 2675 -91 2278 -91 
Q 1328 -91 801 392 
Q 275 875 275 1747 
Q 275 2603 792 3093 
Q 1309 3584 2216 3584 
Q 3041 3584 3536 3087 
Q 4031 2591 4031 1759 
z
M 2881 2131 
Q 2881 2450 2695 2645 
Q 2509 2841 2209 2841 
Q 1884 2841 1681 2658 
Q 1478 2475 1428 2131 
L 2881 2131 
z
" transform="scale(0.015625)"/>
     </defs>
     <use xlink:href="#DejaVuSans-Bold-54"/>
     <use xlink:href="#DejaVuSans-Bold-72" transform="translate(57.212891 0)"/>
     <use xlink:href="#DejaVuSans-Bold-61" transform="translate(106.529297 0)"/>
     <use xlink:href="#DejaVuSans-Bold-69" transform="translate(174.009766 0)"/>
     <use xlink:href="#DejaVuSans-Bold-6e" transform="translate(208.287109 0)"/>
     <use xlink:href="#DejaVuSans-Bold-69" transform="translate(279.478516 0)"/>
     <use xlink:href="#DejaVuSans-Bold-6e" transform="translate(313.755859 0)"/>
     <use xlink:href="#DejaVuSans-Bold-67" transform="translate(384.947266 0)"/>
     <use xlink:href="#DejaVuSans-Bold-20" transform="translate(456.529297 0)"/>
     <use xlink:href="#DejaVuSans-Bold-63" transform="translate(491.34375 0)"/>
     <use xlink:href="#DejaVuSans-Bold-75" transform="translate(550.621094 0)"/>
     <use xlink:href="#DejaVuSans-Bold-72" transform="translate(621.8125 0)"/>
     <use xlink:href="#DejaVuSans-Bold-76" transform="translate(671.128906 0)"/>
     <use xlink:href="#DejaVuSans-Bold-65" transform="translate(736.314453 0)"/>
    </g>
   </g>
   <g id="legend_1">
    <g id="patch_5">
     <path d="M 74.678125 298.511082 
L 168.165625 298.511082 
Q 169.965625 298.511082 169.965625 296.711082 
L 169.965625 257.980145 
Q 169.965625 256.180145 168.165625 256.180145 
L 74.678125 256.180145 
Q 72.878125 256.180145 72.878125 257.980145 
L 72.878125 296.711082 
Q 72.878125 298.511082 74.678125 298.511082 
z
" style="fill: #ffffff; opacity: 0.8; stroke: #cbd5e1; stroke-linejoin: miter"/>
    </g>
    <g id="line2d_20">
     <path d="M 76.478125 263.468739 
L 85.478125 263.468739 
L 94.478125 263.468739 
" style="fill: none; stroke: #2563eb; stroke-width: 1.7; stroke-linecap: square"/>
    </g>
    <g id="text_12">
     <!-- Train loss -->
     <g transform="translate(101.678125 266.618739) scale(0.09 -0.09)">
      <defs>
       <path id="DejaVuSans-54" d="M -19 4666 
L 3928 4666 
L 3928 4134 
L 2272 4134 
L 2272 0 
L 1638 0 
L 1638 4134 
L -19 4134 
L -19 4666 
z
" transform="scale(0.015625)"/>
       <path id="DejaVuSans-72" d="M 2631 2963 
Q 2534 3019 2420 3045 
Q 2306 3072 2169 3072 
Q 1681 3072 1420 2755 
Q 1159 2438 1159 1844 
L 1159 0 
L 581 0 
L 581 3500 
L 1159 3500 
L 1159 2956 
Q 1341 3275 1631 3429 
Q 1922 3584 2338 3584 
Q 2397 3584 2469 3576 
Q 2541 3569 2628 3553 
L 2631 2963 
z
" transform="scale(0.015625)"/>
       <path id="DejaVuSans-61" d="M 2194 1759 
Q 1497 1759 1228 1600 
Q 959 1441 959 1056 
Q 959 750 1161 570 
Q 1363 391 1709 391 
Q 2188 391 2477 730 
Q 2766 1069 2766 1631 
L 2766 1759 
L 2194 1759 
z
M 3341 1997 
L 3341 0 
L 2766 0 
L 2766 531 
Q 2569 213 2275 61 
Q 1981 -91 1556 -91 
Q 1019 -91 701 211 
Q 384 513 384 1019 
Q 384 1609 779 1909 
Q 1175 2209 1959 2209 
L 2766 2209 
L 2766 2266 
Q 2766 2663 2505 2880 
Q 2244 3097 1772 3097 
Q 1472 3097 1187 3025 
Q 903 2953 641 2809 
L 641 3341 
Q 956 3463 1253 3523 
Q 1550 3584 1831 3584 
Q 2591 3584 2966 3190 
Q 3341 2797 3341 1997 
z
" transform="scale(0.015625)"/>
       <path id="DejaVuSans-69" d="M 603 3500 
L 1178 3500 
L 1178 0 
L 603 0 
L 603 3500 
z
M 603 4863 
L 1178 4863 
L 1178 4134 
L 603 4134 
L 603 4863 
z
" transform="scale(0.015625)"/>
       <path id="DejaVuSans-6e" d="M 3513 2113 
L 3513 0 
L 2938 0 
L 2938 2094 
Q 2938 2591 2744 2837 
Q 2550 3084 2163 3084 
Q 1697 3084 1428 2787 
Q 1159 2491 1159 1978 
L 1159 0 
L 581 0 
L 581 3500 
L 1159 3500 
L 1159 2956 
Q 1366 3272 1645 3428 
Q 1925 3584 2291 3584 
Q 2894 3584 3203 3211 
Q 3513 2838 3513 2113 
z
" transform="scale(0.015625)"/>
      </defs>
      <use xlink:href="#DejaVuSans-54"/>
      <use xlink:href="#DejaVuSans-72" transform="translate(46.333984 0)"/>
      <use xlink:href="#DejaVuSans-61" transform="translate(87.447266 0)"/>
      <use xlink:href="#DejaVuSans-69" transform="translate(148.726562 0)"/>
      <use xlink:href="#DejaVuSans-6e" transform="translate(176.509766 0)"/>
      <use xlink:href="#DejaVuSans-20" transform="translate(239.888672 0)"/>
      <use xlink:href="#DejaVuSans-6c" transform="translate(271.675781 0)"/>
      <use xlink:href="#DejaVuSans-6f" transform="translate(299.458984 0)"/>
      <use xlink:href="#DejaVuSans-73" transform="translate(360.640625 0)"/>
      <use xlink:href="#DejaVuSans-73" transform="translate(412.740234 0)"/>
     </g>
    </g>
    <g id="line2d_21">
     <path d="M 76.478125 276.679051 
L 85.478125 276.679051 
L 94.478125 276.679051 
" style="fill: none; stroke: #16a34a; stroke-width: 1.7; stroke-linecap: square"/>
    </g>
    <g id="text_13">
     <!-- Validation loss -->
     <g transform="translate(101.678125 279.829051) scale(0.09 -0.09)">
      <defs>
       <path id="DejaVuSans-56" d="M 1831 0 
L 50 4666 
L 709 4666 
L 2188 738 
L 3669 4666 
L 4325 4666 
L 2547 0 
L 1831 0 
z
" transform="scale(0.015625)"/>
       <path id="DejaVuSans-64" d="M 2906 2969 
L 2906 4863 
L 3481 4863 
L 3481 0 
L 2906 0 
L 2906 525 
Q 2725 213 2448 61 
Q 2172 -91 1784 -91 
Q 1150 -91 751 415 
Q 353 922 353 1747 
Q 353 2572 751 3078 
Q 1150 3584 1784 3584 
Q 2172 3584 2448 3432 
Q 2725 3281 2906 2969 
z
M 947 1747 
Q 947 1113 1208 752 
Q 1469 391 1925 391 
Q 2381 391 2643 752 
Q 2906 1113 2906 1747 
Q 2906 2381 2643 2742 
Q 2381 3103 1925 3103 
Q 1469 3103 1208 2742 
Q 947 2381 947 1747 
z
" transform="scale(0.015625)"/>
       <path id="DejaVuSans-74" d="M 1172 4494 
L 1172 3500 
L 2356 3500 
L 2356 3053 
L 1172 3053 
L 1172 1153 
Q 1172 725 1289 603 
Q 1406 481 1766 481 
L 2356 481 
L 2356 0 
L 1766 0 
Q 1100 0 847 248 
Q 594 497 594 1153 
L 594 3053 
L 172 3053 
L 172 3500 
L 594 3500 
L 594 4494 
L 1172 4494 
z
" transform="scale(0.015625)"/>
      </defs>
      <use xlink:href="#DejaVuSans-56"/>
      <use xlink:href="#DejaVuSans-61" transform="translate(60.658203 0)"/>
      <use xlink:href="#DejaVuSans-6c" transform="translate(121.9375 0)"/>
      <use xlink:href="#DejaVuSans-69" transform="translate(149.720703 0)"/>
      <use xlink:href="#DejaVuSans-64" transform="translate(177.503906 0)"/>
      <use xlink:href="#DejaVuSans-61" transform="translate(240.980469 0)"/>
      <use xlink:href="#DejaVuSans-74" transform="translate(302.259766 0)"/>
      <use xlink:href="#DejaVuSans-69" transform="translate(341.46875 0)"/>
      <use xlink:href="#DejaVuSans-6f" transform="translate(369.251953 0)"/>
      <use xlink:href="#DejaVuSans-6e" transform="translate(430.433594 0)"/>
      <use xlink:href="#DejaVuSans-20" transform="translate(493.8125 0)"/>
      <use xlink:href="#DejaVuSans-6c" transform="translate(525.599609 0)"/>
      <use xlink:href="#DejaVuSans-6f" transform="translate(553.382812 0)"/>
      <use xlink:href="#DejaVuSans-73" transform="translate(614.564453 0)"/>
      <use xlink:href="#DejaVuSans-73" transform="translate(666.664062 0)"/>
     </g>
    </g>
    <g id="line2d_22">
     <path d="M 76.478125 289.889364 
L 85.478125 289.889364 
L 94.478125 289.889364 
" style="fill: none; stroke-dasharray: 6,4.5; stroke-dashoffset: 0; stroke: #f97316; stroke-width: 1.5"/>
    </g>
    <g id="text_14">
     <!-- Best epoch -->
     <g transform="translate(101.678125 293.039364) scale(0.09 -0.09)">
      <defs>
       <path id="DejaVuSans-42" d="M 1259 2228 
L 1259 519 
L 2272 519 
Q 2781 519 3026 730 
Q 3272 941 3272 1375 
Q 3272 1813 3026 2020 
Q 2781 2228 2272 2228 
L 1259 2228 
z
M 1259 4147 
L 1259 2741 
L 2194 2741 
Q 2656 2741 2882 2914 
Q 3109 3088 3109 3444 
Q 3109 3797 2882 3972 
Q 2656 4147 2194 4147 
L 1259 4147 
z
M 628 4666 
L 2241 4666 
Q 2963 4666 3353 4366 
Q 3744 4066 3744 3513 
Q 3744 3084 3544 2831 
Q 3344 2578 2956 2516 
Q 3422 2416 3680 2098 
Q 3938 1781 3938 1306 
Q 3938 681 3513 340 
Q 3088 0 2303 0 
L 628 0 
L 628 4666 
z
" transform="scale(0.015625)"/>
       <path id="DejaVuSans-65" d="M 3597 1894 
L 3597 1613 
L 953 1613 
Q 991 1019 1311 708 
Q 1631 397 2203 397 
Q 2534 397 2845 478 
Q 3156 559 3463 722 
L 3463 178 
Q 3153 47 2828 -22 
Q 2503 -91 2169 -91 
Q 1331 -91 842 396 
Q 353 884 353 1716 
Q 353 2575 817 3079 
Q 1281 3584 2069 3584 
Q 2775 3584 3186 3129 
Q 3597 2675 3597 1894 
z
M 3022 2063 
Q 3016 2534 2758 2815 
Q 2500 3097 2075 3097 
Q 1594 3097 1305 2825 
Q 1016 2553 972 2059 
L 3022 2063 
z
" transform="scale(0.015625)"/>
      </defs>
      <use xlink:href="#DejaVuSans-42"/>
      <use xlink:href="#DejaVuSans-65" transform="translate(68.603516 0)"/>
      <use xlink:href="#DejaVuSans-73" transform="translate(130.126953 0)"/>
      <use xlink:href="#DejaVuSans-74" transform="translate(182.226562 0)"/>
      <use xlink:href="#DejaVuSans-20" transform="translate(221.435547 0)"/>
      <use xlink:href="#DejaVuSans-65" transform="translate(253.222656 0)"/>
      <use xlink:href="#DejaVuSans-70" transform="translate(314.746094 0)"/>
      <use xlink:href="#DejaVuSans-6f" transform="translate(378.222656 0)"/>
      <use xlink:href="#DejaVuSans-63" transform="translate(439.404297 0)"/>
      <use xlink:href="#DejaVuSans-68" transform="translate(494.384766 0)"/>
     </g>
    </g>
   </g>
  </g>
 </g>
 <defs>
  <clipPath id="p248683ed9a">
   <rect x="68.378125" y="25.558281" width="523.221395" height="277.452801"/>
  </clipPath>
 </defs>
</svg>
