<?xml version="1.0" encoding="utf-8" standalone="no"?>
<!DOCTYPE svg PUBLIC "-//W3C//DTD SVG 1.1//EN"
  "http://www.w3.org/Graphics/SVG/1.1/DTD/svg11.dtd">
<svg xmlns:xlink="http://www.w3.org/1999/xlink" width="598.79952pt" height="339.59952pt" viewBox="0 0 598.79952 339.59952" xmlns="http://www.w3.org/2000/svg" version="1.1">
 <metadata>
  <rdf:RDF xmlns:dc="http://purl.org/dc/elements/1.1/" xmlns:cc="http://creativecommons.org/ns#" xmlns:rdf="http://www.w3.org/1999/02/22-rdf-syntax-ns#">
   <cc:Work>
    <dc:type rdf:resource="http://purl.org/dc/dcmitype/StillImage"/>
    <dc:date>2026-07-19T18:40:14.882552</dc:date>
    <dc:format>image/svg+xml</dc:format>
    <dc:creator>
     <cc:Agent>
      <dc:title>Matplotlib v3.11.1, https://matplotlib.org/</dc:title>
     </cc:Agent>
    </dc:creator>
   </cc:Work>
  </rdf:RDF>
 </metadata>
 <defs>
  <style type="text/css">*{stroke-linejoin: round; stroke-linecap: butt}</style>
 </defs>
 <g id="figure_1">
  <g id="patch_1">
   <path d="M 0 339.59952 
L 598.79952 339.59952 
L 598.79952 0 
L 0 0 
z
" style="fill: #ffffff"/>
  </g>
  <g id="axes_1">
   <g id="patch_2">
    <path d="M 68.700781 302.398739 
L 591.59952 302.398739 
L 591.59952 25.558281 
L 68.700781 25.558281 
z
" style="fill: #f8fafc"/>
   </g>
   <g id="matplotlib.axis_1">
    <g id="xtick_1">
     <g id="line2d_1">
      <path d="M 92.468906 302.398739 
L 92.468906 25.558281 
" clip-path="url(#p3bae4c938d)" style="fill: none; stroke: #e2e8f0; stroke-width: 0.8; stroke-linecap: square"/>
     </g>
     <g id="line2d_2">
      <defs>
       <path id="m971876f3d6" d="M 0 0 
L 0 3.5 
" style="stroke: #64748b; stroke-width: 0.8"/>
      </defs>
      <g>
       <use xlink:href="#m971876f3d6" x="92.468906" y="302.398739" style="fill: #64748b; stroke: #64748b; stroke-width: 0.8"/>
      </g>
     </g>
     <g id="text_1">
      <!-- 0 -->
      <g style="fill: #64748b" transform="translate(89.605781 316.236629) scale(0.09 -0.09)">
       <defs>
        <path id="DejaVuSans-13" d="M 2034 4250 
Q 1547 4250 1301 3770 
Q 1056 3291 1056 2328 
Q 1056 1369 1301 889 
Q 1547 409 2034 409 
Q 2525 409 2770 889 
Q 3016 1369 3016 2328 
Q 3016 3291 2770 3770 
Q 2525 4250 2034 4250 
z
M 2034 4750 
Q 2819 4750 3233 4129 
Q 3647 3509 3647 2328 
Q 3647 1150 3233 529 
Q 2819 -91 2034 -91 
Q 1250 -91 836 529 
Q 422 1150 422 2328 
Q 422 3509 836 4129 
Q 1250 4750 2034 4750 
z
" transform="scale(0.015625)"/>
       </defs>
       <use xlink:href="#DejaVuSans-13"/>
      </g>
     </g>
    </g>
    <g id="xtick_2">
     <g id="line2d_3">
      <path d="M 164.059642 302.398739 
L 164.059642 25.558281 
" clip-path="url(#p3bae4c938d)" style="fill: none; stroke: #e2e8f0; stroke-width: 0.8; stroke-linecap: square"/>
     </g>
     <g id="line2d_4">
      <g>
       <use xlink:href="#m971876f3d6" x="164.059642" y="302.398739" style="fill: #64748b; stroke: #64748b; stroke-width: 0.8"/>
      </g>
     </g>
     <g id="text_2">
      <!-- 50 -->
      <g style="fill: #64748b" transform="translate(158.333392 316.236629) scale(0.09 -0.09)">
       <defs>
        <path id="DejaVuSans-18" d="M 691 4666 
L 3169 4666 
L 3169 4134 
L 1269 4134 
L 1269 2991 
Q 1406 3038 1543 3061 
Q 1681 3084 1819 3084 
Q 2600 3084 3056 2656 
Q 3513 2228 3513 1497 
Q 3513 744 3044 326 
Q 2575 -91 1722 -91 
Q 1428 -91 1123 -41 
Q 819 9 494 109 
L 494 744 
Q 775 591 1075 516 
Q 1375 441 1709 441 
Q 2250 441 2565 725 
Q 2881 1009 2881 1497 
Q 2881 1984 2565 2268 
Q 2250 2553 1709 2553 
Q 1456 2553 1204 2497 
Q 953 2441 691 2322 
L 691 4666 
z
" transform="scale(0.015625)"/>
       </defs>
       <use xlink:href="#DejaVuSans-18"/>
       <use xlink:href="#DejaVuSans-13" transform="translate(63.625 0)"/>
      </g>
     </g>
    </g>
    <g id="xtick_3">
     <g id="line2d_5">
      <path d="M 235.650379 302.398739 
L 235.650379 25.558281 
" clip-path="url(#p3bae4c938d)" style="fill: none; stroke: #e2e8f0; stroke-width: 0.8; stroke-linecap: square"/>
     </g>
     <g id="line2d_6">
      <g>
       <use xlink:href="#m971876f3d6" x="235.650379" y="302.398739" style="fill: #64748b; stroke: #64748b; stroke-width: 0.8"/>
      </g>
     </g>
     <g id="text_3">
      <!-- 100 -->
      <g style="fill: #64748b" transform="translate(227.061004 316.236629) scale(0.09 -0.09)">
       <defs>
        <path id="DejaVuSans-14" d="M 794 531 
L 1825 531 
L 1825 4091 
L 703 3866 
L 703 4441 
L 1819 4666 
L 2450 4666 
L 2450 531 
L 3481 531 
L 3481 0 
L 794 0 
L 794 531 
z
" transform="scale(0.015625)"/>
       </defs>
       <use xlink:href="#DejaVuSans-14"/>
       <use xlink:href="#DejaVuSans-13" transform="translate(63.625 0)"/>
       <use xlink:href="#DejaVuSans-13" transform="translate(127.25 0)"/>
      </g>
     </g>
    </g>
    <g id="xtick_4">
     <g id="line2d_7">
      <path d="M 307.241115 302.398739 
L 307.241115 25.558281 
" clip-path="url(#p3bae4c938d)" style="fill: none; stroke: #e2e8f0; stroke-width: 0.8; stroke-linecap: square"/>
     </g>
     <g id="line2d_8">
      <g>
       <use xlink:href="#m971876f3d6" x="307.241115" y="302.398739" style="fill: #64748b; stroke: #64748b; stroke-width: 0.8"/>
      </g>
     </g>
     <g id="text_4">
      <!-- 150 -->
      <g style="fill: #64748b" transform="translate(298.65174 316.236629) scale(0.09 -0.09)">
       <use xlink:href="#DejaVuSans-14"/>
       <use xlink:href="#DejaVuSans-18" transform="translate(63.625 0)"/>
       <use xlink:href="#DejaVuSans-13" transform="translate(127.25 0)"/>
      </g>
     </g>
    </g>
    <g id="xtick_5">
     <g id="line2d_9">
      <path d="M 378.831851 302.398739 
L 378.831851 25.558281 
" clip-path="url(#p3bae4c938d)" style="fill: none; stroke: #e2e8f0; stroke-width: 0.8; stroke-linecap: square"/>
     </g>
     <g id="line2d_10">
      <g>
       <use xlink:href="#m971876f3d6" x="378.831851" y="302.398739" style="fill: #64748b; stroke: #64748b; stroke-width: 0.8"/>
      </g>
     </g>
     <g id="text_5">
      <!-- 200 -->
      <g style="fill: #64748b" transform="translate(370.242476 316.236629) scale(0.09 -0.09)">
       <defs>
        <path id="DejaVuSans-15" d="M 1228 531 
L 3431 531 
L 3431 0 
L 469 0 
L 469 531 
Q 828 903 1448 1529 
Q 2069 2156 2228 2338 
Q 2531 2678 2651 2914 
Q 2772 3150 2772 3378 
Q 2772 3750 2511 3984 
Q 2250 4219 1831 4219 
Q 1534 4219 1204 4116 
Q 875 4013 500 3803 
L 500 4441 
Q 881 4594 1212 4672 
Q 1544 4750 1819 4750 
Q 2544 4750 2975 4387 
Q 3406 4025 3406 3419 
Q 3406 3131 3298 2873 
Q 3191 2616 2906 2266 
Q 2828 2175 2409 1742 
Q 1991 1309 1228 531 
z
" transform="scale(0.015625)"/>
       </defs>
       <use xlink:href="#DejaVuSans-15"/>
       <use xlink:href="#DejaVuSans-13" transform="translate(63.625 0)"/>
       <use xlink:href="#DejaVuSans-13" transform="translate(127.25 0)"/>
      </g>
     </g>
    </g>
    <g id="xtick_6">
     <g id="line2d_11">
      <path d="M 450.422588 302.398739 
L 450.422588 25.558281 
" clip-path="url(#p3bae4c938d)" style="fill: none; stroke: #e2e8f0; stroke-width: 0.8; stroke-linecap: square"/>
     </g>
     <g id="line2d_12">
      <g>
       <use xlink:href="#m971876f3d6" x="450.422588" y="302.398739" style="fill: #64748b; stroke: #64748b; stroke-width: 0.8"/>
      </g>
     </g>
     <g id="text_6">
      <!-- 250 -->
      <g style="fill: #64748b" transform="translate(441.833213 316.236629) scale(0.09 -0.09)">
       <use xlink:href="#DejaVuSans-15"/>
       <use xlink:href="#DejaVuSans-18" transform="translate(63.625 0)"/>
       <use xlink:href="#DejaVuSans-13" transform="translate(127.25 0)"/>
      </g>
     </g>
    </g>
    <g id="xtick_7">
     <g id="line2d_13">
      <path d="M 522.013324 302.398739 
L 522.013324 25.558281 
" clip-path="url(#p3bae4c938d)" style="fill: none; stroke: #e2e8f0; stroke-width: 0.8; stroke-linecap: square"/>
     </g>
     <g id="line2d_14">
      <g>
       <use xlink:href="#m971876f3d6" x="522.013324" y="302.398739" style="fill: #64748b; stroke: #64748b; stroke-width: 0.8"/>
      </g>
     </g>
     <g id="text_7">
      <!-- 300 -->
      <g style="fill: #64748b" transform="translate(513.423949 316.236629) scale(0.09 -0.09)">
       <defs>
        <path id="DejaVuSans-16" d="M 2597 2516 
Q 3050 2419 3304 2112 
Q 3559 1806 3559 1356 
Q 3559 666 3084 287 
Q 2609 -91 1734 -91 
Q 1441 -91 1130 -33 
Q 819 25 488 141 
L 488 750 
Q 750 597 1062 519 
Q 1375 441 1716 441 
Q 2309 441 2620 675 
Q 2931 909 2931 1356 
Q 2931 1769 2642 2001 
Q 2353 2234 1838 2234 
L 1294 2234 
L 1294 2753 
L 1863 2753 
Q 2328 2753 2575 2939 
Q 2822 3125 2822 3475 
Q 2822 3834 2567 4026 
Q 2313 4219 1838 4219 
Q 1578 4219 1281 4162 
Q 984 4106 628 3988 
L 628 4550 
Q 988 4650 1302 4700 
Q 1616 4750 1894 4750 
Q 2613 4750 3031 4423 
Q 3450 4097 3450 3541 
Q 3450 3153 3228 2886 
Q 3006 2619 2597 2516 
z
" transform="scale(0.015625)"/>
       </defs>
       <use xlink:href="#DejaVuSans-16"/>
       <use xlink:href="#DejaVuSans-13" transform="translate(63.625 0)"/>
       <use xlink:href="#DejaVuSans-13" transform="translate(127.25 0)"/>
      </g>
     </g>
    </g>
    <g id="text_8">
     <!-- Epoch -->
     <g style="fill: #334155" transform="translate(314.839213 329.997176) scale(0.1 -0.1)">
      <defs>
       <path id="DejaVuSans-28" d="M 628 4666 
L 3578 4666 
L 3578 4134 
L 1259 4134 
L 1259 2753 
L 3481 2753 
L 3481 2222 
L 1259 2222 
L 1259 531 
L 3634 531 
L 3634 0 
L 628 0 
L 628 4666 
z
" transform="scale(0.015625)"/>
       <path id="DejaVuSans-53" d="M 1159 525 
L 1159 -1331 
L 581 -1331 
L 581 3500 
L 1159 3500 
L 1159 2969 
Q 1341 3281 1617 3432 
Q 1894 3584 2278 3584 
Q 2916 3584 3314 3078 
Q 3713 2572 3713 1747 
Q 3713 922 3314 415 
Q 2916 -91 2278 -91 
Q 1894 -91 1617 61 
Q 1341 213 1159 525 
z
M 3116 1747 
Q 3116 2381 2855 2742 
Q 2594 3103 2138 3103 
Q 1681 3103 1420 2742 
Q 1159 2381 1159 1747 
Q 1159 1113 1420 752 
Q 1681 391 2138 391 
Q 2594 391 2855 752 
Q 3116 1113 3116 1747 
z
" transform="scale(0.015625)"/>
       <path id="DejaVuSans-52" d="M 1959 3097 
Q 1497 3097 1228 2736 
Q 959 2375 959 1747 
Q 959 1119 1226 758 
Q 1494 397 1959 397 
Q 2419 397 2687 759 
Q 2956 1122 2956 1747 
Q 2956 2369 2687 2733 
Q 2419 3097 1959 3097 
z
M 1959 3584 
Q 2709 3584 3137 3096 
Q 3566 2609 3566 1747 
Q 3566 888 3137 398 
Q 2709 -91 1959 -91 
Q 1206 -91 779 398 
Q 353 888 353 1747 
Q 353 2609 779 3096 
Q 1206 3584 1959 3584 
z
" transform="scale(0.015625)"/>
       <path id="DejaVuSans-46" d="M 3122 3366 
L 3122 2828 
Q 2878 2963 2633 3030 
Q 2388 3097 2138 3097 
Q 1578 3097 1268 2742 
Q 959 2388 959 1747 
Q 959 1106 1268 751 
Q 1578 397 2138 397 
Q 2388 397 2633 464 
Q 2878 531 3122 666 
L 3122 134 
Q 2881 22 2623 -34 
Q 2366 -91 2075 -91 
Q 1284 -91 818 406 
Q 353 903 353 1747 
Q 353 2603 823 3093 
Q 1294 3584 2113 3584 
Q 2378 3584 2631 3529 
Q 2884 3475 3122 3366 
z
" transform="scale(0.015625)"/>
       <path id="DejaVuSans-4b" d="M 3513 2113 
L 3513 0 
L 2938 0 
L 2938 2094 
Q 2938 2591 2744 2837 
Q 2550 3084 2163 3084 
Q 1697 3084 1428 2787 
Q 1159 2491 1159 1978 
L 1159 0 
L 581 0 
L 581 4863 
L 1159 4863 
L 1159 2956 
Q 1366 3272 1645 3428 
Q 1925 3584 2291 3584 
Q 2894 3584 3203 3211 
Q 3513 2838 3513 2113 
z
" transform="scale(0.015625)"/>
      </defs>
      <use xlink:href="#DejaVuSans-28"/>
      <use xlink:href="#DejaVuSans-53" transform="translate(63.1875 0)"/>
      <use xlink:href="#DejaVuSans-52" transform="translate(126.671875 0)"/>
      <use xlink:href="#DejaVuSans-46" transform="translate(187.859375 0)"/>
      <use xlink:href="#DejaVuSans-4b" transform="translate(242.84375 0)"/>
     </g>
    </g>
   </g>
   <g id="matplotlib.axis_2">
    <g id="ytick_1">
     <g id="line2d_15">
      <path d="M 68.700781 116.944002 
L 591.59952 116.944002 
" clip-path="url(#p3bae4c938d)" style="fill: none; stroke: #e2e8f0; stroke-width: 0.8; stroke-linecap: square"/>
     </g>
     <g id="line2d_16">
      <defs>
       <path id="m246cf0fe38" d="M 0 0 
L -3.5 0 
" style="stroke: #64748b; stroke-width: 0.8"/>
      </defs>
      <g>
       <use xlink:href="#m246cf0fe38" x="68.700781" y="116.944002" style="fill: #64748b; stroke: #64748b; stroke-width: 0.8"/>
      </g>
     </g>
     <g id="text_9">
      <!-- $\mathdefault{10^{-2}}$ -->
      <g style="fill: #64748b" transform="translate(40.550781 121.174002) scale(0.09 -0.09)">
       <defs>
        <path id="DejaVuSans-c9c" d="M 678 2272 
L 4684 2272 
L 4684 1741 
L 678 1741 
L 678 2272 
z
" transform="scale(0.015625)"/>
       </defs>
       <use xlink:href="#DejaVuSans-14" transform="translate(0 0.746875)"/>
       <use xlink:href="#DejaVuSans-13" transform="translate(63.623047 0.746875)"/>
       <use xlink:href="#DejaVuSans-c9c" transform="translate(128.203125 42.046875) scale(0.7)"/>
       <use xlink:href="#DejaVuSans-15" transform="translate(186.855469 42.046875) scale(0.7)"/>
      </g>
     </g>
    </g>
    <g id="ytick_2">
     <g id="line2d_17">
      <defs>
       <path id="m219544f679" d="M 0 0 
L -2 0 
" style="stroke: #64748b; stroke-width: 0.6"/>
      </defs>
      <g>
       <use xlink:href="#m219544f679" x="68.700781" y="285.470166" style="fill: #64748b; stroke: #64748b; stroke-width: 0.6"/>
      </g>
     </g>
     <g id="text_10">
      <!-- $\mathdefault{3\times10^{-3}}$ -->
      <g style="fill: #64748b" transform="translate(21.200781 290.170166) scale(0.1 -0.1)">
       <defs>
        <path id="DejaVuSans-99" d="M 4488 3438 
L 3059 2003 
L 4488 575 
L 4116 197 
L 2681 1631 
L 1247 197 
L 878 575 
L 2303 2003 
L 878 3438 
L 1247 3816 
L 2681 2381 
L 4116 3816 
L 4488 3438 
z
" transform="scale(0.015625)"/>
       </defs>
       <use xlink:href="#DejaVuSans-16" transform="translate(0 0.746875)"/>
       <use xlink:href="#DejaVuSans-99" transform="translate(83.105469 0.746875)"/>
       <use xlink:href="#DejaVuSans-14" transform="translate(186.376953 0.746875)"/>
       <use xlink:href="#DejaVuSans-13" transform="translate(250 0.746875)"/>
       <use xlink:href="#DejaVuSans-c9c" transform="translate(314.580078 42.046875) scale(0.7)"/>
       <use xlink:href="#DejaVuSans-16" transform="translate(373.232422 42.046875) scale(0.7)"/>
      </g>
     </g>
    </g>
    <g id="ytick_3">
     <g id="line2d_18">
      <g>
       <use xlink:href="#m219544f679" x="68.700781" y="245.201851" style="fill: #64748b; stroke: #64748b; stroke-width: 0.6"/>
      </g>
     </g>
     <g id="text_11">
      <!-- $\mathdefault{4\times10^{-3}}$ -->
      <g style="fill: #64748b" transform="translate(21.200781 249.901851) scale(0.1 -0.1)">
       <defs>
        <path id="DejaVuSans-17" d="M 2419 4116 
L 825 1625 
L 2419 1625 
L 2419 4116 
z
M 2253 4666 
L 3047 4666 
L 3047 1625 
L 3713 1625 
L 3713 1100 
L 3047 1100 
L 3047 0 
L 2419 0 
L 2419 1100 
L 313 1100 
L 313 1709 
L 2253 4666 
z
" transform="scale(0.015625)"/>
       </defs>
       <use xlink:href="#DejaVuSans-17" transform="translate(0 0.746875)"/>
       <use xlink:href="#DejaVuSans-99" transform="translate(83.105469 0.746875)"/>
       <use xlink:href="#DejaVuSans-14" transform="translate(186.376953 0.746875)"/>
       <use xlink:href="#DejaVuSans-13" transform="translate(250 0.746875)"/>
       <use xlink:href="#DejaVuSans-c9c" transform="translate(314.580078 42.046875) scale(0.7)"/>
       <use xlink:href="#DejaVuSans-16" transform="translate(373.232422 42.046875) scale(0.7)"/>
      </g>
     </g>
    </g>
    <g id="ytick_4">
     <g id="line2d_19">
      <g>
       <use xlink:href="#m219544f679" x="68.700781" y="213.967319" style="fill: #64748b; stroke: #64748b; stroke-width: 0.6"/>
      </g>
     </g>
    </g>
    <g id="ytick_5">
     <g id="line2d_20">
      <g>
       <use xlink:href="#m219544f679" x="68.700781" y="188.446849" style="fill: #64748b; stroke: #64748b; stroke-width: 0.6"/>
      </g>
     </g>
     <g id="text_12">
      <!-- $\mathdefault{6\times10^{-3}}$ -->
      <g style="fill: #64748b" transform="translate(21.200781 193.146849) scale(0.1 -0.1)">
       <defs>
        <path id="DejaVuSans-19" d="M 2113 2584 
Q 1688 2584 1439 2293 
Q 1191 2003 1191 1497 
Q 1191 994 1439 701 
Q 1688 409 2113 409 
Q 2538 409 2786 701 
Q 3034 994 3034 1497 
Q 3034 2003 2786 2293 
Q 2538 2584 2113 2584 
z
M 3366 4563 
L 3366 3988 
Q 3128 4100 2886 4159 
Q 2644 4219 2406 4219 
Q 1781 4219 1451 3797 
Q 1122 3375 1075 2522 
Q 1259 2794 1537 2939 
Q 1816 3084 2150 3084 
Q 2853 3084 3261 2657 
Q 3669 2231 3669 1497 
Q 3669 778 3244 343 
Q 2819 -91 2113 -91 
Q 1303 -91 875 529 
Q 447 1150 447 2328 
Q 447 3434 972 4092 
Q 1497 4750 2381 4750 
Q 2619 4750 2861 4703 
Q 3103 4656 3366 4563 
z
" transform="scale(0.015625)"/>
       </defs>
       <use xlink:href="#DejaVuSans-19" transform="translate(0 0.746875)"/>
       <use xlink:href="#DejaVuSans-99" transform="translate(83.105469 0.746875)"/>
       <use xlink:href="#DejaVuSans-14" transform="translate(186.376953 0.746875)"/>
       <use xlink:href="#DejaVuSans-13" transform="translate(250 0.746875)"/>
       <use xlink:href="#DejaVuSans-c9c" transform="translate(314.580078 42.046875) scale(0.7)"/>
       <use xlink:href="#DejaVuSans-16" transform="translate(373.232422 42.046875) scale(0.7)"/>
      </g>
     </g>
    </g>
    <g id="ytick_6">
     <g id="line2d_21">
      <g>
       <use xlink:href="#m219544f679" x="68.700781" y="166.869598" style="fill: #64748b; stroke: #64748b; stroke-width: 0.6"/>
      </g>
     </g>
    </g>
    <g id="ytick_7">
     <g id="line2d_22">
      <g>
       <use xlink:href="#m219544f679" x="68.700781" y="148.178534" style="fill: #64748b; stroke: #64748b; stroke-width: 0.6"/>
      </g>
     </g>
    </g>
    <g id="ytick_8">
     <g id="line2d_23">
      <g>
       <use xlink:href="#m219544f679" x="68.700781" y="131.691846" style="fill: #64748b; stroke: #64748b; stroke-width: 0.6"/>
      </g>
     </g>
    </g>
    <g id="text_13">
     <!-- MSE loss -->
     <g style="fill: #334155" transform="translate(14.798438 185.873041) rotate(-90) scale(0.1 -0.1)">
      <defs>
       <path id="DejaVuSans-30" d="M 628 4666 
L 1569 4666 
L 2759 1491 
L 3956 4666 
L 4897 4666 
L 4897 0 
L 4281 0 
L 4281 4097 
L 3078 897 
L 2444 897 
L 1241 4097 
L 1241 0 
L 628 0 
L 628 4666 
z
" transform="scale(0.015625)"/>
       <path id="DejaVuSans-36" d="M 3425 4513 
L 3425 3897 
Q 3066 4069 2747 4153 
Q 2428 4238 2131 4238 
Q 1616 4238 1336 4038 
Q 1056 3838 1056 3469 
Q 1056 3159 1242 3001 
Q 1428 2844 1947 2747 
L 2328 2669 
Q 3034 2534 3370 2195 
Q 3706 1856 3706 1288 
Q 3706 609 3251 259 
Q 2797 -91 1919 -91 
Q 1588 -91 1214 -16 
Q 841 59 441 206 
L 441 856 
Q 825 641 1194 531 
Q 1563 422 1919 422 
Q 2459 422 2753 634 
Q 3047 847 3047 1241 
Q 3047 1584 2836 1778 
Q 2625 1972 2144 2069 
L 1759 2144 
Q 1053 2284 737 2584 
Q 422 2884 422 3419 
Q 422 4038 858 4394 
Q 1294 4750 2059 4750 
Q 2388 4750 2728 4690 
Q 3069 4631 3425 4513 
z
" transform="scale(0.015625)"/>
       <path id="DejaVuSans-3" transform="scale(0.015625)"/>
       <path id="DejaVuSans-4f" d="M 603 4863 
L 1178 4863 
L 1178 0 
L 603 0 
L 603 4863 
z
" transform="scale(0.015625)"/>
       <path id="DejaVuSans-56" d="M 2834 3397 
L 2834 2853 
Q 2591 2978 2328 3040 
Q 2066 3103 1784 3103 
Q 1356 3103 1142 2972 
Q 928 2841 928 2578 
Q 928 2378 1081 2264 
Q 1234 2150 1697 2047 
L 1894 2003 
Q 2506 1872 2764 1633 
Q 3022 1394 3022 966 
Q 3022 478 2636 193 
Q 2250 -91 1575 -91 
Q 1294 -91 989 -36 
Q 684 19 347 128 
L 347 722 
Q 666 556 975 473 
Q 1284 391 1588 391 
Q 1994 391 2212 530 
Q 2431 669 2431 922 
Q 2431 1156 2273 1281 
Q 2116 1406 1581 1522 
L 1381 1569 
Q 847 1681 609 1914 
Q 372 2147 372 2553 
Q 372 3047 722 3315 
Q 1072 3584 1716 3584 
Q 2034 3584 2315 3537 
Q 2597 3491 2834 3397 
z
" transform="scale(0.015625)"/>
      </defs>
      <use xlink:href="#DejaVuSans-30"/>
      <use xlink:href="#DejaVuSans-36" transform="translate(86.28125 0)"/>
      <use xlink:href="#DejaVuSans-28" transform="translate(149.765625 0)"/>
      <use xlink:href="#DejaVuSans-3" transform="translate(212.953125 0)"/>
      <use xlink:href="#DejaVuSans-4f" transform="translate(244.734375 0)"/>
      <use xlink:href="#DejaVuSans-52" transform="translate(272.515625 0)"/>
      <use xlink:href="#DejaVuSans-56" transform="translate(333.703125 0)"/>
      <use xlink:href="#DejaVuSans-56" transform="translate(385.796875 0)"/>
     </g>
    </g>
   </g>
   <g id="line2d_24">
    <path d="M 92.468906 38.141938 
L 93.90072 64.051897 
L 95.332535 64.328758 
L 96.76435 82.395068 
L 98.196165 76.405899 
L 99.627979 110.01624 
L 101.059794 102.410555 
L 102.491609 119.028356 
L 103.923424 121.212567 
L 105.355238 119.69828 
L 106.787053 131.328657 
L 108.218868 132.919362 
L 109.650682 133.60329 
L 111.082497 140.323105 
L 112.514312 146.358532 
L 113.946127 143.107383 
L 115.377941 151.226199 
L 116.809756 162.690488 
L 118.241571 162.50412 
L 119.673386 163.139014 
L 121.1052 166.552671 
L 122.537015 174.731394 
L 123.96883 167.699203 
L 125.400644 170.95699 
L 126.832459 164.536825 
L 128.264274 176.066282 
L 129.696089 178.78242 
L 131.127903 185.492139 
L 132.559718 183.886064 
L 133.991533 185.63651 
L 135.423348 182.776511 
L 136.855162 184.014304 
L 138.286977 179.414912 
L 139.718792 182.205595 
L 141.150606 186.236602 
L 142.582421 194.176989 
L 144.014236 199.588395 
L 145.446051 189.66959 
L 146.877865 203.836344 
L 148.30968 193.678067 
L 149.741495 192.530281 
L 151.17331 198.620365 
L 152.605124 201.578491 
L 154.036939 202.865418 
L 155.468754 200.191657 
L 156.900569 201.651307 
L 158.332383 212.884537 
L 159.764198 200.284088 
L 161.196013 217.031094 
L 162.627827 206.385703 
L 164.059642 202.34556 
L 165.491457 202.664085 
L 166.923272 211.453181 
L 168.355086 199.669929 
L 169.786901 201.753726 
L 171.218716 214.696285 
L 172.650531 224.207418 
L 174.082345 207.278392 
L 175.51416 214.462857 
L 176.945975 217.074139 
L 178.377789 208.751589 
L 179.809604 222.592171 
L 181.241419 214.303878 
L 182.673234 226.800761 
L 184.105048 220.007836 
L 185.536863 222.671888 
L 186.968678 214.385522 
L 188.400493 224.172512 
L 189.832307 230.666524 
L 191.264122 220.144953 
L 192.695937 233.678452 
L 194.127751 218.919111 
L 195.559566 223.906135 
L 196.991381 226.298187 
L 198.423196 213.82069 
L 199.85501 221.949315 
L 201.286825 217.754464 
L 202.71864 229.342194 
L 204.150455 233.281618 
L 205.582269 238.143588 
L 207.014084 226.133224 
L 208.445899 237.555097 
L 209.877713 233.023844 
L 211.309528 223.893582 
L 212.741343 228.379846 
L 214.173158 230.043453 
L 215.604972 235.815723 
L 217.036787 236.903341 
L 218.468602 240.363293 
L 219.900417 241.426382 
L 221.332231 232.183674 
L 222.764046 244.364643 
L 224.195861 246.862858 
L 225.627675 241.131177 
L 227.05949 239.897081 
L 228.491305 230.699253 
L 229.92312 247.512808 
L 231.354934 246.394393 
L 232.786749 233.650406 
L 235.650379 245.511095 
L 237.082193 236.06839 
L 238.514008 239.720876 
L 239.945823 239.000276 
L 241.377637 240.674251 
L 242.809452 239.889895 
L 244.241267 241.8298 
L 245.673082 239.371131 
L 247.104896 246.537876 
L 248.536711 241.008689 
L 249.968526 251.386118 
L 251.400341 247.15789 
L 252.832155 241.846822 
L 254.26397 245.003997 
L 255.695785 241.704776 
L 257.127599 250.509253 
L 258.559414 241.986161 
L 259.991229 237.804929 
L 261.423044 239.357909 
L 262.854858 254.503814 
L 264.286673 249.095951 
L 265.718488 245.868602 
L 267.150303 257.646106 
L 268.582117 241.626715 
L 270.013932 241.12388 
L 271.445747 243.399126 
L 272.877561 245.079651 
L 274.309376 253.393353 
L 275.741191 250.431488 
L 277.173006 246.71158 
L 278.60482 240.881678 
L 280.036635 242.086813 
L 281.46845 254.384755 
L 282.900265 243.260896 
L 284.332079 256.181463 
L 285.763894 248.248718 
L 287.195709 250.061999 
L 288.627524 251.044521 
L 290.059338 253.142556 
L 291.491153 249.188049 
L 292.922968 237.730943 
L 294.354782 250.340309 
L 295.786597 259.467502 
L 297.218412 255.979812 
L 298.650227 256.922363 
L 300.082041 237.384234 
L 301.513856 245.721731 
L 302.945671 257.480907 
L 304.377486 250.505665 
L 305.8093 256.190029 
L 307.241115 262.826711 
L 308.67293 256.42218 
L 310.104744 247.755883 
L 311.536559 254.53911 
L 312.968374 260.608824 
L 314.400189 248.488905 
L 315.832003 246.50223 
L 317.263818 254.552253 
L 318.695633 244.644956 
L 320.127448 258.560295 
L 321.559262 264.130418 
L 322.991077 254.542472 
L 324.422892 253.310749 
L 325.854706 256.431361 
L 327.286521 249.527149 
L 328.718336 244.790425 
L 330.150151 262.956402 
L 331.581965 259.657711 
L 333.01378 255.750151 
L 334.445595 236.810783 
L 335.87741 254.516798 
L 337.309224 259.055867 
L 338.741039 252.213693 
L 340.172854 251.138472 
L 341.604668 262.654862 
L 343.036483 268.474272 
L 344.468298 259.930344 
L 345.900113 260.211817 
L 347.331927 256.47097 
L 348.763742 260.879125 
L 350.195557 262.643076 
L 351.627372 262.835388 
L 353.059186 269.744605 
L 354.491001 259.813075 
L 355.922816 248.0973 
L 357.35463 257.20571 
L 358.786445 259.414708 
L 360.21826 258.355396 
L 361.650075 261.144069 
L 363.081889 266.536086 
L 364.513704 256.269475 
L 365.945519 256.938957 
L 367.377334 259.168353 
L 368.809148 260.731323 
L 370.240963 247.96047 
L 371.672778 264.434485 
L 373.104592 253.843121 
L 374.536407 259.84362 
L 375.968222 252.327078 
L 377.400037 265.500305 
L 378.831851 255.9978 
L 380.263666 260.518924 
L 381.695481 249.876229 
L 383.127296 264.583734 
L 384.55911 254.350951 
L 387.42274 260.577175 
L 388.854554 246.800293 
L 390.286369 258.70907 
L 391.718184 268.377899 
L 393.149999 257.681865 
L 394.581813 261.656615 
L 396.013628 263.090084 
L 397.445443 252.189564 
L 398.877258 261.943715 
L 400.309072 272.588687 
L 401.740887 265.757183 
L 403.172702 264.979016 
L 404.604516 263.626138 
L 406.036331 265.866443 
L 407.468146 268.53002 
L 408.899961 269.757586 
L 410.331775 257.333076 
L 411.76359 261.764673 
L 413.195405 256.734646 
L 414.62722 256.98432 
L 416.059034 267.120312 
L 417.490849 268.906766 
L 418.922664 259.828812 
L 420.354479 255.360773 
L 421.786293 262.182312 
L 423.218108 261.127727 
L 424.649923 256.397429 
L 426.081737 259.470741 
L 427.513552 257.60262 
L 428.945367 255.514288 
L 430.377182 260.601175 
L 431.808996 271.940153 
L 433.240811 250.666414 
L 434.672626 255.618249 
L 436.104441 255.39314 
L 437.536255 270.10038 
L 438.96807 261.105909 
L 441.831699 255.310906 
L 443.263514 262.564958 
L 444.695329 267.890607 
L 446.127144 265.706679 
L 447.558958 266.340084 
L 448.990773 268.027985 
L 450.422588 256.451641 
L 451.854403 249.052755 
L 453.286217 258.140618 
L 454.718032 262.043181 
L 456.149847 259.205953 
L 457.581661 251.901847 
L 459.013476 267.579216 
L 460.445291 264.445908 
L 461.877106 265.019796 
L 463.30892 264.153039 
L 464.740735 264.6606 
L 466.17255 263.26868 
L 467.604365 264.383568 
L 469.036179 259.045748 
L 470.467994 262.313673 
L 471.899809 280.870018 
L 473.331623 263.901041 
L 474.763438 272.823058 
L 476.195253 273.437601 
L 477.627068 262.679959 
L 479.058882 256.253444 
L 480.490697 265.315775 
L 481.922512 252.397369 
L 483.354327 269.663198 
L 484.786141 266.311158 
L 486.217956 268.063667 
L 487.649771 259.962364 
L 489.081585 261.115841 
L 490.5134 259.536807 
L 491.945215 262.010306 
L 493.37703 265.993699 
L 494.808844 278.046497 
L 496.240659 267.18416 
L 497.672474 265.027831 
L 499.104289 267.00906 
L 500.536103 260.468348 
L 501.967918 267.978227 
L 503.399733 268.418768 
L 504.831547 272.933527 
L 506.263362 263.229056 
L 507.695177 257.140469 
L 509.126992 271.30045 
L 510.558806 265.380762 
L 511.990621 263.491433 
L 513.422436 267.285686 
L 514.854251 255.938944 
L 516.286065 264.661415 
L 517.71788 259.780764 
L 519.149695 254.134287 
L 520.581509 269.739012 
L 522.013324 270.365643 
L 523.445139 260.919448 
L 524.876954 273.742385 
L 526.308768 289.815082 
L 527.740583 273.579536 
L 529.172398 263.856238 
L 530.604213 265.216118 
L 532.036027 270.897997 
L 533.467842 264.943051 
L 534.899657 273.407907 
L 536.331471 271.039888 
L 537.763286 262.955838 
L 539.195101 260.538441 
L 540.626916 261.84709 
L 542.05873 260.713108 
L 543.490545 264.631832 
L 544.92236 258.575444 
L 546.354175 270.240188 
L 547.785989 271.916445 
L 549.217804 256.034426 
L 550.649619 265.971696 
L 552.081434 260.914024 
L 553.513248 267.739285 
L 554.945063 275.583895 
L 556.376878 268.337542 
L 557.808692 272.8335 
L 560.672322 268.605926 
L 562.104137 270.887816 
L 563.535951 268.045643 
L 564.967766 264.241915 
L 566.399581 273.788108 
L 567.831396 276.131722 
L 567.831396 276.131722 
" clip-path="url(#p3bae4c938d)" style="fill: none; stroke: #2563eb; stroke-width: 1.7; stroke-linecap: square"/>
   </g>
   <g id="line2d_25">
    <path d="M 92.468906 88.017061 
L 95.332535 102.866702 
L 96.76435 109.814875 
L 98.196165 115.944318 
L 101.059794 126.795751 
L 103.923424 135.963128 
L 112.514312 160.770166 
L 116.809756 172.207804 
L 119.673386 178.916863 
L 122.537015 184.341684 
L 123.96883 186.587193 
L 125.400644 188.581402 
L 126.832459 190.079039 
L 128.264274 191.383055 
L 129.696089 192.289137 
L 133.991533 193.868386 
L 135.423348 193.994885 
L 136.855162 193.892125 
L 138.286977 193.641263 
L 141.150606 192.656853 
L 142.582421 192.396192 
L 144.014236 192.315268 
L 145.446051 192.502131 
L 146.877865 192.899181 
L 148.30968 193.555898 
L 149.741495 194.025496 
L 151.17331 194.86152 
L 152.605124 195.919448 
L 155.468754 198.640822 
L 156.900569 199.823511 
L 158.332383 201.293262 
L 159.764198 202.597736 
L 161.196013 204.162999 
L 164.059642 206.075288 
L 165.491457 206.721811 
L 168.355086 207.495103 
L 169.786901 207.722959 
L 172.650531 206.468107 
L 175.51416 204.265522 
L 176.945975 202.908729 
L 178.377789 202.076929 
L 179.809604 201.518176 
L 181.241419 201.574052 
L 182.673234 202.102305 
L 185.536863 204.016142 
L 188.400493 205.415561 
L 191.264122 207.166188 
L 192.695937 207.779148 
L 195.559566 209.283155 
L 196.991381 210.381884 
L 198.423196 211.221208 
L 201.286825 212.31125 
L 204.150455 212.835403 
L 205.582269 212.753288 
L 207.014084 212.975065 
L 208.445899 213.335855 
L 212.741343 213.685061 
L 214.173158 214.153917 
L 215.604972 214.840204 
L 219.900417 217.30234 
L 221.332231 218.400216 
L 222.764046 219.354114 
L 224.195861 220.641297 
L 225.627675 221.676166 
L 227.05949 222.299806 
L 228.491305 222.464812 
L 229.92312 222.038913 
L 231.354934 221.236975 
L 232.786749 220.254986 
L 235.650379 219.086451 
L 237.082193 218.706708 
L 238.514008 218.5204 
L 239.945823 218.565859 
L 241.377637 218.960391 
L 242.809452 219.933716 
L 244.241267 221.238842 
L 247.104896 224.822641 
L 248.536711 225.995472 
L 249.968526 226.945643 
L 251.400341 227.105539 
L 254.26397 226.877751 
L 255.695785 226.308993 
L 257.127599 225.133769 
L 259.991229 223.478179 
L 261.423044 222.482627 
L 262.854858 222.378346 
L 265.718488 221.667186 
L 268.582117 223.403412 
L 270.013932 224.533458 
L 271.445747 225.411747 
L 274.309376 226.262898 
L 275.741191 226.619208 
L 277.173006 226.360742 
L 278.60482 226.598604 
L 281.46845 226.272278 
L 282.900265 226.376368 
L 285.763894 226.242618 
L 290.059338 224.951262 
L 291.491153 225.034705 
L 292.922968 224.805076 
L 294.354782 225.273459 
L 295.786597 226.276065 
L 297.218412 227.506846 
L 300.082041 229.628037 
L 301.513856 229.981685 
L 302.945671 230.044769 
L 304.377486 229.521473 
L 305.8093 228.487323 
L 307.241115 227.710751 
L 308.67293 227.114531 
L 310.104744 226.852778 
L 311.536559 227.744767 
L 314.400189 230.165021 
L 315.832003 231.147574 
L 317.263818 231.570339 
L 318.695633 231.58635 
L 320.127448 231.795223 
L 321.559262 231.693862 
L 322.991077 231.828973 
L 324.422892 231.655087 
L 325.854706 231.910217 
L 327.286521 231.436571 
L 328.718336 230.223707 
L 330.150151 228.837822 
L 331.581965 227.971925 
L 333.01378 227.627941 
L 337.309224 227.880983 
L 338.741039 228.587531 
L 340.172854 229.641582 
L 341.604668 230.88409 
L 343.036483 231.94349 
L 344.468298 232.852675 
L 345.900113 233.540467 
L 347.331927 233.594061 
L 348.763742 232.938338 
L 350.195557 232.745447 
L 351.627372 232.203631 
L 355.922816 232.101276 
L 357.35463 232.249956 
L 358.786445 231.990367 
L 360.21826 231.861041 
L 361.650075 231.952813 
L 363.081889 231.881574 
L 364.513704 231.621897 
L 365.945519 231.639172 
L 367.377334 231.263128 
L 368.809148 231.002842 
L 370.240963 230.345431 
L 371.672778 229.87491 
L 373.104592 229.563553 
L 377.400037 231.523647 
L 380.263666 233.079855 
L 381.695481 233.607935 
L 383.127296 233.575674 
L 384.55911 233.180147 
L 387.42274 231.778507 
L 388.854554 231.405633 
L 390.286369 231.660782 
L 391.718184 232.465967 
L 393.149999 232.956014 
L 394.581813 232.899052 
L 396.013628 233.249222 
L 398.877258 234.637361 
L 400.309072 235.048399 
L 404.604516 235.053385 
L 406.036331 234.952848 
L 410.331775 235.494577 
L 414.62722 237.16275 
L 416.059034 237.194756 
L 417.490849 236.920911 
L 418.922664 236.89511 
L 420.354479 236.298683 
L 423.218108 235.885563 
L 427.513552 234.834436 
L 428.945367 234.307642 
L 430.377182 233.942232 
L 431.808996 233.715781 
L 433.240811 234.157469 
L 434.672626 235.483722 
L 436.104441 236.506489 
L 437.536255 237.159627 
L 438.96807 237.080353 
L 440.399885 236.862297 
L 441.831699 236.24548 
L 444.695329 234.743644 
L 447.558958 233.562133 
L 448.990773 233.495376 
L 450.422588 233.218644 
L 451.854403 233.13882 
L 453.286217 232.86955 
L 456.149847 232.97426 
L 457.581661 233.619981 
L 459.013476 235.093644 
L 460.445291 236.812686 
L 461.877106 238.251979 
L 463.30892 239.47469 
L 464.740735 240.069015 
L 466.17255 240.437125 
L 467.604365 240.654406 
L 469.036179 240.69552 
L 470.467994 240.500753 
L 471.899809 240.081362 
L 474.763438 237.853146 
L 479.058882 235.731587 
L 480.490697 235.317979 
L 481.922512 234.694385 
L 483.354327 234.421158 
L 486.217956 234.748286 
L 487.649771 235.305893 
L 489.081585 236.389725 
L 491.945215 238.718678 
L 494.808844 241.22301 
L 496.240659 241.874841 
L 497.672474 242.195367 
L 500.536103 241.43985 
L 501.967918 240.666174 
L 503.399733 239.475972 
L 504.831547 238.705859 
L 507.695177 236.873121 
L 509.126992 236.577701 
L 510.558806 236.951417 
L 511.990621 237.578335 
L 517.71788 240.600878 
L 520.581509 241.20277 
L 522.013324 240.968099 
L 526.308768 239.383855 
L 527.740583 239.339374 
L 529.172398 239.136357 
L 530.604213 238.546265 
L 532.036027 238.724202 
L 533.467842 239.118616 
L 534.899657 239.337421 
L 537.763286 240.297588 
L 539.195101 240.587649 
L 540.626916 240.590093 
L 542.05873 240.907482 
L 544.92236 241.164309 
L 546.354175 240.968573 
L 547.785989 241.299214 
L 549.217804 241.798911 
L 550.649619 242.118451 
L 553.513248 241.65191 
L 554.945063 241.591027 
L 557.808692 240.879877 
L 560.672322 239.997544 
L 562.104137 240.092485 
L 563.535951 240.553266 
L 564.967766 240.839025 
L 566.399581 241.281736 
L 567.831396 241.381914 
L 567.831396 241.381914 
" clip-path="url(#p3bae4c938d)" style="fill: none; stroke: #16a34a; stroke-width: 1.7; stroke-linecap: square"/>
   </g>
   <g id="line2d_26">
    <path d="M 496.240659 302.398739 
L 496.240659 25.558281 
" clip-path="url(#p3bae4c938d)" style="fill: none; stroke-dasharray: 6,4.5; stroke-dashoffset: 0; stroke: #f97316; stroke-width: 1.5"/>
   </g>
   <g id="patch_3">
    <path d="M 68.700781 302.398739 
L 68.700781 25.558281 
" style="fill: none; stroke: #94a3b8; stroke-width: 0.8; stroke-linejoin: miter; stroke-linecap: square"/>
   </g>
   <g id="patch_4">
    <path d="M 68.700781 302.398739 
L 591.59952 302.398739 
" style="fill: none; stroke: #94a3b8; stroke-width: 0.8; stroke-linejoin: miter; stroke-linecap: square"/>
   </g>
   <g id="patch_5">
    <path d="M 501.092181 239.56689 
Q 499.570158 240.290942 498.048135 241.014994 
" style="fill: none; stroke: #f97316; stroke-width: 0.8; stroke-linecap: round"/>
   </g>
   <g id="text_14">
    <g id="patch_6">
     <path d="M 504.240659 238.597497 
L 550.796909 238.597497 
Q 552.796909 238.597497 552.796909 236.597497 
L 552.796909 217.393122 
Q 552.796909 215.393122 550.796909 215.393122 
L 504.240659 215.393122 
Q 502.240659 215.393122 502.240659 217.393122 
L 502.240659 236.597497 
Q 502.240659 238.597497 504.240659 238.597497 
z
" style="fill: #ffffff; opacity: 0.92; stroke: #cbd5e1; stroke-linejoin: miter"/>
    </g>
    <!-- epoch=283 -->
    <g style="fill: #f97316" transform="translate(504.240659 224.272654) scale(0.08 -0.08)">
     <defs>
      <path id="DejaVuSans-48" d="M 3597 1894 
L 3597 1613 
L 953 1613 
Q 991 1019 1311 708 
Q 1631 397 2203 397 
Q 2534 397 2845 478 
Q 3156 559 3463 722 
L 3463 178 
Q 3153 47 2828 -22 
Q 2503 -91 2169 -91 
Q 1331 -91 842 396 
Q 353 884 353 1716 
Q 353 2575 817 3079 
Q 1281 3584 2069 3584 
Q 2775 3584 3186 3129 
Q 3597 2675 3597 1894 
z
M 3022 2063 
Q 3016 2534 2758 2815 
Q 2500 3097 2075 3097 
Q 1594 3097 1305 2825 
Q 1016 2553 972 2059 
L 3022 2063 
z
" transform="scale(0.015625)"/>
      <path id="DejaVuSans-20" d="M 678 2906 
L 4684 2906 
L 4684 2381 
L 678 2381 
L 678 2906 
z
M 678 1631 
L 4684 1631 
L 4684 1100 
L 678 1100 
L 678 1631 
z
" transform="scale(0.015625)"/>
      <path id="DejaVuSans-1b" d="M 2034 2216 
Q 1584 2216 1326 1975 
Q 1069 1734 1069 1313 
Q 1069 891 1326 650 
Q 1584 409 2034 409 
Q 2484 409 2743 651 
Q 3003 894 3003 1313 
Q 3003 1734 2745 1975 
Q 2488 2216 2034 2216 
z
M 1403 2484 
Q 997 2584 770 2862 
Q 544 3141 544 3541 
Q 544 4100 942 4425 
Q 1341 4750 2034 4750 
Q 2731 4750 3128 4425 
Q 3525 4100 3525 3541 
Q 3525 3141 3298 2862 
Q 3072 2584 2669 2484 
Q 3125 2378 3379 2068 
Q 3634 1759 3634 1313 
Q 3634 634 3220 271 
Q 2806 -91 2034 -91 
Q 1263 -91 848 271 
Q 434 634 434 1313 
Q 434 1759 690 2068 
Q 947 2378 1403 2484 
z
M 1172 3481 
Q 1172 3119 1398 2916 
Q 1625 2713 2034 2713 
Q 2441 2713 2670 2916 
Q 2900 3119 2900 3481 
Q 2900 3844 2670 4047 
Q 2441 4250 2034 4250 
Q 1625 4250 1398 4047 
Q 1172 3844 1172 3481 
z
" transform="scale(0.015625)"/>
     </defs>
     <use xlink:href="#DejaVuSans-48"/>
     <use xlink:href="#DejaVuSans-53" transform="translate(61.53125 0)"/>
     <use xlink:href="#DejaVuSans-52" transform="translate(125.015625 0)"/>
     <use xlink:href="#DejaVuSans-46" transform="translate(186.203125 0)"/>
     <use xlink:href="#DejaVuSans-4b" transform="translate(241.1875 0)"/>
     <use xlink:href="#DejaVuSans-20" transform="translate(304.5625 0)"/>
     <use xlink:href="#DejaVuSans-15" transform="translate(388.359375 0)"/>
     <use xlink:href="#DejaVuSans-1b" transform="translate(451.984375 0)"/>
     <use xlink:href="#DejaVuSans-16" transform="translate(515.609375 0)"/>
    </g>
    <!-- val=0.0041 -->
    <g style="fill: #f97316" transform="translate(504.240659 233.874841) scale(0.08 -0.08)">
     <defs>
      <path id="DejaVuSans-59" d="M 191 3500 
L 800 3500 
L 1894 563 
L 2988 3500 
L 3597 3500 
L 2284 0 
L 1503 0 
L 191 3500 
z
" transform="scale(0.015625)"/>
      <path id="DejaVuSans-44" d="M 2194 1759 
Q 1497 1759 1228 1600 
Q 959 1441 959 1056 
Q 959 750 1161 570 
Q 1363 391 1709 391 
Q 2188 391 2477 730 
Q 2766 1069 2766 1631 
L 2766 1759 
L 2194 1759 
z
M 3341 1997 
L 3341 0 
L 2766 0 
L 2766 531 
Q 2569 213 2275 61 
Q 1981 -91 1556 -91 
Q 1019 -91 701 211 
Q 384 513 384 1019 
Q 384 1609 779 1909 
Q 1175 2209 1959 2209 
L 2766 2209 
L 2766 2266 
Q 2766 2663 2505 2880 
Q 2244 3097 1772 3097 
Q 1472 3097 1187 3025 
Q 903 2953 641 2809 
L 641 3341 
Q 956 3463 1253 3523 
Q 1550 3584 1831 3584 
Q 2591 3584 2966 3190 
Q 3341 2797 3341 1997 
z
" transform="scale(0.015625)"/>
      <path id="DejaVuSans-11" d="M 684 794 
L 1344 794 
L 1344 0 
L 684 0 
L 684 794 
z
" transform="scale(0.015625)"/>
     </defs>
     <use xlink:href="#DejaVuSans-59"/>
     <use xlink:href="#DejaVuSans-44" transform="translate(59.1875 0)"/>
     <use xlink:href="#DejaVuSans-4f" transform="translate(120.46875 0)"/>
     <use xlink:href="#DejaVuSans-20" transform="translate(148.25 0)"/>
     <use xlink:href="#DejaVuSans-13" transform="translate(232.046875 0)"/>
     <use xlink:href="#DejaVuSans-11" transform="translate(295.671875 0)"/>
     <use xlink:href="#DejaVuSans-13" transform="translate(327.453125 0)"/>
     <use xlink:href="#DejaVuSans-13" transform="translate(391.078125 0)"/>
     <use xlink:href="#DejaVuSans-17" transform="translate(454.703125 0)"/>
     <use xlink:href="#DejaVuSans-14" transform="translate(518.328125 0)"/>
    </g>
   </g>
   <g id="text_15">
    <!-- Training curve -->
    <g style="fill: #0f172a" transform="translate(285.921557 15.558281) scale(0.11 -0.11)">
     <defs>
      <path id="DejaVuSans-Bold-37" d="M 31 4666 
L 4331 4666 
L 4331 3756 
L 2784 3756 
L 2784 0 
L 1581 0 
L 1581 3756 
L 31 3756 
L 31 4666 
z
" transform="scale(0.015625)"/>
      <path id="DejaVuSans-Bold-55" d="M 3138 2547 
Q 2991 2616 2845 2648 
Q 2700 2681 2553 2681 
Q 2122 2681 1889 2404 
Q 1656 2128 1656 1613 
L 1656 0 
L 538 0 
L 538 3500 
L 1656 3500 
L 1656 2925 
Q 1872 3269 2151 3426 
Q 2431 3584 2822 3584 
Q 2878 3584 2943 3579 
Q 3009 3575 3134 3559 
L 3138 2547 
z
" transform="scale(0.015625)"/>
      <path id="DejaVuSans-Bold-44" d="M 2106 1575 
Q 1756 1575 1579 1456 
Q 1403 1338 1403 1106 
Q 1403 894 1545 773 
Q 1688 653 1941 653 
Q 2256 653 2472 879 
Q 2688 1106 2688 1447 
L 2688 1575 
L 2106 1575 
z
M 3816 1997 
L 3816 0 
L 2688 0 
L 2688 519 
Q 2463 200 2181 54 
Q 1900 -91 1497 -91 
Q 953 -91 614 226 
Q 275 544 275 1050 
Q 275 1666 698 1953 
Q 1122 2241 2028 2241 
L 2688 2241 
L 2688 2328 
Q 2688 2594 2478 2717 
Q 2269 2841 1825 2841 
Q 1466 2841 1156 2769 
Q 847 2697 581 2553 
L 581 3406 
Q 941 3494 1303 3539 
Q 1666 3584 2028 3584 
Q 2975 3584 3395 3211 
Q 3816 2838 3816 1997 
z
" transform="scale(0.015625)"/>
      <path id="DejaVuSans-Bold-4c" d="M 538 3500 
L 1656 3500 
L 1656 0 
L 538 0 
L 538 3500 
z
M 538 4863 
L 1656 4863 
L 1656 3950 
L 538 3950 
L 538 4863 
z
" transform="scale(0.015625)"/>
      <path id="DejaVuSans-Bold-51" d="M 4056 2131 
L 4056 0 
L 2931 0 
L 2931 347 
L 2931 1631 
Q 2931 2084 2911 2256 
Q 2891 2428 2841 2509 
Q 2775 2619 2662 2680 
Q 2550 2741 2406 2741 
Q 2056 2741 1856 2470 
Q 1656 2200 1656 1722 
L 1656 0 
L 538 0 
L 538 3500 
L 1656 3500 
L 1656 2988 
Q 1909 3294 2193 3439 
Q 2478 3584 2822 3584 
Q 3428 3584 3742 3212 
Q 4056 2841 4056 2131 
z
" transform="scale(0.015625)"/>
      <path id="DejaVuSans-Bold-4a" d="M 2919 594 
Q 2688 288 2409 144 
Q 2131 0 1766 0 
Q 1125 0 706 504 
Q 288 1009 288 1791 
Q 288 2575 706 3076 
Q 1125 3578 1766 3578 
Q 2131 3578 2409 3434 
Q 2688 3291 2919 2981 
L 2919 3500 
L 4044 3500 
L 4044 353 
Q 4044 -491 3511 -936 
Q 2978 -1381 1966 -1381 
Q 1638 -1381 1331 -1331 
Q 1025 -1281 716 -1178 
L 716 -306 
Q 1009 -475 1290 -558 
Q 1572 -641 1856 -641 
Q 2406 -641 2662 -400 
Q 2919 -159 2919 353 
L 2919 594 
z
M 2181 2772 
Q 1834 2772 1640 2515 
Q 1447 2259 1447 1791 
Q 1447 1309 1634 1061 
Q 1822 813 2181 813 
Q 2531 813 2725 1069 
Q 2919 1325 2919 1791 
Q 2919 2259 2725 2515 
Q 2531 2772 2181 2772 
z
" transform="scale(0.015625)"/>
      <path id="DejaVuSans-Bold-3" transform="scale(0.015625)"/>
      <path id="DejaVuSans-Bold-46" d="M 3366 3391 
L 3366 2478 
Q 3138 2634 2908 2709 
Q 2678 2784 2431 2784 
Q 1963 2784 1702 2511 
Q 1441 2238 1441 1747 
Q 1441 1256 1702 982 
Q 1963 709 2431 709 
Q 2694 709 2930 787 
Q 3166 866 3366 1019 
L 3366 103 
Q 3103 6 2833 -42 
Q 2563 -91 2291 -91 
Q 1344 -91 809 395 
Q 275 881 275 1747 
Q 275 2613 809 3098 
Q 1344 3584 2291 3584 
Q 2566 3584 2833 3536 
Q 3100 3488 3366 3391 
z
" transform="scale(0.015625)"/>
      <path id="DejaVuSans-Bold-58" d="M 500 1363 
L 500 3500 
L 1625 3500 
L 1625 3150 
Q 1625 2866 1622 2436 
Q 1619 2006 1619 1863 
Q 1619 1441 1641 1255 
Q 1663 1069 1716 984 
Q 1784 875 1895 815 
Q 2006 756 2150 756 
Q 2500 756 2700 1025 
Q 2900 1294 2900 1772 
L 2900 3500 
L 4019 3500 
L 4019 0 
L 2900 0 
L 2900 506 
Q 2647 200 2364 54 
Q 2081 -91 1741 -91 
Q 1134 -91 817 281 
Q 500 653 500 1363 
z
" transform="scale(0.015625)"/>
      <path id="DejaVuSans-Bold-59" d="M 97 3500 
L 1216 3500 
L 2088 1081 
L 2956 3500 
L 4078 3500 
L 2700 0 
L 1472 0 
L 97 3500 
z
" transform="scale(0.015625)"/>
      <path id="DejaVuSans-Bold-48" d="M 4031 1759 
L 4031 1441 
L 1416 1441 
Q 1456 1047 1700 850 
Q 1944 653 2381 653 
Q 2734 653 3104 758 
Q 3475 863 3866 1075 
L 3866 213 
Q 3469 63 3072 -14 
Q 2675 -91 2278 -91 
Q 1328 -91 801 392 
Q 275 875 275 1747 
Q 275 2603 792 3093 
Q 1309 3584 2216 3584 
Q 3041 3584 3536 3087 
Q 4031 2591 4031 1759 
z
M 2881 2131 
Q 2881 2450 2695 2645 
Q 2509 2841 2209 2841 
Q 1884 2841 1681 2658 
Q 1478 2475 1428 2131 
L 2881 2131 
z
" transform="scale(0.015625)"/>
     </defs>
     <use xlink:href="#DejaVuSans-Bold-37"/>
     <use xlink:href="#DejaVuSans-Bold-55" transform="translate(57.234375 0)"/>
     <use xlink:href="#DejaVuSans-Bold-44" transform="translate(106.546875 0)"/>
     <use xlink:href="#DejaVuSans-Bold-4c" transform="translate(174.03125 0)"/>
     <use xlink:href="#DejaVuSans-Bold-51" transform="translate(208.3125 0)"/>
     <use xlink:href="#DejaVuSans-Bold-4c" transform="translate(279.5 0)"/>
     <use xlink:href="#DejaVuSans-Bold-51" transform="translate(313.78125 0)"/>
     <use xlink:href="#DejaVuSans-Bold-4a" transform="translate(384.96875 0)"/>
     <use xlink:href="#DejaVuSans-Bold-3" transform="translate(456.546875 0)"/>
     <use xlink:href="#DejaVuSans-Bold-46" transform="translate(491.359375 0)"/>
     <use xlink:href="#DejaVuSans-Bold-58" transform="translate(550.640625 0)"/>
     <use xlink:href="#DejaVuSans-Bold-55" transform="translate(621.828125 0)"/>
     <use xlink:href="#DejaVuSans-Bold-59" transform="translate(671.140625 0)"/>
     <use xlink:href="#DejaVuSans-Bold-48" transform="translate(736.328125 0)"/>
    </g>
   </g>
   <g id="PathCollection_1">
    <defs>
     <path id="m74710210ff" d="M 0 3.807887 
C 1.009863 3.807887 1.978501 3.406664 2.692582 2.692582 
C 3.406664 1.978501 3.807887 1.009863 3.807887 0 
C 3.807887 -1.009863 3.406664 -1.978501 2.692582 -2.692582 
C 1.978501 -3.406664 1.009863 -3.807887 0 -3.807887 
C -1.009863 -3.807887 -1.978501 -3.406664 -2.692582 -2.692582 
C -3.406664 -1.978501 -3.807887 -1.009863 -3.807887 0 
C -3.807887 1.009863 -3.406664 1.978501 -2.692582 2.692582 
C -1.978501 3.406664 -1.009863 3.807887 0 3.807887 
z
" style="stroke: #f97316"/>
    </defs>
    <g clip-path="url(#p3bae4c938d)">
     <use xlink:href="#m74710210ff" x="496.240659" y="241.874841" style="fill: #f97316; stroke: #f97316"/>
    </g>
   </g>
   <g id="legend_1">
    <g id="patch_7">
     <path d="M 75.000781 297.898739 
L 184.442187 297.898739 
Q 186.242188 297.898739 186.242188 296.098739 
L 186.242188 256.496629 
Q 186.242188 254.696629 184.442187 254.696629 
L 75.000781 254.696629 
Q 73.200781 254.696629 73.200781 256.496629 
L 73.200781 296.098739 
Q 73.200781 297.898739 75.000781 297.898739 
z
" style="fill: #ffffff; opacity: 0.8; stroke: #cbd5e1; stroke-linejoin: miter"/>
    </g>
    <g id="line2d_27">
     <path d="M 76.800781 261.985223 
L 85.800781 261.985223 
L 94.800781 261.985223 
" style="fill: none; stroke: #2563eb; stroke-width: 1.7; stroke-linecap: square"/>
    </g>
    <g id="text_16">
     <!-- Train loss -->
     <g transform="translate(102.000781 265.135223) scale(0.09 -0.09)">
      <defs>
       <path id="DejaVuSans-37" d="M -19 4666 
L 3928 4666 
L 3928 4134 
L 2272 4134 
L 2272 0 
L 1638 0 
L 1638 4134 
L -19 4134 
L -19 4666 
z
" transform="scale(0.015625)"/>
       <path id="DejaVuSans-55" d="M 2631 2963 
Q 2534 3019 2420 3045 
Q 2306 3072 2169 3072 
Q 1681 3072 1420 2755 
Q 1159 2438 1159 1844 
L 1159 0 
L 581 0 
L 581 3500 
L 1159 3500 
L 1159 2956 
Q 1341 3275 1631 3429 
Q 1922 3584 2338 3584 
Q 2397 3584 2469 3576 
Q 2541 3569 2628 3553 
L 2631 2963 
z
" transform="scale(0.015625)"/>
       <path id="DejaVuSans-4c" d="M 603 3500 
L 1178 3500 
L 1178 0 
L 603 0 
L 603 3500 
z
M 603 4863 
L 1178 4863 
L 1178 4134 
L 603 4134 
L 603 4863 
z
" transform="scale(0.015625)"/>
       <path id="DejaVuSans-51" d="M 3513 2113 
L 3513 0 
L 2938 0 
L 2938 2094 
Q 2938 2591 2744 2837 
Q 2550 3084 2163 3084 
Q 1697 3084 1428 2787 
Q 1159 2491 1159 1978 
L 1159 0 
L 581 0 
L 581 3500 
L 1159 3500 
L 1159 2956 
Q 1366 3272 1645 3428 
Q 1925 3584 2291 3584 
Q 2894 3584 3203 3211 
Q 3513 2838 3513 2113 
z
" transform="scale(0.015625)"/>
      </defs>
      <use xlink:href="#DejaVuSans-37"/>
      <use xlink:href="#DejaVuSans-55" transform="translate(46.375 0)"/>
      <use xlink:href="#DejaVuSans-44" transform="translate(87.484375 0)"/>
      <use xlink:href="#DejaVuSans-4c" transform="translate(148.765625 0)"/>
      <use xlink:href="#DejaVuSans-51" transform="translate(176.546875 0)"/>
      <use xlink:href="#DejaVuSans-3" transform="translate(239.921875 0)"/>
      <use xlink:href="#DejaVuSans-4f" transform="translate(271.703125 0)"/>
      <use xlink:href="#DejaVuSans-52" transform="translate(299.484375 0)"/>
      <use xlink:href="#DejaVuSans-56" transform="translate(360.671875 0)"/>
      <use xlink:href="#DejaVuSans-56" transform="translate(412.765625 0)"/>
     </g>
    </g>
    <g id="line2d_28">
     <path d="M 76.800781 275.485926 
L 85.800781 275.485926 
L 94.800781 275.485926 
" style="fill: none; stroke: #16a34a; stroke-width: 1.7; stroke-linecap: square"/>
    </g>
    <g id="text_17">
     <!-- Validation loss -->
     <g transform="translate(102.000781 278.635926) scale(0.09 -0.09)">
      <defs>
       <path id="DejaVuSans-39" d="M 1831 0 
L 50 4666 
L 709 4666 
L 2188 738 
L 3669 4666 
L 4325 4666 
L 2547 0 
L 1831 0 
z
" transform="scale(0.015625)"/>
       <path id="DejaVuSans-47" d="M 2906 2969 
L 2906 4863 
L 3481 4863 
L 3481 0 
L 2906 0 
L 2906 525 
Q 2725 213 2448 61 
Q 2172 -91 1784 -91 
Q 1150 -91 751 415 
Q 353 922 353 1747 
Q 353 2572 751 3078 
Q 1150 3584 1784 3584 
Q 2172 3584 2448 3432 
Q 2725 3281 2906 2969 
z
M 947 1747 
Q 947 1113 1208 752 
Q 1469 391 1925 391 
Q 2381 391 2643 752 
Q 2906 1113 2906 1747 
Q 2906 2381 2643 2742 
Q 2381 3103 1925 3103 
Q 1469 3103 1208 2742 
Q 947 2381 947 1747 
z
" transform="scale(0.015625)"/>
       <path id="DejaVuSans-57" d="M 1172 4494 
L 1172 3500 
L 2356 3500 
L 2356 3053 
L 1172 3053 
L 1172 1153 
Q 1172 725 1289 603 
Q 1406 481 1766 481 
L 2356 481 
L 2356 0 
L 1766 0 
Q 1100 0 847 248 
Q 594 497 594 1153 
L 594 3053 
L 172 3053 
L 172 3500 
L 594 3500 
L 594 4494 
L 1172 4494 
z
" transform="scale(0.015625)"/>
      </defs>
      <use xlink:href="#DejaVuSans-39"/>
      <use xlink:href="#DejaVuSans-44" transform="translate(60.640625 0)"/>
      <use xlink:href="#DejaVuSans-4f" transform="translate(121.921875 0)"/>
      <use xlink:href="#DejaVuSans-4c" transform="translate(149.703125 0)"/>
      <use xlink:href="#DejaVuSans-47" transform="translate(177.484375 0)"/>
      <use xlink:href="#DejaVuSans-44" transform="translate(240.96875 0)"/>
      <use xlink:href="#DejaVuSans-57" transform="translate(302.25 0)"/>
      <use xlink:href="#DejaVuSans-4c" transform="translate(341.453125 0)"/>
      <use xlink:href="#DejaVuSans-52" transform="translate(369.234375 0)"/>
      <use xlink:href="#DejaVuSans-51" transform="translate(430.421875 0)"/>
      <use xlink:href="#DejaVuSans-3" transform="translate(493.796875 0)"/>
      <use xlink:href="#DejaVuSans-4f" transform="translate(525.578125 0)"/>
      <use xlink:href="#DejaVuSans-52" transform="translate(553.359375 0)"/>
      <use xlink:href="#DejaVuSans-56" transform="translate(614.546875 0)"/>
      <use xlink:href="#DejaVuSans-56" transform="translate(666.640625 0)"/>
     </g>
    </g>
    <g id="line2d_29">
     <path d="M 76.800781 288.986629 
L 85.800781 288.986629 
L 94.800781 288.986629 
" style="fill: none; stroke-dasharray: 6,4.5; stroke-dashoffset: 0; stroke: #f97316; stroke-width: 1.5"/>
    </g>
    <g id="text_18">
     <!-- Best epoch = 283 -->
     <g transform="translate(102.000781 292.136629) scale(0.09 -0.09)">
      <defs>
       <path id="DejaVuSans-25" d="M 1259 2228 
L 1259 519 
L 2272 519 
Q 2781 519 3026 730 
Q 3272 941 3272 1375 
Q 3272 1813 3026 2020 
Q 2781 2228 2272 2228 
L 1259 2228 
z
M 1259 4147 
L 1259 2741 
L 2194 2741 
Q 2656 2741 2882 2914 
Q 3109 3088 3109 3444 
Q 3109 3797 2882 3972 
Q 2656 4147 2194 4147 
L 1259 4147 
z
M 628 4666 
L 2241 4666 
Q 2963 4666 3353 4366 
Q 3744 4066 3744 3513 
Q 3744 3084 3544 2831 
Q 3344 2578 2956 2516 
Q 3422 2416 3680 2098 
Q 3938 1781 3938 1306 
Q 3938 681 3513 340 
Q 3088 0 2303 0 
L 628 0 
L 628 4666 
z
" transform="scale(0.015625)"/>
      </defs>
      <use xlink:href="#DejaVuSans-25"/>
      <use xlink:href="#DejaVuSans-48" transform="translate(68.609375 0)"/>
      <use xlink:href="#DejaVuSans-56" transform="translate(130.140625 0)"/>
      <use xlink:href="#DejaVuSans-57" transform="translate(182.234375 0)"/>
      <use xlink:href="#DejaVuSans-3" transform="translate(221.4375 0)"/>
      <use xlink:href="#DejaVuSans-48" transform="translate(253.21875 0)"/>
      <use xlink:href="#DejaVuSans-53" transform="translate(314.75 0)"/>
      <use xlink:href="#DejaVuSans-52" transform="translate(378.234375 0)"/>
      <use xlink:href="#DejaVuSans-46" transform="translate(439.421875 0)"/>
      <use xlink:href="#DejaVuSans-4b" transform="translate(494.40625 0)"/>
      <use xlink:href="#DejaVuSans-3" transform="translate(557.78125 0)"/>
      <use xlink:href="#DejaVuSans-20" transform="translate(589.5625 0)"/>
      <use xlink:href="#DejaVuSans-3" transform="translate(673.359375 0)"/>
      <use xlink:href="#DejaVuSans-15" transform="translate(705.140625 0)"/>
      <use xlink:href="#DejaVuSans-1b" transform="translate(768.765625 0)"/>
      <use xlink:href="#DejaVuSans-16" transform="translate(832.390625 0)"/>
     </g>
    </g>
   </g>
  </g>
 </g>
 <defs>
  <clipPath id="p3bae4c938d">
   <rect x="68.700781" y="25.558281" width="522.898739" height="276.840458"/>
  </clipPath>
 </defs>
</svg>
